{
.appVersion = "3134";
classes = (
{
code = "Euro bar cent colon comma degree divide dollar eight equal five four greater less minus multiply nine numbersign one paragraph percent period periodcentered plus plusminus quotedbl quotesingle section semicolon seven six slash sterling three two underscore yen zero";
name = tnum1;
},
{
code = "Euro.tnum bar.tnum cent.tnum colon.tnum comma.tnum degree.tnum divide.tnum dollar.tnum eight.tnum equal.tnum five.tnum four.tnum greater.tnum less.tnum minus.tnum multiply.tnum nine.tnum numbersign.tnum one.tnum paragraph.tnum percent.tnum period.tnum periodcentered.tnum plus.tnum plusminus.tnum quotedbl.tnum quotesingle.tnum section.tnum semicolon.tnum seven.tnum six.tnum slash.tnum sterling.tnum three.tnum two.tnum underscore.tnum yen.tnum zero.tnum";
name = tnum2;
}
);
copyright = "Copyright 2020 The Libre Caslon Text Project Authors (https://github.com/thundernixon/Libre-Caslon)";
customParameters = (
{
name = openTypeOS2Panose;
value = (
2,
2,
6,
2,
6,
3,
0,
0,
0,
4
);
},
{
name = openTypeOS2StrikeoutPosition;
value = 250;
},
{
name = openTypeOS2StrikeoutSize;
value = 50;
},
{
name = openTypeOS2SubscriptXOffset;
value = 0;
},
{
name = openTypeOS2SubscriptXSize;
value = 700;
},
{
name = openTypeOS2SubscriptYOffset;
value = 140;
},
{
name = openTypeOS2SubscriptYSize;
value = 650;
},
{
name = openTypeOS2SuperscriptXOffset;
value = 0;
},
{
name = openTypeOS2SuperscriptXSize;
value = 700;
},
{
name = openTypeOS2SuperscriptYOffset;
value = 477;
},
{
name = openTypeOS2SuperscriptYSize;
value = 650;
},
{
name = fsType;
value = (
);
},
{
name = blueFuzz;
value = 0;
},
{
name = blueScale;
value = 0.01667;
},
{
name = blueShift;
value = 10;
},
{
name = "Use Typo Metrics";
value = 1;
},
{
name = "Disable Last Change";
value = 1;
},
{
name = "Use Line Breaks";
value = 1;
},
{
name = license;

glyphs = (
{
glyphname = A;
layers = (
{
anchors = (
{
name = bottom;
position = "{778, 0}";
},
{
name = topcap;
position = "{1040, 1643}";
}
);
background = {
paths = (
{
closed = 1;
nodes = (
"1112 1394 LINE",
"150 275 LINE SMOOTH",
"15 117 OFFCURVE",
"-48 82 OFFCURVE",
"-226 55 CURVE",
"-252 0 LINE",
"319 0 LINE",
"344 55 LINE",
"225 71 OFFCURVE",
"175 96 OFFCURVE",
"175 139 CURVE SMOOTH",
"175 172 OFFCURVE",
"195 199 OFFCURVE",
"256 271 CURVE SMOOTH",
"1081 1230 LINE"
);
},
{
closed = 1;
nodes = (
"994 639 LINE",
"540 639 LINE",
"478 565 LINE",
"983 565 LINE"
);
},
{
closed = 1;
nodes = (
"915 208 LINE SMOOTH",
"898 93 OFFCURVE",
"845 58 OFFCURVE",
"684 55 CURVE",
"655 0 LINE",
"1253 0 LINE",
"1282 55 LINE",
"1135 66 OFFCURVE",
"1103 92 OFFCURVE",
"1115 182 CURVE SMOOTH",
"1295 1569 LINE",
"1093 1523 LINE",
"1065 1286 LINE"
);
}
);
};
layerId = master01;
paths = (
{
closed = 1;
nodes = (
"1028 1524 LINE",
"126 275 LINE SMOOTH",
"12 117 OFFCURVE",
"-45 71 OFFCURVE",
"-193 45 CURVE",
"-212 0 LINE",
"268 0 LINE",
"286 45 LINE",
"185 61 OFFCURVE",
"147 96 OFFCURVE",
"147 139 CURVE SMOOTH",
"147 172 OFFCURVE",
"164 201 OFFCURVE",
"215 271 CURVE SMOOTH",
"1002 1360 LINE"
);
},
{
closed = 1;
nodes = (
"835 639 LINE",
"454 639 LINE",
"402 565 LINE",
"826 565 LINE"
);
},
{
closed = 1;
nodes = (
"769 208 LINE SMOOTH",
"755 93 OFFCURVE",
"705 47 OFFCURVE",
"570 45 CURVE",
"550 0 LINE",
"1053 0 LINE",
"1072 45 LINE",
"949 55 OFFCURVE",
"927 92 OFFCURVE",
"937 182 CURVE SMOOTH",
"1083 1523 LINE",
"1028 1524 LINE",
"895 1286 LINE"
);
}
);
width = 1258;
},
{
anchors = (
{
name = bottom;
position = "{886, 0}";
},
{
name = topcap;
position = "{1198, 1643}";
}
);
associatedMasterId = master01;
layerId = "CA5349ED-4193-4C38-9110-5E52926B6C4B";
name = "Jan 9 19, 13:25";
paths = (
{
closed = 1;
nodes = (
"264 0 LINE",
"289 55 LINE",
"172 71 OFFCURVE",
"122 94 OFFCURVE",
"120 136 CURVE SMOOTH",
"120 172 OFFCURVE",
"138 200 OFFCURVE",
"200 271 CURVE SMOOTH",
"456 565 LINE",
"925 565 LINE",
"875 208 LINE SMOOTH",
"857 85 OFFCURVE",
"793 58 OFFCURVE",
"644 55 CURVE",
"615 0 LINE",
"1224 0 LINE",
"1253 55 LINE",
"1130 63 OFFCURVE",
"1086 78 OFFCURVE",
"1084 149 CURVE SMOOTH",
"1084 159 OFFCURVE",
"1084 169 OFFCURVE",
"1086 182 CURVE SMOOTH",
"1267 1569 LINE",
"1052 1523 LINE",
"1032 1340 LINE",
"115 275 LINE SMOOTH",
"-13 128 OFFCURVE",
"-71 83 OFFCURVE",
"-260 55 CURVE",
"-287 0 LINE"
);
},
{
closed = 1;
nodes = (
"1018 1216 LINE",
"935 639 LINE",
"518 639 LINE"
);
}
);
width = 1480;
},
{
anchors = (
{
name = bottom;
position = "{838, 0}";
},
{
name = topcap;
position = "{984, 1643}";
}
);
background = {
paths = (
{
closed = 1;
nodes = (
"989 1287 LINE",
"128 292 LINE SMOOTH",
"-7 137 OFFCURVE",
"-38 105 OFFCURVE",
"-237 73 CURVE",
"-267 0 LINE",
"365 0 LINE",
"395 73 LINE",
"272 92 OFFCURVE",
"213 117 OFFCURVE",
"213 165 CURVE SMOOTH",
"213 196 OFFCURVE",
"237 235 OFFCURVE",
"283 289 CURVE SMOOTH",
"1039 1161 LINE"
);
},
{
closed = 1;
nodes = (
"1023 552 LINE",
"385 552 LINE",
"339 440 LINE",
"976 440 LINE"
);
},
{
closed = 1;
nodes = (
"838 226 LINE SMOOTH",
"822 94 OFFCURVE",
"774 78 OFFCURVE",
"600 73 CURVE",
"570 0 LINE",
"1309 0 LINE",
"1339 73 LINE",
"1199 83 OFFCURVE",
"1165 104 OFFCURVE",
"1176 193 CURVE SMOOTH",
"1339 1563 LINE",
"990 1451 LINE",
"955 1152 LINE"
);
},
{
closed = 1;
nodes = (
"988 1287 LINE",
"143 292 LINE SMOOTH",
"-1 123 OFFCURVE",
"-38 102 OFFCURVE",
"-225 68 CURVE",
"-252 0 LINE",
"365 0 LINE",
"393 68 LINE",
"263 94 OFFCURVE",
"213 121 OFFCURVE",
"213 165 CURVE SMOOTH",
"213 193 OFFCURVE",
"234 231 OFFCURVE",
"283 289 CURVE SMOOTH",
"1039 1170 LINE"
);
},
{
closed = 1;
nodes = (
"1023 552 LINE",
"385 552 LINE",
"339 440 LINE",
"976 440 LINE"
);
},
{
closed = 1;
nodes = (
"843 226 LINE SMOOTH",
"828 102 OFFCURVE",
"791 79 OFFCURVE",
"602 68 CURVE",
"575 0 LINE",
"1303 0 LINE",
"1331 68 LINE",
"1189 83 OFFCURVE",
"1160 106 OFFCURVE",
"1170 193 CURVE SMOOTH",
"1333 1563 LINE",
"989 1451 LINE",
"953 1152 LINE"
);
}
);
};
layerId = "D3934E74-9B53-4E98-B19F-CD3DFEE08352";
paths = (
{
closed = 1;
nodes = (
"1000 1523 LINE",
"120 292 LINE SMOOTH",
"-1 123 OFFCURVE",
"-32 102 OFFCURVE",
"-189 68 CURVE",
"-212 0 LINE",
"307 0 LINE",
"330 68 LINE",
"221 94 OFFCURVE",
"179 121 OFFCURVE",
"179 165 CURVE SMOOTH",
"179 193 OFFCURVE",
"197 231 OFFCURVE",
"238 289 CURVE SMOOTH",
"1019 1373 LINE"
);
},
{
closed = 1;
nodes = (
"859 547 LINE",
"323 547 LINE",
"285 443 LINE",
"820 443 LINE"
);
},
{
closed = 1;
nodes = (
"727 226 LINE SMOOTH",
"715 102 OFFCURVE",
"684 79 OFFCURVE",
"525 68 CURVE",
"502 0 LINE",
"1080 0 LINE",
"1104 68 LINE",
"984 83 OFFCURVE",
"960 106 OFFCURVE",
"969 193 CURVE SMOOTH",
"1101 1523 LINE",
"1000 1523 LINE",
"820 1152 LINE"
);
}
);
width = 1273;
},
{
anchors = (
{
name = bottom;
position = "{886, 0}";
},
{
name = topcap;
position = "{1198, 1643}";
}
);
associatedMasterId = "D3934E74-9B53-4E98-B19F-CD3DFEE08352";
layerId = "682F6276-851F-41F1-906A-C63B3B00156A";
name = "Jan 9 19, 13:25";
paths = (
{
closed = 1;
nodes = (
"264 0 LINE",
"289 55 LINE",
"172 71 OFFCURVE",
"122 94 OFFCURVE",
"120 136 CURVE SMOOTH",
"120 172 OFFCURVE",
"138 200 OFFCURVE",
"200 271 CURVE SMOOTH",
"456 565 LINE",
"925 565 LINE",
"875 208 LINE SMOOTH",
"857 85 OFFCURVE",
"793 58 OFFCURVE",
"644 55 CURVE",
"615 0 LINE",
"1224 0 LINE",
"1253 55 LINE",
"1130 63 OFFCURVE",
"1086 78 OFFCURVE",
"1084 149 CURVE SMOOTH",
"1084 159 OFFCURVE",
"1084 169 OFFCURVE",
"1086 182 CURVE SMOOTH",
"1267 1569 LINE",
"1052 1523 LINE",
"1032 1340 LINE",
"115 275 LINE SMOOTH",
"-13 128 OFFCURVE",
"-71 83 OFFCURVE",
"-260 55 CURVE",
"-287 0 LINE"
);
},
{
closed = 1;
nodes = (
"1018 1216 LINE",
"935 639 LINE",
"518 639 LINE"
);
}
);
width = 1480;
}
);
leftKerningGroup = A;
rightKerningGroup = A;
unicode = 0041;
},
{
glyphname = Aringacute;
layers = (
{
components = (
{
name = A;
},
{
name = ring.cap;
transform = "{0.84, 0, 0, 1, 900, 0}";
}
);
layerId = master01;
paths = (
{
closed = 1;
nodes = (
"1225 1734 OFFCURVE",
"1252 1761 OFFCURVE",
"1252 1804 CURVE SMOOTH",
"1252 1848 OFFCURVE",
"1228 1872 OFFCURVE",
"1179 1872 CURVE SMOOTH",
"1163 1872 OFFCURVE",
"1150 1868 OFFCURVE",
"1135 1862 CURVE",
"1137 1734 LINE"
);
},
{
closed = 1;
nodes = (
"956 1810 LINE",
"851 1769 LINE",
"858 1721 LINE",
"951 1718 LINE"
);
}
);
width = 1258;
},
{
components = (
{
name = A;
},
{
name = ring.cap;
transform = "{0.84, 0, 0, 1, 387, 0}";
}
);
layerId = "D3934E74-9B53-4E98-B19F-CD3DFEE08352";
paths = (
{
closed = 1;
nodes = (
"1222 1721 OFFCURVE",
"1256 1754 OFFCURVE",
"1256 1807 CURVE SMOOTH",
"1256 1859 OFFCURVE",
"1226 1887 OFFCURVE",
"1168 1887 CURVE SMOOTH",
"1149 1887 OFFCURVE",
"1132 1883 OFFCURVE",
"1115 1876 CURVE",
"1118 1721 LINE SMOOTH"
);
},
{
closed = 1;
nodes = (
"900 1814 LINE",
"774 1763 LINE",
"783 1707 LINE",
"894 1703 LINE"
);
}
);
width = 1273;
}
);
leftKerningGroup = A;
leftMetricsKey = A;
rightKerningGroup = A;
rightMetricsKey = A;
unicode = 01FA;
},
{
glyphname = AE;
layers = (
{
background = {
paths = (
{
closed = 1;
nodes = (
"1226 1390 LINE",
"1271 1390 LINE",
"735 93 LINE",
"553 55 LINE",
"529 0 LINE",
"1734 0 LINE",
"1914 456 LINE",
"1857 456 LINE",
"1781 330 OFFCURVE",
"1693 204 OFFCURVE",
"1586 78 CURVE",
"947 78 LINE",
"1227 763 LINE",
"1572 763 LINE",
"1568 685 OFFCURVE",
"1560 606 OFFCURVE",
"1537 526 CURVE",
"1595 526 LINE",
"1818 1069 LINE",
"1762 1069 LINE",
"1717 994 OFFCURVE",
"1662 919 OFFCURVE",
"1595 843 CURVE",
"1263 843 LINE",
"1508 1445 LINE",
"1956 1445 LINE",
"2013 1346 OFFCURVE",
"2047 1229 OFFCURVE",
"2070 1088 CURVE",
"2123 1088 LINE",
"2107 1523 LINE",
"1064 1523 LINE",
"1043 1479 LINE",
"1226 1436 LINE"
);
},
{
closed = 1;
nodes = (
"979 639 LINE",
"563 639 LINE",
"499 561 LINE",
"949 561 LINE"
);
},
{
closed = 1;
nodes = (
"1231 1479 LINE",
"145 275 LINE SMOOTH",
"13 128 OFFCURVE",
"-41 83 OFFCURVE",
"-226 55 CURVE",
"-252 0 LINE",
"306 0 LINE",
"332 55 LINE",
"218 71 OFFCURVE",
"168 94 OFFCURVE",
"168 138 CURVE SMOOTH",
"168 169 OFFCURVE",
"189 203 OFFCURVE",
"253 271 CURVE SMOOTH",
"1314 1445 LINE"
);
}
);
};
layerId = master01;
paths = (
{
closed = 1;
nodes = (
"1030 1390 LINE",
"1068 1390 LINE",
"613 83 LINE",
"460 45 LINE",
"444 0 LINE",
"1457 0 LINE",
"1608 456 LINE",
"1560 456 LINE",
"1496 330 OFFCURVE",
"1422 204 OFFCURVE",
"1332 78 CURVE",
"795 78 LINE",
"1031 763 LINE",
"1320 763 LINE",
"1317 685 OFFCURVE",
"1310 606 OFFCURVE",
"1291 526 CURVE",
"1340 526 LINE",
"1527 1069 LINE",
"1480 1069 LINE",
"1442 994 OFFCURVE",
"1396 919 OFFCURVE",
"1340 843 CURVE",
"1061 843 LINE",
"1267 1445 LINE",
"1643 1445 LINE",
"1691 1346 OFFCURVE",
"1719 1229 OFFCURVE",
"1739 1088 CURVE",
"1783 1088 LINE",
"1770 1523 LINE",
"894 1523 LINE",
"876 1479 LINE",
"1030 1436 LINE"
);
},
{
closed = 1;
nodes = (
"822 639 LINE",
"473 639 LINE",
"419 561 LINE",
"797 561 LINE"
);
},
{
closed = 1;
nodes = (
"1034 1479 LINE",
"122 275 LINE SMOOTH",
"11 128 OFFCURVE",
"-39 73 OFFCURVE",
"-193 45 CURVE",
"-212 0 LINE",
"257 0 LINE",
"275 45 LINE",
"179 61 OFFCURVE",
"141 94 OFFCURVE",
"141 138 CURVE SMOOTH",
"141 169 OFFCURVE",
"159 203 OFFCURVE",
"213 271 CURVE SMOOTH",
"1104 1445 LINE"
);
}
);
width = 1727;
},
{
background = {
paths = (
{
closed = 1;
nodes = (
"1210 1389 LINE",
"1253 1389 LINE",
"719 106 LINE",
"540 68 LINE",
"511 0 LINE",
"1787 0 LINE",
"1971 463 LINE",
"1902 463 LINE",
"1824 341 OFFCURVE",
"1733 229 OFFCURVE",
"1613 108 CURVE",
"1059 108 LINE",
"1327 752 LINE",
"1541 752 LINE",
"1561 679 OFFCURVE",
"1567 602 OFFCURVE",
"1558 529 CURVE",
"1641 529 LINE",
"1871 1082 LINE",
"1788 1082 LINE",
"1749 1020 OFFCURVE",
"1682 947 OFFCURVE",
"1586 859 CURVE",
"1371 859 LINE",
"1603 1415 LINE",
"1954 1415 LINE",
"2015 1330 OFFCURVE",
"2066 1225 OFFCURVE",
"2110 1088 CURVE",
"2179 1088 LINE",
"2161 1523 LINE",
"1043 1523 LINE",
"1014 1455 LINE",
"1210 1424 LINE"
);
},
{
closed = 1;
nodes = (
"1024 547 LINE",
"386 547 LINE",
"340 443 LINE",
"978 443 LINE"
);
},
{
closed = 1;
nodes = (
"1185 1495 LINE",
"143 292 LINE SMOOTH",
"-6 122 OFFCURVE",
"-38 102 OFFCURVE",
"-225 68 CURVE",
"-252 0 LINE",
"366 0 LINE",
"394 68 LINE",
"264 94 OFFCURVE",
"214 121 OFFCURVE",
"214 165 CURVE SMOOTH",
"214 193 OFFCURVE",
"235 231 OFFCURVE",
"284 289 CURVE SMOOTH",
"1298 1449 LINE"
);
}
);
};
layerId = "D3934E74-9B53-4E98-B19F-CD3DFEE08352";
paths = (
{
closed = 1;
nodes = (
"1016 1398 LINE",
"1065 1398 LINE",
"613 106 LINE",
"464 68 LINE",
"439 0 LINE",
"1499 0 LINE",
"1654 463 LINE",
"1596 463 LINE",
"1530 341 OFFCURVE",
"1454 229 OFFCURVE",
"1353 104 CURVE",
"876 104 LINE",
"1104 754 LINE",
"1292 754 LINE",
"1310 679 OFFCURVE",
"1315 602 OFFCURVE",
"1307 529 CURVE",
"1377 529 LINE",
"1570 1082 LINE",
"1500 1082 LINE",
"1467 1020 OFFCURVE",
"1411 947 OFFCURVE",
"1330 858 CURVE",
"1141 858 LINE",
"1336 1420 LINE",
"1640 1420 LINE",
"1691 1330 OFFCURVE",
"1733 1225 OFFCURVE",
"1770 1088 CURVE",
"1828 1088 LINE",
"1814 1523 LINE",
"848 1523 LINE",
"823 1455 LINE",
"1016 1424 LINE"
);
},
{
closed = 1;
nodes = (
"860 547 LINE",
"324 547 LINE",
"286 443 LINE",
"822 443 LINE"
);
},
{
closed = 1;
nodes = (
"995 1495 LINE",
"120 292 LINE SMOOTH",
"-5 122 OFFCURVE",
"-32 102 OFFCURVE",
"-189 68 CURVE",
"-212 0 LINE",
"307 0 LINE",
"331 68 LINE",
"222 94 OFFCURVE",
"180 121 OFFCURVE",
"180 165 CURVE SMOOTH",
"180 193 OFFCURVE",
"197 231 OFFCURVE",
"239 289 CURVE SMOOTH",
"1088 1449 LINE"
);
}
);
width = 1760;
}
);
leftMetricsKey = A;
rightKerningGroup = E;
rightMetricsKey = E;
unicode = 00C6;
},
{
glyphname = B;
layers = (
{
background = {
paths = (
{
closed = 1;
nodes = (
"585 0 LINE SMOOTH",
"968 0 OFFCURVE",
"1223 184 OFFCURVE",
"1223 463 CURVE SMOOTH",
"1223 630 OFFCURVE",
"1134 746 OFFCURVE",
"976 786 CURVE",
"976 793 LINE",
"1238 834 OFFCURVE",
"1431 1013 OFFCURVE",
"1431 1214 CURVE SMOOTH",
"1431 1406 OFFCURVE",
"1252 1523 OFFCURVE",
"971 1523 CURVE SMOOTH",
"496 1523 LINE",
"473 1468 LINE",
"629 1430 LINE",
"70 93 LINE",
"-105 55 LINE",
"-126 0 LINE"
);
},
{
closed = 1;
nodes = (
"368 75 OFFCURVE",
"327 94 OFFCURVE",
"327 146 CURVE SMOOTH",
"327 172 OFFCURVE",
"337 211 OFFCURVE",
"360 267 CURVE SMOOTH",
"567 770 LINE",
"709 770 LINE SMOOTH",
"911 770 OFFCURVE",
"1010 685 OFFCURVE",
"1010 497 CURVE SMOOTH",
"1010 226 OFFCURVE",
"827 75 OFFCURVE",
"480 75 CURVE SMOOTH"
);
},
{
closed = 1;
nodes = (
"850 1443 LINE",
"971 1443 LINE SMOOTH",
"1139 1443 OFFCURVE",
"1225 1369 OFFCURVE",
"1225 1211 CURVE SMOOTH",
"1225 985 OFFCURVE",
"1064 849 OFFCURVE",
"785 849 CURVE SMOOTH",
"600 849 LINE"
);
}
);
};
guideLines = (
{
position = "{1541, 1251}";
}
);
layerId = master01;
paths = (
{
closed = 1;
nodes = (
"491 0 LINE SMOOTH",
"813 0 OFFCURVE",
"1027 184 OFFCURVE",
"1027 463 CURVE SMOOTH",
"1027 630 OFFCURVE",
"953 746 OFFCURVE",
"820 786 CURVE",
"820 793 LINE",
"1040 834 OFFCURVE",
"1202 1013 OFFCURVE",
"1202 1214 CURVE SMOOTH",
"1202 1406 OFFCURVE",
"1052 1523 OFFCURVE",
"816 1523 CURVE SMOOTH",
"417 1523 LINE",
"402 1479 LINE",
"532 1441 LINE",
"55 83 LINE",
"-92 45 LINE",
"-106 0 LINE"
);
},
{
closed = 1;
nodes = (
"309 75 OFFCURVE",
"275 94 OFFCURVE",
"275 146 CURVE SMOOTH",
"275 172 OFFCURVE",
"283 211 OFFCURVE",
"302 267 CURVE SMOOTH",
"476 770 LINE",
"596 770 LINE SMOOTH",
"765 770 OFFCURVE",
"848 685 OFFCURVE",
"848 497 CURVE SMOOTH",
"848 226 OFFCURVE",
"695 75 OFFCURVE",
"403 75 CURVE SMOOTH"
);
},
{
closed = 1;
nodes = (
"714 1443 LINE",
"816 1443 LINE SMOOTH",
"957 1443 OFFCURVE",
"1029 1369 OFFCURVE",
"1029 1211 CURVE SMOOTH",
"1029 985 OFFCURVE",
"894 849 OFFCURVE",
"659 849 CURVE SMOOTH",
"504 849 LINE"
);
}
);
width = 1156;
},
{
background = {
paths = (
{
closed = 1;
nodes = (
"1313 -21 OFFCURVE",
"1796 507 OFFCURVE",
"1796 1025 CURVE SMOOTH",
"1796 1346 OFFCURVE",
"1597 1544 OFFCURVE",
"1246 1544 CURVE SMOOTH",
"667 1544 OFFCURVE",
"180 1023 OFFCURVE",
"180 501 CURVE SMOOTH",
"180 183 OFFCURVE",
"371 -21 OFFCURVE",
"723 -21 CURVE SMOOTH"
);
},
{
closed = 1;
nodes = (
"602 88 OFFCURVE",
"522 200 OFFCURVE",
"522 421 CURVE SMOOTH",
"522 918 OFFCURVE",
"862 1436 OFFCURVE",
"1214 1436 CURVE SMOOTH",
"1373 1436 OFFCURVE",
"1454 1325 OFFCURVE",
"1454 1105 CURVE SMOOTH",
"1454 603 OFFCURVE",
"1116 88 OFFCURVE",
"765 88 CURVE SMOOTH"
);
}
);
};
guideLines = (
{
position = "{736, 703}";
}
);
layerId = "D3934E74-9B53-4E98-B19F-CD3DFEE08352";
paths = (
{
closed = 1;
nodes = (
"504 0 LINE SMOOTH",
"855 0 OFFCURVE",
"1089 204 OFFCURVE",
"1089 474 CURVE SMOOTH",
"1089 647 OFFCURVE",
"1006 762 OFFCURVE",
"816 791 CURVE",
"816 804 LINE",
"1130 856 OFFCURVE",
"1283 1006 OFFCURVE",
"1283 1213 CURVE SMOOTH",
"1283 1413 OFFCURVE",
"1136 1523 OFFCURVE",
"831 1523 CURVE SMOOTH",
"407 1523 LINE",
"383 1455 LINE",
"522 1416 LINE",
"65 106 LINE",
"-85 68 LINE",
"-109 0 LINE"
);
},
{
closed = 1;
nodes = (
"402 104 OFFCURVE",
"368 126 OFFCURVE",
"368 170 CURVE SMOOTH",
"368 182 OFFCURVE",
"370 199 OFFCURVE",
"378 222 CURVE SMOOTH",
"567 759 LINE",
"618 759 LINE SMOOTH",
"755 759 OFFCURVE",
"820 682 OFFCURVE",
"819 518 CURVE SMOOTH",
"818 272 OFFCURVE",
"678 104 OFFCURVE",
"474 104 CURVE SMOOTH"
);
},
{
closed = 1;
nodes = (
"797 1420 LINE",
"806 1420 LINE SMOOTH",
"943 1420 OFFCURVE",
"1013 1344 OFFCURVE",
"1013 1193 CURVE SMOOTH",
"1013 993 OFFCURVE",
"887 862 OFFCURVE",
"690 862 CURVE SMOOTH",
"602 862 LINE"
);
}
);
width = 1200;
}
);
leftKerningGroup = I;
leftMetricsKey = I;
rightKerningGroup = B;
unicode = 0042;
},
{
glyphname = C;
layers = (
{
anchors = (
{
name = bottom;
position = "{520, 0}";
},
{
name = topcap;
position = "{1113, 1643}";
}
);
guideLines = (
{
angle = 68;
position = "{1273, 772}";
}
);
layerId = master01;
paths = (
{
closed = 1;
nodes = (
"660 -21 OFFCURVE",
"774 29 OFFCURVE",
"906 153 CURVE",
"913 153 LINE",
"900 0 LINE",
"945 0 LINE",
"1129 580 LINE",
"1081 580 LINE",
"967 265 OFFCURVE",
"769 73 OFFCURVE",
"556 73 CURVE SMOOTH",
"388 73 OFFCURVE",
"302 193 OFFCURVE",
"302 433 CURVE SMOOTH",
"302 944 OFFCURVE",
"676 1457 OFFCURVE",
"1049 1457 CURVE SMOOTH",
"1179 1457 OFFCURVE",
"1239 1396 OFFCURVE",
"1239 1255 CURVE SMOOTH",
"1239 1203 OFFCURVE",
"1231 1142 OFFCURVE",
"1214 1069 CURVE",
"1263 1069 LINE",
"1424 1523 LINE",
"1387 1523 LINE",
"1327 1459 LINE",
"1267 1512 OFFCURVE",
"1172 1544 OFFCURVE",
"1066 1544 CURVE SMOOTH",
"594 1544 OFFCURVE",
"120 982 OFFCURVE",
"120 421 CURVE SMOOTH",
"120 128 OFFCURVE",
"249 -21 OFFCURVE",
"511 -21 CURVE SMOOTH"
);
}
);
width = 1234;
},
{
anchors = (
{
name = bottom;
position = "{504, 0}";
},
{
name = topcap;
position = "{1097, 1643}";
}
);
background = {
paths = (
{
closed = 1;
nodes = (
"859 -21 OFFCURVE",
"1023 38 OFFCURVE",
"1165 129 CURVE",
"1170 129 LINE",
"1172 0 LINE",
"1241 0 LINE",
"1481 611 LINE",
"1412 611 LINE",
"1233 278 OFFCURVE",
"965 88 OFFCURVE",
"752 88 CURVE SMOOTH",
"583 88 OFFCURVE",
"496 199 OFFCURVE",
"496 444 CURVE SMOOTH",
"496 975 OFFCURVE",
"841 1436 OFFCURVE",
"1255 1436 CURVE SMOOTH",
"1460 1436 OFFCURVE",
"1579 1323 OFFCURVE",
"1579 1126 CURVE SMOOTH",
"1579 1093 OFFCURVE",
"1576 1065 OFFCURVE",
"1571 1039 CURVE",
"1640 1039 LINE",
"1838 1523 LINE",
"1769 1523 LINE",
"1648 1397 LINE",
"1541 1510 OFFCURVE",
"1411 1544 OFFCURVE",
"1251 1544 CURVE SMOOTH",
"664 1544 OFFCURVE",
"153 1067 OFFCURVE",
"153 501 CURVE SMOOTH",
"153 169 OFFCURVE",
"340 -21 OFFCURVE",
"674 -21 CURVE SMOOTH"
);
}
);
};
layerId = "D3934E74-9B53-4E98-B19F-CD3DFEE08352";
paths = (
{
closed = 1;
nodes = (
"722 -21 OFFCURVE",
"859 38 OFFCURVE",
"979 129 CURVE",
"983 129 LINE",
"984 0 LINE",
"1042 0 LINE",
"1244 611 LINE",
"1186 611 LINE",
"1036 278 OFFCURVE",
"811 88 OFFCURVE",
"632 88 CURVE SMOOTH",
"490 88 OFFCURVE",
"417 187 OFFCURVE",
"417 432 CURVE SMOOTH",
"417 964 OFFCURVE",
"732 1438 OFFCURVE",
"1060 1438 CURVE SMOOTH",
"1224 1438 OFFCURVE",
"1307 1324 OFFCURVE",
"1307 1126 CURVE SMOOTH",
"1307 1093 OFFCURVE",
"1305 1065 OFFCURVE",
"1300 1039 CURVE",
"1358 1039 LINE",
"1525 1523 LINE",
"1467 1523 LINE",
"1396 1435 LINE",
"1311 1507 OFFCURVE",
"1187 1544 OFFCURVE",
"1056 1544 CURVE SMOOTH",
"585 1544 OFFCURVE",
"129 1055 OFFCURVE",
"129 488 CURVE SMOOTH",
"129 157 OFFCURVE",
"286 -21 OFFCURVE",
"566 -21 CURVE SMOOTH"
);
}
);
width = 1322;
}
);
leftKerningGroup = C;
leftMetricsKey = O;
rightKerningGroup = C;
unicode = 0043;
},
{
glyphname = D;
layers = (
{
anchors = (
{
name = bottom;
position = "{427, 0}";
},
{
name = topcap;
position = "{958, 1643}";
}
);
layerId = master01;
paths = (
{
closed = 1;
nodes = (
"405 0 LINE SMOOTH",
"928 0 OFFCURVE",
"1302 466 OFFCURVE",
"1302 965 CURVE SMOOTH",
"1302 1338 OFFCURVE",
"1090 1523 OFFCURVE",
"761 1523 CURVE SMOOTH",
"419 1523 LINE",
"402 1479 LINE",
"532 1441 LINE",
"60 83 LINE",
"-94 45 LINE",
"-110 0 LINE"
);
},
{
closed = 1;
nodes = (
"311 83 OFFCURVE",
"279 104 OFFCURVE",
"279 159 CURVE SMOOTH",
"279 182 OFFCURVE",
"286 214 OFFCURVE",
"301 256 CURVE SMOOTH",
"714 1445 LINE",
"759 1445 LINE SMOOTH",
"983 1445 OFFCURVE",
"1118 1313 OFFCURVE",
"1118 1010 CURVE SMOOTH",
"1118 516 OFFCURVE",
"774 83 OFFCURVE",
"400 83 CURVE SMOOTH"
);
}
);
width = 1299;
},
{
anchors = (
{
name = bottom;
position = "{501, 0}";
},
{
name = topcap;
position = "{1033, 1643}";
}
);
layerId = "D3934E74-9B53-4E98-B19F-CD3DFEE08352";
paths = (
{
closed = 1;
nodes = (
"498 0 LINE",
"1059 0 OFFCURVE",
"1469 409 OFFCURVE",
"1469 934 CURVE SMOOTH",
"1469 1318 OFFCURVE",
"1257 1523 OFFCURVE",
"868 1523 CURVE SMOOTH",
"407 1523 LINE",
"383 1455 LINE",
"522 1416 LINE",
"65 106 LINE",
"-85 68 LINE",
"-109 0 LINE"
);
},
{
closed = 1;
nodes = (
"410 107 OFFCURVE",
"379 131 OFFCURVE",
"379 176 CURVE SMOOTH",
"379 190 OFFCURVE",
"382 207 OFFCURVE",
"389 226 CURVE SMOOTH",
"805 1414 LINE",
"877 1414 LINE SMOOTH",
"1067 1414 OFFCURVE",
"1182 1278 OFFCURVE",
"1182 994 CURVE SMOOTH",
"1182 522 OFFCURVE",
"869 107 OFFCURVE",
"471 107 CURVE SMOOTH"
);
}
);
width = 1462;
}
);
leftKerningGroup = I;
leftMetricsKey = I;
rightKerningGroup = D;
rightMetricsKey = D;
unicode = 0044;
},
{
glyphname = Eth;
layers = (
{
components = (
{
name = D;
transform = "{1, 0, 0, 1, 1, 0}";
}
);
layerId = master01;
paths = (
{
closed = 1;
nodes = (
"689 744 LINE",
"720 831 LINE",
"127 831 LINE",
"97 744 LINE"
);
}
);
width = 1300;
},
{
background = {
paths = (
{
closed = 1;
nodes = (
"860 744 LINE",
"897 831 LINE",
"191 831 LINE",
"155 744 LINE"
);
}
);
};
components = (
{
name = D;
transform = "{1, 0, 0, 1, 1, 0}";
}
);
layerId = "D3934E74-9B53-4E98-B19F-CD3DFEE08352";
paths = (
{
closed = 1;
nodes = (
"734 721 LINE",
"780 854 LINE",
"149 854 LINE",
"103 721 LINE"
);
}
);
width = 1462;
}
);
leftKerningGroup = I;
rightKerningGroup = D;
rightMetricsKey = D;
unicode = 00D0;
},
{
glyphname = Dcroat;
layers = (
{
background = {
components = (
{
name = D;
transform = "{1, 0, 0, 1, 5, 0}";
}
);
paths = (
{
closed = 1;
nodes = (
"859 744 LINE",
"896 831 LINE",
"190 831 LINE",
"154 744 LINE"
);
}
);
};
components = (
{
name = Eth;
}
);
layerId = master01;
width = 1300;
},
{
background = {
components = (
{
name = D;
}
);
paths = (
{
closed = 1;
nodes = (
"873 721 LINE",
"928 854 LINE",
"176 854 LINE",
"122 721 LINE"
);
}
);
};
components = (
{
name = Eth;
}
);
layerId = "D3934E74-9B53-4E98-B19F-CD3DFEE08352";
width = 1462;
}
);
leftKerningGroup = I;
leftMetricsKey = D;
rightKerningGroup = D;
rightMetricsKey = D;
unicode = 0110;
},
{
glyphname = E;
layers = (
{
anchors = (
{
name = bottom;
position = "{403, 0}";
},
{
name = topcap;
position = "{931, 1643}";
}
);
layerId = master01;
paths = (
{
closed = 1;
nodes = (
"902 0 LINE",
"1053 456 LINE",
"1005 456 LINE",
"942 330 OFFCURVE",
"868 204 OFFCURVE",
"778 78 CURVE",
"241 78 LINE",
"477 763 LINE",
"766 763 LINE",
"762 685 OFFCURVE",
"755 606 OFFCURVE",
"738 526 CURVE",
"786 526 LINE",
"974 1069 LINE",
"926 1069 LINE",
"887 994 OFFCURVE",
"841 919 OFFCURVE",
"786 843 CURVE",
"507 843 LINE",
"713 1445 LINE",
"1088 1445 LINE",
"1137 1346 OFFCURVE",
"1164 1229 OFFCURVE",
"1185 1088 CURVE",
"1231 1088 LINE",
"1217 1523 LINE",
"419 1523 LINE",
"402 1479 LINE",
"532 1441 LINE",
"60 83 LINE",
"-94 45 LINE",
"-110 0 LINE"
);
}
);
width = 1173;
},
{
anchors = (
{
name = bottom;
position = "{509, 0}";
},
{
name = topcap;
position = "{939, 1643}";
}
);
background = {
paths = (
{
closed = 1;
nodes = (
"1154 0 LINE",
"1338 463 LINE",
"1269 463 LINE",
"1191 341 OFFCURVE",
"1100 229 OFFCURVE",
"980 104 CURVE",
"412 104 LINE",
"682 753 LINE",
"907 753 LINE",
"928 679 OFFCURVE",
"934 602 OFFCURVE",
"925 529 CURVE",
"1008 529 LINE",
"1238 1082 LINE",
"1155 1082 LINE",
"1116 1020 OFFCURVE",
"1049 947 OFFCURVE",
"952 857 CURVE",
"725 857 LINE",
"960 1420 LINE",
"1321 1420 LINE",
"1382 1330 OFFCURVE",
"1432 1225 OFFCURVE",
"1476 1088 CURVE",
"1545 1088 LINE",
"1528 1523 LINE",
"485 1523 LINE",
"456 1455 LINE",
"622 1416 LINE",
"76 106 LINE",
"-102 68 LINE",
"-131 0 LINE"
);
}
);
};
guideLines = (
{
position = "{1084, 699}";
}
);
layerId = "D3934E74-9B53-4E98-B19F-CD3DFEE08352";
paths = (
{
closed = 1;
nodes = (
"969 0 LINE",
"1124 463 LINE",
"1066 463 LINE",
"1002 344 OFFCURVE",
"927 233 OFFCURVE",
"823 104 CURVE",
"346 104 LINE",
"573 753 LINE",
"774 753 LINE",
"780 677 OFFCURVE",
"777 577 OFFCURVE",
"770 510 CURVE",
"840 510 LINE",
"1026 1043 LINE",
"957 1043 LINE",
"924 994 OFFCURVE",
"866 920 OFFCURVE",
"802 857 CURVE",
"609 857 LINE",
"806 1420 LINE",
"1110 1420 LINE",
"1163 1327 OFFCURVE",
"1205 1221 OFFCURVE",
"1240 1088 CURVE",
"1298 1088 LINE",
"1284 1523 LINE",
"407 1523 LINE",
"383 1455 LINE",
"522 1416 LINE",
"64 106 LINE",
"-86 68 LINE",
"-110 0 LINE"
);
}
);
width = 1230;
}
);
leftKerningGroup = I;
leftMetricsKey = I;
rightKerningGroup = E;
unicode = 0045;
},
{
glyphname = F;
layers = (
{
layerId = master01;
paths = (
{
closed = 1;
nodes = (
"419 0 LINE",
"435 45 LINE",
"241 78 LINE",
"468 740 LINE",
"758 740 LINE",
"754 661 OFFCURVE",
"748 582 OFFCURVE",
"729 503 CURVE",
"778 503 LINE",
"965 1044 LINE",
"917 1044 LINE",
"879 970 OFFCURVE",
"832 895 OFFCURVE",
"778 820 CURVE",
"498 820 LINE",
"713 1445 LINE",
"1102 1445 LINE",
"1141 1346 OFFCURVE",
"1168 1229 OFFCURVE",
"1185 1088 CURVE",
"1231 1088 LINE",
"1231 1523 LINE",
"419 1523 LINE",
"402 1479 LINE",
"532 1441 LINE",
"60 83 LINE",
"-94 45 LINE",
"-110 0 LINE"
);
}
);
width = 1038;
},
{
background = {
paths = (
{
closed = 1;
nodes = (
"598 0 LINE",
"626 68 LINE",
"413 106 LINE",
"675 736 LINE",
"900 736 LINE",
"921 663 OFFCURVE",
"927 586 OFFCURVE",
"918 512 CURVE",
"1001 512 LINE",
"1231 1066 LINE",
"1148 1066 LINE",
"1109 1004 OFFCURVE",
"1042 930 OFFCURVE",
"945 843 CURVE",
"720 843 LINE",
"958 1415 LINE",
"1321 1415 LINE",
"1382 1330 OFFCURVE",
"1432 1225 OFFCURVE",
"1476 1088 CURVE",
"1545 1088 LINE",
"1528 1523 LINE",
"485 1523 LINE",
"456 1455 LINE",
"622 1416 LINE",
"76 106 LINE",
"-102 68 LINE",
"-131 0 LINE"
);
}
);
};
layerId = "D3934E74-9B53-4E98-B19F-CD3DFEE08352";
paths = (
{
closed = 1;
nodes = (
"502 0 LINE",
"526 68 LINE",
"347 106 LINE",
"567 737 LINE",
"756 737 LINE",
"774 663 OFFCURVE",
"779 586 OFFCURVE",
"771 512 CURVE",
"841 512 LINE",
"1034 1066 LINE",
"964 1066 LINE",
"932 1004 OFFCURVE",
"875 930 OFFCURVE",
"794 841 CURVE",
"604 841 LINE",
"806 1420 LINE",
"1110 1420 LINE",
"1161 1330 OFFCURVE",
"1203 1225 OFFCURVE",
"1240 1088 CURVE",
"1298 1088 LINE",
"1284 1523 LINE",
"407 1523 LINE",
"383 1455 LINE",
"522 1416 LINE",
"64 106 LINE",
"-86 68 LINE",
"-110 0 LINE"
);
}
);
width = 1125;
}
);
leftKerningGroup = I;
leftMetricsKey = I;
rightKerningGroup = F;
unicode = 0046;
},
{
glyphname = G;
layers = (
{
anchors = (
{
name = bottom;
position = "{532, 0}";
},
{
name = topcap;
position = "{1114, 1643}";
}
);
background = {
paths = (
{
closed = 1;
nodes = (
"1105 -21 OFFCURVE",
"1595 512 OFFCURVE",
"1595 1051 CURVE SMOOTH",
"1595 1365 OFFCURVE",
"1428 1544 OFFCURVE",
"1139 1544 CURVE SMOOTH",
"648 1544 OFFCURVE",
"158 1005 OFFCURVE",
"158 466 CURVE SMOOTH",
"158 159 OFFCURVE",
"323 -21 OFFCURVE",
"610 -21 CURVE SMOOTH"
);
},
{
closed = 1;
nodes = (
"467 73 OFFCURVE",
"387 184 OFFCURVE",
"387 416 CURVE SMOOTH",
"387 925 OFFCURVE",
"764 1457 OFFCURVE",
"1127 1457 CURVE SMOOTH",
"1293 1457 OFFCURVE",
"1375 1346 OFFCURVE",
"1375 1118 CURVE SMOOTH",
"1375 603 OFFCURVE",
"1003 73 OFFCURVE",
"640 73 CURVE SMOOTH"
);
}
);
};
guideLines = (
{
angle = 68;
position = "{1289, 750}";
}
);
layerId = master01;
paths = (
{
closed = 1;
nodes = (
"696 -21 OFFCURVE",
"854 28 OFFCURVE",
"990 117 CURVE",
"1184 681 LINE",
"1344 719 LINE",
"1362 763 LINE",
"889 763 LINE",
"873 719 LINE",
"1010 681 LINE",
"883 314 LINE SMOOTH",
"823 143 OFFCURVE",
"736 68 OFFCURVE",
"595 68 CURVE SMOOTH",
"412 68 OFFCURVE",
"322 198 OFFCURVE",
"322 461 CURVE SMOOTH",
"322 976 OFFCURVE",
"666 1457 OFFCURVE",
"1034 1457 CURVE SMOOTH",
"1178 1457 OFFCURVE",
"1247 1383 OFFCURVE",
"1247 1229 CURVE SMOOTH",
"1247 1177 OFFCURVE",
"1240 1120 OFFCURVE",
"1226 1049 CURVE",
"1275 1049 LINE",
"1438 1523 LINE",
"1399 1523 LINE",
"1314 1435 LINE",
"1240 1511 OFFCURVE",
"1157 1544 OFFCURVE",
"1041 1544 CURVE SMOOTH",
"587 1544 OFFCURVE",
"134 1008 OFFCURVE",
"134 469 CURVE SMOOTH",
"134 159 OFFCURVE",
"289 -21 OFFCURVE",
"559 -21 CURVE SMOOTH"
);
}
);
width = 1327;
},
{
anchors = (
{
name = bottom;
position = "{590, 0}";
},
{
name = topcap;
position = "{1161, 1643}";
}
);
layerId = "D3934E74-9B53-4E98-B19F-CD3DFEE08352";
paths = (
{
closed = 1;
nodes = (
"798 -21 OFFCURVE",
"1021 51 OFFCURVE",
"1169 161 CURVE",
"1336 656 LINE",
"1487 696 LINE",
"1510 763 LINE",
"940 763 LINE",
"916 696 LINE",
"1055 656 LINE",
"941 318 LINE SMOOTH",
"894 177 OFFCURVE",
"778 88 OFFCURVE",
"642 88 CURVE SMOOTH",
"496 88 OFFCURVE",
"423 199 OFFCURVE",
"423 421 CURVE SMOOTH",
"423 967 OFFCURVE",
"727 1436 OFFCURVE",
"1079 1436 CURVE SMOOTH",
"1257 1436 OFFCURVE",
"1361 1317 OFFCURVE",
"1361 1126 CURVE SMOOTH",
"1361 1099 OFFCURVE",
"1359 1070 OFFCURVE",
"1354 1039 CURVE",
"1410 1039 LINE",
"1579 1523 LINE",
"1520 1523 LINE",
"1410 1420 LINE",
"1312 1507 OFFCURVE",
"1214 1544 OFFCURVE",
"1075 1544 CURVE SMOOTH",
"578 1544 OFFCURVE",
"137 1062 OFFCURVE",
"137 524 CURVE SMOOTH",
"137 166 OFFCURVE",
"294 -21 OFFCURVE",
"605 -21 CURVE SMOOTH"
);
}
);
width = 1467;
}
);
leftKerningGroup = C;
leftMetricsKey = O;
rightKerningGroup = G;
unicode = 0047;
},
{
glyphname = H;
layers = (
{
anchors = (
{
name = bottom;
position = "{519, 0}";
},
{
name = topcap;
position = "{1098, 1643}";
}
);
layerId = master01;
paths = (
{
closed = 1;
nodes = (
"1677 1523 LINE",
"1195 1523 LINE",
"1179 1479 LINE",
"1316 1441 LINE",
"1107 841 LINE",
"515 841 LINE",
"724 1441 LINE",
"884 1479 LINE",
"900 1523 LINE",
"419 1523 LINE",
"402 1479 LINE",
"540 1441 LINE",
"69 83 LINE",
"-93 45 LINE",
"-110 0 LINE",
"370 0 LINE",
"388 45 LINE",
"250 83 LINE",
"486 762 LINE",
"1079 762 LINE",
"843 83 LINE",
"681 45 LINE",
"664 0 LINE",
"1147 0 LINE",
"1163 45 LINE",
"1027 83 LINE",
"1501 1441 LINE",
"1662 1479 LINE"
);
}
);
width = 1399;
},
{
anchors = (
{
name = bottom;
position = "{569, 0}";
},
{
name = topcap;
position = "{1113, 1643}";
}
);
layerId = "D3934E74-9B53-4E98-B19F-CD3DFEE08352";
paths = (
{
closed = 1;
nodes = (
"1757 1523 LINE",
"1186 1523 LINE",
"1162 1455 LINE",
"1301 1416 LINE",
"1105 853 LINE",
"608 853 LINE",
"806 1416 LINE",
"957 1455 LINE",
"981 1523 LINE",
"407 1523 LINE",
"383 1455 LINE",
"522 1416 LINE",
"66 106 LINE",
"-84 68 LINE",
"-108 0 LINE",
"465 0 LINE",
"490 68 LINE",
"349 106 LINE",
"573 750 LINE",
"1068 750 LINE",
"844 106 LINE",
"695 68 LINE",
"670 0 LINE",
"1243 0 LINE",
"1267 68 LINE",
"1126 106 LINE",
"1583 1416 LINE",
"1733 1455 LINE"
);
}
);
width = 1455;
}
);
leftKerningGroup = I;
leftMetricsKey = I;
rightKerningGroup = I;
rightMetricsKey = I;
unicode = 0048;
},
{
glyphname = Hbar;
layers = (
{
components = (
{
name = H;
}
);
layerId = master01;
paths = (
{
closed = 1;
nodes = (
"1526 1088 LINE",
"1558 1176 LINE",
"299 1176 LINE",
"269 1088 LINE"
);
}
);
width = 1399;
},
{
background = {
paths = (
{
closed = 1;
nodes = (
"1826 1088 LINE",
"1864 1176 LINE",
"366 1176 LINE",
"330 1088 LINE"
);
}
);
};
components = (
{
name = H;
}
);
layerId = "D3934E74-9B53-4E98-B19F-CD3DFEE08352";
paths = (
{
closed = 1;
nodes = (
"1594 1065 LINE",
"1641 1199 LINE",
"296 1199 LINE",
"250 1065 LINE"
);
}
);
width = 1455;
}
);
leftKerningGroup = I;
leftMetricsKey = H;
rightKerningGroup = I;
rightMetricsKey = H;
unicode = 0126;
},
{
glyphname = I;
layers = (
{
anchors = (
{
name = bottom;
position = "{134, 0}";
},
{
name = topcap;
position = "{727, 1643}";
}
);
layerId = master01;
paths = (
{
closed = 1;
nodes = (
"370 0 LINE",
"388 45 LINE",
"250 83 LINE",
"724 1441 LINE",
"884 1479 LINE",
"900 1523 LINE",
"419 1523 LINE",
"402 1479 LINE",
"540 1441 LINE",
"69 83 LINE",
"-93 45 LINE",
"-110 0 LINE"
);
}
);
width = 623;
},
{
anchors = (
{
name = bottom;
position = "{181, 0}";
},
{
name = topcap;
position = "{735, 1643}";
}
);
layerId = "D3934E74-9B53-4E98-B19F-CD3DFEE08352";
paths = (
{
closed = 1;
nodes = (
"465 0 LINE",
"489 68 LINE",
"349 107 LINE",
"806 1416 LINE",
"956 1454 LINE",
"979 1523 LINE",
"407 1523 LINE",
"383 1455 LINE",
"522 1416 LINE",
"66 107 LINE",
"-84 69 LINE",
"-108 0 LINE"
);
}
);
width = 677;
}
);
leftKerningGroup = I;
rightKerningGroup = I;
unicode = 0049;
},
{
glyphname = J;
layers = (
{
anchors = (
{
name = topcap;
position = "{715, 1643}";
}
);
background = {
paths = (
{
closed = 1;
nodes = (
"-368 -463 OFFCURVE",
"-321 -416 OFFCURVE",
"-321 -358 CURVE SMOOTH",
"-321 -301 OFFCURVE",
"-368 -253 OFFCURVE",
"-426 -253 CURVE SMOOTH",
"-484 -253 OFFCURVE",
"-531 -301 OFFCURVE",
"-531 -358 CURVE SMOOTH",
"-531 -416 OFFCURVE",
"-484 -463 OFFCURVE",
"-426 -463 CURVE SMOOTH"
);
}
);
};
layerId = master01;
paths = (
{
closed = 1;
nodes = (
"-63 -507 OFFCURVE",
"110 -334 OFFCURVE",
"207 -54 CURVE SMOOTH",
"729 1441 LINE",
"889 1479 LINE",
"906 1523 LINE",
"423 1523 LINE",
"407 1479 LINE",
"545 1441 LINE",
"21 -54 LINE SMOOTH",
"-81 -341 OFFCURVE",
"-125 -427 OFFCURVE",
"-197 -427 CURVE SMOOTH",
"-306 -427 OFFCURVE",
"-240 -252 OFFCURVE",
"-358 -252 CURVE SMOOTH",
"-402 -252 OFFCURVE",
"-443 -287 OFFCURVE",
"-443 -351 CURVE SMOOTH",
"-443 -435 OFFCURVE",
"-366 -507 OFFCURVE",
"-244 -507 CURVE SMOOTH"
);
}
);
width = 644;
},
{
anchors = (
{
name = topcap;
position = "{752, 1643}";
}
);
background = {
paths = (
{
closed = 1;
nodes = (
"-430 -420 OFFCURVE",
"-370 -360 OFFCURVE",
"-370 -287 CURVE SMOOTH",
"-370 -214 OFFCURVE",
"-430 -154 OFFCURVE",
"-503 -154 CURVE SMOOTH",
"-576 -154 OFFCURVE",
"-636 -214 OFFCURVE",
"-636 -287 CURVE SMOOTH",
"-636 -360 OFFCURVE",
"-576 -420 OFFCURVE",
"-503 -420 CURVE SMOOTH"
);
}
);
};
layerId = "D3934E74-9B53-4E98-B19F-CD3DFEE08352";
paths = (
{
closed = 1;
nodes = (
"0 -507 OFFCURVE",
"218 -290 OFFCURVE",
"340 62 CURVE SMOOTH",
"812 1413 LINE",
"964 1451 LINE",
"990 1523 LINE",
"428 1523 LINE",
"402 1451 LINE",
"529 1412 LINE",
"30 -17 LINE SMOOTH",
"-71 -309 OFFCURVE",
"-127 -400 OFFCURVE",
"-202 -400 CURVE SMOOTH",
"-324 -400 OFFCURVE",
"-266 -153 OFFCURVE",
"-414 -153 CURVE SMOOTH",
"-486 -153 OFFCURVE",
"-535 -211 OFFCURVE",
"-535 -288 CURVE SMOOTH",
"-535 -417 OFFCURVE",
"-402 -507 OFFCURVE",
"-244 -507 CURVE SMOOTH"
);
}
);
width = 717;
}
);
leftKerningGroup = J;
rightKerningGroup = J;
unicode = 004A;
},
{
glyphname = K;
layers = (
{
anchors = (
{
name = bottom;
position = "{468, 0}";
}
);
layerId = master01;
paths = (
{
closed = 1;
nodes = (
"714 1443 LINE",
"849 1479 LINE",
"866 1523 LINE",
"417 1523 LINE",
"402 1479 LINE",
"531 1441 LINE",
"56 83 LINE",
"-91 45 LINE",
"-106 0 LINE",
"421 0 LINE",
"436 45 LINE",
"239 83 LINE"
);
},
{
closed = 1;
nodes = (
"554 793 LINE",
"788 0 LINE",
"1080 0 LINE",
"1092 45 LINE",
"945 83 LINE",
"679 924 LINE"
);
},
{
closed = 1;
nodes = (
"373 588 LINE",
"1199 1365 LINE SMOOTH",
"1271 1432 OFFCURVE",
"1322 1461 OFFCURVE",
"1419 1468 CURVE",
"1443 1523 LINE",
"990 1523 LINE",
"976 1479 LINE",
"1056 1474 OFFCURVE",
"1091 1445 OFFCURVE",
"1091 1406 CURVE SMOOTH",
"1091 1377 OFFCURVE",
"1067 1344 OFFCURVE",
"1016 1297 CURVE SMOOTH",
"436 750 LINE"
);
}
);
width = 1234;
},
{
anchors = (
{
name = bottom;
position = "{653, 0}";
}
);
layerId = "D3934E74-9B53-4E98-B19F-CD3DFEE08352";
paths = (
{
closed = 1;
nodes = (
"786 1416 LINE",
"937 1455 LINE",
"960 1523 LINE",
"407 1523 LINE",
"383 1455 LINE",
"522 1416 LINE",
"64 106 LINE",
"-86 68 LINE",
"-110 0 LINE",
"484 0 LINE",
"508 68 LINE",
"328 106 LINE"
);
},
{
closed = 1;
nodes = (
"639 765 LINE",
"810 0 LINE",
"1177 0 LINE",
"1201 68 LINE",
"1060 106 LINE",
"832 962 LINE"
);
},
{
closed = 1;
nodes = (
"486 603 LINE",
"1313 1328 LINE SMOOTH",
"1430 1423 OFFCURVE",
"1467 1441 OFFCURVE",
"1598 1455 CURVE",
"1621 1523 LINE",
"1117 1523 LINE",
"1094 1455 LINE",
"1166 1450 OFFCURVE",
"1203 1431 OFFCURVE",
"1203 1403 CURVE SMOOTH",
"1203 1383 OFFCURVE",
"1188 1360 OFFCURVE",
"1157 1333 CURVE SMOOTH",
"528 778 LINE"
);
}
);
width = 1322;
}
);
leftKerningGroup = I;
leftMetricsKey = I;
rightKerningGroup = K;
unicode = 004B;
},
{
glyphname = L;
layers = (
{
anchors = (
{
name = bottom;
position = "{443, 0}";
},
{
name = middle;
position = "{803, 748}";
},
{
name = topcap;
position = "{679, 1643}";
}
);
layerId = master01;
paths = (
{
closed = 1;
nodes = (
"902 0 LINE",
"1062 479 LINE",
"1005 479 LINE",
"942 355 OFFCURVE",
"859 204 OFFCURVE",
"769 78 CURVE",
"241 78 LINE",
"709 1435 LINE",
"877 1479 LINE",
"894 1523 LINE",
"419 1523 LINE",
"402 1479 LINE",
"532 1441 LINE",
"60 83 LINE",
"-94 45 LINE",
"-110 0 LINE"
);
}
);
width = 1105;
},
{
anchors = (
{
name = bottom;
position = "{491, 0}";
},
{
name = middle;
position = "{887, 748}";
},
{
name = topcap;
position = "{705, 1643}";
}
);
background = {
paths = (
{
closed = 1;
nodes = (
"1131 0 LINE",
"1322 479 LINE",
"1253 479 LINE",
"1168 341 OFFCURVE",
"1077 229 OFFCURVE",
"957 108 CURVE",
"413 108 LINE",
"959 1416 LINE",
"1138 1455 LINE",
"1166 1523 LINE",
"485 1523 LINE",
"456 1455 LINE",
"622 1416 LINE",
"76 106 LINE",
"-102 68 LINE",
"-131 0 LINE"
);
}
);
};
layerId = "D3934E74-9B53-4E98-B19F-CD3DFEE08352";
paths = (
{
closed = 1;
nodes = (
"950 0 LINE",
"1110 479 LINE",
"1053 479 LINE",
"981 341 OFFCURVE",
"905 229 OFFCURVE",
"804 104 CURVE",
"345 104 LINE",
"806 1416 LINE",
"956 1455 LINE",
"979 1523 LINE",
"407 1523 LINE",
"383 1455 LINE",
"522 1416 LINE",
"64 106 LINE",
"-86 68 LINE",
"-110 0 LINE"
);
}
);
width = 1142;
}
);
leftKerningGroup = I;
leftMetricsKey = I;
rightKerningGroup = L;
unicode = 004C;
},
{
glyphname = Lslash;
layers = (
{
background = {
paths = (
{
closed = 1;
nodes = (
"873 912 LINE",
"877 1010 LINE",
"93 638 LINE",
"93 542 LINE"
);
}
);
};
components = (
{
name = L;
transform = "{1, 0, 0, 1, 13, 0}";
}
);
layerId = master01;
paths = (
{
closed = 1;
nodes = (
"382 714 LINE",
"441 702 LINE",
"753 877 LINE",
"756 975 LINE",
"451 803 LINE",
"393 815 LINE",
"78 638 LINE",
"78 542 LINE"
);
}
);
width = 1116;
},
{
background = {
paths = (
{
closed = 1;
nodes = (
"500 699 LINE",
"620 757 LINE",
"1034 958 LINE",
"1039 1102 LINE",
"615 896 LINE",
"502 842 LINE",
"82 638 LINE",
"82 496 LINE"
);
}
);
};
components = (
{
name = L;
transform = "{1, 0, 0, 1, 31, 0}";
}
);
layerId = "D3934E74-9B53-4E98-B19F-CD3DFEE08352";
paths = (
{
closed = 1;
nodes = (
"420 699 LINE",
"549 710 LINE",
"898 912 LINE",
"901 1056 LINE",
"545 850 LINE",
"422 842 LINE",
"69 638 LINE",
"69 496 LINE"
);
}
);
width = 1168;
}
);
leftKerningGroup = I;
rightKerningGroup = L;
rightMetricsKey = L;
unicode = 0141;
},
{
glyphname = M;
layers = (
{
background = {
paths = (
{
closed = 1;
nodes = (
"714 -21 LINE",
"1818 1406 LINE",
"1826 1406 LINE",
"1275 83 LINE",
"1082 45 LINE",
"1063 0 LINE",
"1624 0 LINE",
"1644 45 LINE",
"1482 83 LINE",
"2045 1441 LINE",
"2237 1479 LINE",
"2256 1523 LINE",
"1807 1523 LINE",
"864 304 LINE",
"857 304 LINE",
"1018 1523 LINE",
"553 1523 LINE",
"534 1479 LINE",
"712 1441 LINE",
"17 83 LINE",
"-174 45 LINE",
"-195 0 LINE",
"256 0 LINE",
"274 45 LINE",
"113 83 LINE",
"774 1366 LINE",
"782 1366 LINE",
"609 -21 LINE"
);
}
);
};
layerId = master01;
paths = (
{
closed = 1;
nodes = (
"591 -21 LINE",
"1518 1406 LINE",
"1525 1406 LINE",
"1061 83 LINE",
"900 45 LINE",
"883 0 LINE",
"1354 0 LINE",
"1372 45 LINE",
"1235 83 LINE",
"1709 1441 LINE",
"1870 1479 LINE",
"1885 1523 LINE",
"1508 1523 LINE",
"716 304 LINE",
"710 304 LINE",
"845 1523 LINE",
"465 1523 LINE",
"449 1479 LINE",
"598 1441 LINE",
"14 83 LINE",
"-146 45 LINE",
"-164 0 LINE",
"215 0 LINE",
"230 45 LINE",
"95 83 LINE",
"650 1366 LINE",
"657 1366 LINE",
"512 -21 LINE"
);
}
);
width = 1616;
},
{
background = {
paths = (
{
closed = 1;
nodes = (
"1837 1523 LINE",
"978 486 LINE",
"971 486 LINE",
"1036 1523 LINE",
"506 1523 LINE",
"477 1455 LINE",
"643 1416 LINE",
"-17 106 LINE",
"-195 68 LINE",
"-223 0 LINE",
"243 0 LINE",
"272 68 LINE",
"105 106 LINE",
"670 1229 LINE",
"678 1229 LINE",
"598 -21 LINE",
"699 -21 LINE",
"1739 1229 LINE",
"1747 1229 LINE",
"1277 106 LINE",
"1100 68 LINE",
"1071 0 LINE",
"1756 0 LINE",
"1785 68 LINE",
"1618 106 LINE",
"2152 1416 LINE",
"2331 1455 LINE",
"2359 1523 LINE"
);
}
);
};
guideLines = (
{
position = "{1123, 1067}";
}
);
layerId = "D3934E74-9B53-4E98-B19F-CD3DFEE08352";
paths = (
{
closed = 1;
nodes = (
"596 -21 LINE",
"1461 1229 LINE",
"1467 1229 LINE",
"1086 106 LINE",
"937 68 LINE",
"913 0 LINE",
"1463 0 LINE",
"1488 68 LINE",
"1347 106 LINE",
"1793 1416 LINE",
"1937 1455 LINE",
"1961 1523 LINE",
"1546 1523 LINE",
"822 476 LINE",
"806 476 LINE",
"848 1523 LINE",
"449 1523 LINE",
"425 1455 LINE",
"564 1416 LINE",
"10 106 LINE",
"-139 68 LINE",
"-164 0 LINE",
"228 0 LINE",
"253 68 LINE",
"113 106 LINE",
"587 1229 LINE",
"594 1229 LINE",
"543 -21 LINE"
);
}
);
width = 1715;
}
);
leftKerningGroup = M;
rightKerningGroup = I;
unicode = 004D;
userData = {
com.typemytype.robofont.guides = (
{
angle = 0;
isGlobal = 0;
magnetic = 5;
x = 0;
y = 23;
},
{
angle = 0;
isGlobal = 0;
magnetic = 5;
x = 0;
y = 728;
}
);
};
},
{
glyphname = N;
layers = (
{
anchors = (
{
name = bottom;
position = "{498, -21}";
},
{
name = topcap;
position = "{1091, 1643}";
}
);
background = {
paths = (
{
closed = 1;
nodes = (
"1107 -21 LINE",
"1713 1441 LINE",
"1903 1479 LINE",
"1923 1523 LINE",
"1472 1523 LINE",
"1453 1479 LINE",
"1617 1441 LINE",
"1160 339 LINE",
"1152 339 LINE",
"887 1523 LINE",
"499 1523 LINE",
"478 1479 LINE",
"643 1441 LINE",
"81 83 LINE",
"-111 45 LINE",
"-131 0 LINE",
"319 0 LINE",
"337 45 LINE",
"176 83 LINE",
"708 1366 LINE",
"715 1366 LINE",
"1036 -21 LINE"
);
}
);
};
layerId = master01;
paths = (
{
closed = 1;
nodes = (
"930 -21 LINE",
"1439 1441 LINE",
"1599 1479 LINE",
"1615 1523 LINE",
"1236 1523 LINE",
"1221 1479 LINE",
"1358 1441 LINE",
"978 351 LINE",
"971 351 LINE",
"745 1523 LINE",
"419 1523 LINE",
"402 1479 LINE",
"540 1441 LINE",
"68 83 LINE",
"-93 45 LINE",
"-110 0 LINE",
"268 0 LINE",
"283 45 LINE",
"148 83 LINE",
"591 1353 LINE",
"596 1353 LINE",
"870 -21 LINE"
);
}
);
width = 1335;
},
{
anchors = (
{
name = bottom;
position = "{535, -21}";
},
{
name = topcap;
position = "{1128, 1643}";
}
);
layerId = "D3934E74-9B53-4E98-B19F-CD3DFEE08352";
paths = (
{
closed = 1;
nodes = (
"951 -21 LINE",
"1461 1416 LINE",
"1610 1455 LINE",
"1635 1523 LINE",
"1241 1523 LINE",
"1217 1455 LINE",
"1356 1416 LINE",
"1022 462 LINE",
"1015 462 LINE",
"736 1523 LINE",
"407 1523 LINE",
"383 1455 LINE",
"522 1416 LINE",
"71 106 LINE",
"-78 68 LINE",
"-102 0 LINE",
"286 0 LINE",
"309 68 LINE",
"170 106 LINE",
"553 1200 LINE",
"557 1200 LINE",
"879 -21 LINE"
);
}
);
width = 1315;
}
);
leftKerningGroup = N;
leftMetricsKey = I;
rightKerningGroup = N;
rightMetricsKey = I;
unicode = 004E;
},
{
glyphname = Eng;
layers = (
{
components = (
{
name = N;
}
);
layerId = master01;
paths = (
{
closed = 1;
nodes = (
"656 -507 OFFCURVE",
"818 -336 OFFCURVE",
"917 -56 CURVE SMOOTH",
"930 -21 LINE",
"866 253 LINE",
"759 -54 LINE SMOOTH",
"656 -348 OFFCURVE",
"600 -427 OFFCURVE",
"523 -427 CURVE SMOOTH",
"423 -427 OFFCURVE",
"470 -252 OFFCURVE",
"362 -252 CURVE SMOOTH",
"318 -252 OFFCURVE",
"276 -287 OFFCURVE",
"276 -351 CURVE SMOOTH",
"276 -435 OFFCURVE",
"354 -507 OFFCURVE",
"476 -507 CURVE SMOOTH"
);
}
);
width = 1335;
},
{
background = {
paths = (
{
closed = 1;
nodes = (
"691 -507 OFFCURVE",
"896 -336 OFFCURVE",
"1013 -56 CURVE SMOOTH",
"1028 -21 LINE",
"941 253 LINE",
"813 -54 LINE SMOOTH",
"691 -348 OFFCURVE",
"624 -427 OFFCURVE",
"533 -427 CURVE SMOOTH",
"415 -427 OFFCURVE",
"470 -252 OFFCURVE",
"341 -252 CURVE SMOOTH",
"289 -252 OFFCURVE",
"240 -287 OFFCURVE",
"240 -351 CURVE SMOOTH",
"240 -435 OFFCURVE",
"332 -507 OFFCURVE",
"477 -507 CURVE SMOOTH"
);
}
);
};
components = (
{
name = N;
}
);
layerId = "D3934E74-9B53-4E98-B19F-CD3DFEE08352";
paths = (
{
closed = 1;
nodes = (
"658 -507 OFFCURVE",
"830 -364 OFFCURVE",
"951 -21 CURVE SMOOTH",
"974 45 LINE",
"859 345 LINE",
"764 50 LINE SMOOTH",
"640 -332 OFFCURVE",
"567 -415 OFFCURVE",
"507 -415 CURVE SMOOTH",
"413 -415 OFFCURVE",
"478 -207 OFFCURVE",
"344 -207 CURVE SMOOTH",
"281 -207 OFFCURVE",
"244 -256 OFFCURVE",
"244 -316 CURVE SMOOTH",
"244 -432 OFFCURVE",
"375 -507 OFFCURVE",
"491 -507 CURVE SMOOTH"
);
}
);
width = 1315;
}
);
leftKerningGroup = N;
leftMetricsKey = N;
rightKerningGroup = N;
rightMetricsKey = N;
unicode = 014A;
},
{
glyphname = O;
layers = (
{
anchors = (
{
name = bottom;
position = "{490, 0}";
},
{
name = topcap;
position = "{1060, 1643}";
}
);
background = {
paths = (
{
closed = 1;
nodes = (
"1960 1523 LINE",
"1386 1523 LINE",
"1366 1479 LINE",
"1530 1441 LINE",
"1282 841 LINE",
"576 841 LINE",
"826 1441 LINE",
"1016 1479 LINE",
"1035 1523 LINE",
"462 1523 LINE",
"441 1479 LINE",
"606 1441 LINE",
"45 83 LINE",
"-147 45 LINE",
"-168 0 LINE",
"404 0 LINE",
"425 45 LINE",
"261 83 LINE",
"542 762 LINE",
"1247 762 LINE",
"966 83 LINE",
"774 45 LINE",
"754 0 LINE",
"1329 0 LINE",
"1347 45 LINE",
"1186 83 LINE",
"1750 1441 LINE",
"1943 1479 LINE"
);
}
);
};
guideLines = (
{
angle = 68;
position = "{786, 680}";
},
{
position = "{1216, 1265}";
}
);
layerId = master01;
paths = (
{
closed = 1;
nodes = (
"936 -21 OFFCURVE",
"1347 512 OFFCURVE",
"1347 1051 CURVE SMOOTH",
"1347 1365 OFFCURVE",
"1206 1544 OFFCURVE",
"963 1544 CURVE SMOOTH",
"551 1544 OFFCURVE",
"139 1005 OFFCURVE",
"139 466 CURVE SMOOTH",
"139 159 OFFCURVE",
"279 -21 OFFCURVE",
"519 -21 CURVE SMOOTH"
);
},
{
closed = 1;
nodes = (
"400 73 OFFCURVE",
"332 184 OFFCURVE",
"332 416 CURVE SMOOTH",
"332 925 OFFCURVE",
"649 1457 OFFCURVE",
"953 1457 CURVE SMOOTH",
"1093 1457 OFFCURVE",
"1162 1346 OFFCURVE",
"1162 1118 CURVE SMOOTH",
"1162 603 OFFCURVE",
"849 73 OFFCURVE",
"544 73 CURVE SMOOTH"
);
}
);
width = 1321;
},
{
anchors = (
{
name = bottom;
position = "{549, 0}";
},
{
name = topcap;
position = "{1107, 1643}";
}
);
background = {
paths = (
{
closed = 1;
nodes = (
"1290 -21 OFFCURVE",
"1773 507 OFFCURVE",
"1773 1025 CURVE SMOOTH",
"1773 1346 OFFCURVE",
"1574 1544 OFFCURVE",
"1223 1544 CURVE SMOOTH",
"644 1544 OFFCURVE",
"157 1023 OFFCURVE",
"157 501 CURVE SMOOTH",
"157 183 OFFCURVE",
"348 -21 OFFCURVE",
"700 -21 CURVE SMOOTH"
);
},
{
closed = 1;
nodes = (
"579 88 OFFCURVE",
"499 200 OFFCURVE",
"499 421 CURVE SMOOTH",
"499 918 OFFCURVE",
"839 1436 OFFCURVE",
"1191 1436 CURVE SMOOTH",
"1350 1436 OFFCURVE",
"1431 1325 OFFCURVE",
"1431 1105 CURVE SMOOTH",
"1431 603 OFFCURVE",
"1093 88 OFFCURVE",
"742 88 CURVE SMOOTH"
);
}
);
};
layerId = "D3934E74-9B53-4E98-B19F-CD3DFEE08352";
paths = (
{
closed = 1;
nodes = (
"1084 -21 OFFCURVE",
"1489 507 OFFCURVE",
"1489 1025 CURVE SMOOTH",
"1489 1346 OFFCURVE",
"1322 1544 OFFCURVE",
"1027 1544 CURVE SMOOTH",
"541 1544 OFFCURVE",
"132 1023 OFFCURVE",
"132 501 CURVE SMOOTH",
"132 183 OFFCURVE",
"292 -21 OFFCURVE",
"588 -21 CURVE SMOOTH"
);
},
{
closed = 1;
nodes = (
"486 88 OFFCURVE",
"419 200 OFFCURVE",
"419 421 CURVE SMOOTH",
"419 918 OFFCURVE",
"705 1436 OFFCURVE",
"1000 1436 CURVE SMOOTH",
"1134 1436 OFFCURVE",
"1202 1325 OFFCURVE",
"1202 1105 CURVE SMOOTH",
"1202 603 OFFCURVE",
"918 88 OFFCURVE",
"623 88 CURVE SMOOTH"
);
}
);
width = 1455;
}
);
leftKerningGroup = O;
rightKerningGroup = O;
unicode = 004F;
},
{
glyphname = Oslash;
layers = (
{
components = (
{
name = O;
}
);
layerId = master01;
paths = (
{
closed = 1;
nodes = (
"175 -295 LINE",
"1402 1759 LINE",
"1310 1759 LINE",
"87 -295 LINE"
);
}
);
width = 1321;
},
{
background = {
paths = (
{
closed = 1;
nodes = (
"208 -295 LINE",
"1669 1759 LINE",
"1559 1759 LINE",
"104 -295 LINE"
);
}
);
};
components = (
{
name = O;
}
);
layerId = "D3934E74-9B53-4E98-B19F-CD3DFEE08352";
paths = (
{
closed = 1;
nodes = (
"234 -295 LINE",
"1460 1759 LINE",
"1339 1759 LINE",
"116 -295 LINE"
);
}
);
width = 1455;
}
);
leftKerningGroup = O;
leftMetricsKey = O;
rightKerningGroup = O;
rightMetricsKey = O;
unicode = 00D8;
},
{
glyphname = Oslashacute;
layers = (
{
components = (
{
name = O;
}
);
layerId = master01;
paths = (
{
closed = 1;
nodes = (
"175 -295 LINE",
"1402 1759 LINE",
"1310 1759 LINE",
"87 -295 LINE"
);
},
{
closed = 1;
nodes = (
"1126 1703 LINE SMOOTH",
"1214 1732 OFFCURVE",
"1240 1769 OFFCURVE",
"1240 1815 CURVE SMOOTH",
"1240 1864 OFFCURVE",
"1205 1900 OFFCURVE",
"1168 1900 CURVE SMOOTH",
"1142 1900 OFFCURVE",
"1121 1890 OFFCURVE",
"1096 1868 CURVE SMOOTH",
"856 1656 LINE",
"874 1614 LINE"
);
}
);
width = 1321;
},
{
components = (
{
name = O;
}
);
layerId = "D3934E74-9B53-4E98-B19F-CD3DFEE08352";
paths = (
{
closed = 1;
nodes = (
"234 -295 LINE",
"1460 1759 LINE",
"1339 1759 LINE",
"116 -295 LINE"
);
},
{
closed = 1;
nodes = (
"1168 1692 LINE SMOOTH",
"1215 1702 OFFCURVE",
"1245 1746 OFFCURVE",
"1245 1803 CURVE SMOOTH",
"1245 1871 OFFCURVE",
"1202 1924 OFFCURVE",
"1145 1924 CURVE SMOOTH",
"1110 1924 OFFCURVE",
"1078 1903 OFFCURVE",
"1042 1870 CURVE SMOOTH",
"835 1674 LINE",
"868 1622 LINE"
);
}
);
width = 1455;
}
);
leftKerningGroup = O;
leftMetricsKey = O;
rightKerningGroup = O;
rightMetricsKey = O;
unicode = 01FE;
},
{
glyphname = OE;
layers = (
{
layerId = master01;
paths = (
{
closed = 1;
nodes = (
"601 -21 OFFCURVE",
"655 -14 OFFCURVE",
"710 0 CURVE",
"1596 0 LINE",
"1747 456 LINE",
"1698 456 LINE",
"1630 320 OFFCURVE",
"1554 196 OFFCURVE",
"1471 78 CURVE",
"934 78 LINE",
"1169 763 LINE",
"1460 763 LINE",
"1456 664 OFFCURVE",
"1447 592 OFFCURVE",
"1431 526 CURVE",
"1480 526 LINE",
"1667 1069 LINE",
"1620 1069 LINE",
"1581 994 OFFCURVE",
"1534 919 OFFCURVE",
"1480 843 CURVE",
"1200 843 LINE",
"1406 1445 LINE",
"1782 1445 LINE",
"1825 1352 OFFCURVE",
"1856 1241 OFFCURVE",
"1878 1088 CURVE",
"1924 1088 LINE",
"1910 1523 LINE",
"1185 1523 LINE",
"1142 1536 OFFCURVE",
"1095 1544 OFFCURVE",
"1039 1544 CURVE SMOOTH",
"576 1544 OFFCURVE",
"138 1021 OFFCURVE",
"138 471 CURVE SMOOTH",
"138 161 OFFCURVE",
"289 -21 OFFCURVE",
"550 -21 CURVE SMOOTH"
);
},
{
closed = 1;
nodes = (
"408 73 OFFCURVE",
"331 185 OFFCURVE",
"331 419 CURVE SMOOTH",
"331 925 OFFCURVE",
"666 1457 OFFCURVE",
"985 1457 CURVE SMOOTH",
"1080 1457 OFFCURVE",
"1145 1419 OFFCURVE",
"1187 1341 CURVE",
"738 128 LINE",
"690 91 OFFCURVE",
"636 73 OFFCURVE",
"572 73 CURVE SMOOTH"
);
}
);
width = 1866;
},
{
background = {
paths = (
{
closed = 1;
nodes = (
"1963 0 LINE",
"2148 463 LINE",
"2078 463 LINE",
"2002 344 OFFCURVE",
"1913 233 OFFCURVE",
"1789 104 CURVE",
"1222 104 LINE",
"1491 753 LINE",
"1731 753 LINE",
"1738 677 OFFCURVE",
"1734 577 OFFCURVE",
"1726 510 CURVE",
"1809 510 LINE",
"2031 1043 LINE",
"1948 1043 LINE",
"1909 994 OFFCURVE",
"1840 920 OFFCURVE",
"1764 857 CURVE",
"1535 857 LINE",
"1770 1420 LINE",
"2130 1420 LINE",
"2194 1327 OFFCURVE",
"2243 1221 OFFCURVE",
"2286 1088 CURVE",
"2355 1088 LINE",
"2338 1523 LINE",
"1294 1523 LINE",
"1265 1455 LINE",
"1431 1416 LINE",
"886 106 LINE",
"707 68 LINE",
"678 0 LINE"
);
}
);
};
layerId = "D3934E74-9B53-4E98-B19F-CD3DFEE08352";
paths = (
{
closed = 1;
nodes = (
"649 -21 OFFCURVE",
"706 -14 OFFCURVE",
"761 0 CURVE",
"1649 0 LINE",
"1804 463 LINE",
"1746 463 LINE",
"1680 341 OFFCURVE",
"1604 229 OFFCURVE",
"1503 104 CURVE",
"1046 104 LINE",
"1273 754 LINE",
"1453 754 LINE",
"1460 677 OFFCURVE",
"1457 575 OFFCURVE",
"1450 510 CURVE",
"1520 510 LINE",
"1706 1043 LINE",
"1636 1043 LINE",
"1604 994 OFFCURVE",
"1546 920 OFFCURVE",
"1480 857 CURVE",
"1309 857 LINE",
"1506 1420 LINE",
"1789 1420 LINE",
"1840 1330 OFFCURVE",
"1883 1225 OFFCURVE",
"1920 1088 CURVE",
"1978 1088 LINE",
"1964 1523 LINE",
"1184 1523 LINE",
"1137 1537 OFFCURVE",
"1086 1544 OFFCURVE",
"1030 1544 CURVE SMOOTH",
"543 1544 OFFCURVE",
"135 1023 OFFCURVE",
"135 524 CURVE SMOOTH",
"135 183 OFFCURVE",
"295 -21 OFFCURVE",
"591 -21 CURVE SMOOTH"
);
},
{
closed = 1;
nodes = (
"489 88 OFFCURVE",
"419 200 OFFCURVE",
"419 421 CURVE SMOOTH",
"419 918 OFFCURVE",
"708 1436 OFFCURVE",
"1003 1436 CURVE SMOOTH",
"1089 1436 OFFCURVE",
"1149 1390 OFFCURVE",
"1180 1298 CURVE",
"795 195 LINE",
"748 127 OFFCURVE",
"682 88 OFFCURVE",
"611 88 CURVE SMOOTH"
);
}
);
width = 1909;
}
);
leftKerningGroup = O;
leftMetricsKey = O;
rightKerningGroup = E;
rightMetricsKey = E;
unicode = 0152;
},
{
glyphname = P;
layers = (
{
layerId = master01;
paths = (
{
closed = 1;
nodes = (
"421 0 LINE",
"436 45 LINE",
"239 83 LINE",
"441 675 LINE",
"605 675 LINE SMOOTH",
"960 675 OFFCURVE",
"1198 875 OFFCURVE",
"1198 1176 CURVE SMOOTH",
"1198 1396 OFFCURVE",
"1058 1523 OFFCURVE",
"816 1523 CURVE SMOOTH",
"417 1523 LINE",
"402 1479 LINE",
"531 1441 LINE",
"56 83 LINE",
"-91 45 LINE",
"-106 0 LINE"
);
},
{
closed = 1;
nodes = (
"714 1443 LINE",
"816 1443 LINE SMOOTH",
"952 1443 OFFCURVE",
"1026 1358 OFFCURVE",
"1026 1203 CURVE SMOOTH",
"1026 960 OFFCURVE",
"848 762 OFFCURVE",
"627 762 CURVE SMOOTH",
"473 762 LINE"
);
}
);
width = 1088;
},
{
background = {
paths = (
{
closed = 1;
nodes = (
"1428 -21 OFFCURVE",
"1911 507 OFFCURVE",
"1911 1025 CURVE SMOOTH",
"1911 1346 OFFCURVE",
"1712 1544 OFFCURVE",
"1361 1544 CURVE SMOOTH",
"782 1544 OFFCURVE",
"295 1023 OFFCURVE",
"295 501 CURVE SMOOTH",
"295 183 OFFCURVE",
"486 -21 OFFCURVE",
"838 -21 CURVE SMOOTH"
);
},
{
closed = 1;
nodes = (
"717 88 OFFCURVE",
"637 200 OFFCURVE",
"637 421 CURVE SMOOTH",
"637 918 OFFCURVE",
"978 1436 OFFCURVE",
"1329 1436 CURVE SMOOTH",
"1488 1436 OFFCURVE",
"1569 1325 OFFCURVE",
"1569 1105 CURVE SMOOTH",
"1569 603 OFFCURVE",
"1231 88 OFFCURVE",
"880 88 CURVE SMOOTH"
);
}
);
};
layerId = "D3934E74-9B53-4E98-B19F-CD3DFEE08352";
paths = (
{
closed = 1;
nodes = (
"493 0 LINE",
"517 68 LINE",
"339 106 LINE",
"537 676 LINE",
"689 676 LINE SMOOTH",
"1068 676 OFFCURVE",
"1273 894 OFFCURVE",
"1273 1173 CURVE SMOOTH",
"1273 1393 OFFCURVE",
"1157 1523 OFFCURVE",
"859 1523 CURVE SMOOTH",
"407 1523 LINE",
"383 1455 LINE",
"522 1416 LINE",
"66 106 LINE",
"-84 68 LINE",
"-108 0 LINE"
);
},
{
closed = 1;
nodes = (
"796 1420 LINE",
"825 1420 LINE SMOOTH",
"940 1420 OFFCURVE",
"1002 1335 OFFCURVE",
"1002 1183 CURVE SMOOTH",
"1002 965 OFFCURVE",
"863 780 OFFCURVE",
"673 780 CURVE SMOOTH",
"573 780 LINE"
);
}
);
width = 1155;
}
);
leftKerningGroup = I;
leftMetricsKey = I;
rightKerningGroup = P;
unicode = 0050;
},
{
glyphname = Thorn;
layers = (
{
layerId = master01;
paths = (
{
closed = 1;
nodes = (
"481 0 LINE",
"498 45 LINE",
"301 83 LINE",
"389 330 LINE",
"553 330 LINE SMOOTH",
"907 330 OFFCURVE",
"1145 531 OFFCURVE",
"1145 831 CURVE SMOOTH",
"1145 1051 OFFCURVE",
"1004 1179 OFFCURVE",
"764 1179 CURVE SMOOTH",
"690 1179 LINE",
"783 1441 LINE",
"928 1479 LINE",
"944 1523 LINE",
"419 1523 LINE",
"402 1479 LINE",
"601 1441 LINE",
"118 83 LINE",
"-29 45 LINE",
"-43 0 LINE"
);
},
{
closed = 1;
nodes = (
"662 1099 LINE",
"764 1099 LINE SMOOTH",
"900 1099 OFFCURVE",
"972 1013 OFFCURVE",
"972 859 CURVE SMOOTH",
"972 615 OFFCURVE",
"795 417 OFFCURVE",
"575 417 CURVE SMOOTH",
"421 417 LINE"
);
}
);
width = 1166;
},
{
background = {
paths = (
{
closed = 1;
nodes = (
"634 0 LINE",
"663 68 LINE",
"450 106 LINE",
"539 319 LINE",
"782 319 LINE SMOOTH",
"1215 319 OFFCURVE",
"1506 524 OFFCURVE",
"1506 828 CURVE SMOOTH",
"1506 1066 OFFCURVE",
"1329 1189 OFFCURVE",
"985 1189 CURVE SMOOTH",
"899 1189 LINE",
"994 1416 LINE",
"1172 1455 LINE",
"1201 1523 LINE",
"473 1523 LINE",
"444 1455 LINE",
"658 1416 LINE",
"114 106 LINE",
"-64 68 LINE",
"-93 0 LINE"
);
},
{
closed = 1;
nodes = (
"856 1082 LINE",
"944 1082 LINE SMOOTH",
"1084 1082 OFFCURVE",
"1155 998 OFFCURVE",
"1155 841 CURVE SMOOTH",
"1155 605 OFFCURVE",
"986 427 OFFCURVE",
"763 427 CURVE SMOOTH",
"584 427 LINE"
);
}
);
};
layerId = "D3934E74-9B53-4E98-B19F-CD3DFEE08352";
paths = (
{
closed = 1;
nodes = (
"533 0 LINE",
"557 68 LINE",
"378 106 LINE",
"453 319 LINE",
"657 319 LINE SMOOTH",
"1021 319 OFFCURVE",
"1241 524 OFFCURVE",
"1241 828 CURVE SMOOTH",
"1241 1066 OFFCURVE",
"1116 1189 OFFCURVE",
"827 1189 CURVE SMOOTH",
"755 1189 LINE",
"835 1416 LINE",
"984 1455 LINE",
"1009 1523 LINE",
"407 1523 LINE",
"383 1455 LINE",
"562 1416 LINE",
"106 106 LINE",
"-45 68 LINE",
"-69 0 LINE"
);
},
{
closed = 1;
nodes = (
"720 1086 LINE",
"793 1086 LINE SMOOTH",
"911 1086 OFFCURVE",
"970 998 OFFCURVE",
"970 841 CURVE SMOOTH",
"970 605 OFFCURVE",
"828 423 OFFCURVE",
"641 423 CURVE SMOOTH",
"489 423 LINE"
);
}
);
width = 1256;
}
);
leftKerningGroup = Thorn;
leftMetricsKey = I;
rightKerningGroup = Thorn;
unicode = 00DE;
},
{
glyphname = Q;
layers = (
{
layerId = master01;
paths = (
{
closed = 1;
nodes = (
"773 -450 OFFCURVE",
"895 -216 OFFCURVE",
"915 -124 CURVE",
"858 -124 LINE",
"813 -198 OFFCURVE",
"701 -252 OFFCURVE",
"554 -252 CURVE SMOOTH",
"455 -252 OFFCURVE",
"391 -227 OFFCURVE",
"328 -172 CURVE",
"720 16 LINE SMOOTH",
"1050 174 OFFCURVE",
"1347 592 OFFCURVE",
"1347 1049 CURVE SMOOTH",
"1347 1365 OFFCURVE",
"1207 1544 OFFCURVE",
"967 1544 CURVE SMOOTH",
"552 1544 OFFCURVE",
"140 1005 OFFCURVE",
"140 469 CURVE SMOOTH",
"140 180 OFFCURVE",
"259 13 OFFCURVE",
"462 -16 CURVE",
"462 -24 LINE",
"145 -177 LINE SMOOTH",
"71 -213 OFFCURVE",
"34 -256 OFFCURVE",
"34 -314 CURVE SMOOTH",
"34 -357 OFFCURVE",
"51 -398 OFFCURVE",
"97 -398 CURVE SMOOTH",
"134 -398 OFFCURVE",
"162 -366 OFFCURVE",
"162 -328 CURVE SMOOTH",
"162 -311 OFFCURVE",
"155 -292 OFFCURVE",
"155 -276 CURVE SMOOTH",
"155 -260 OFFCURVE",
"162 -250 OFFCURVE",
"193 -250 CURVE SMOOTH",
"331 -250 OFFCURVE",
"350 -450 OFFCURVE",
"554 -450 CURVE SMOOTH"
);
},
{
closed = 1;
nodes = (
"401 73 OFFCURVE",
"333 185 OFFCURVE",
"333 419 CURVE SMOOTH",
"333 925 OFFCURVE",
"650 1457 OFFCURVE",
"957 1457 CURVE SMOOTH",
"1095 1457 OFFCURVE",
"1163 1346 OFFCURVE",
"1163 1112 CURVE SMOOTH",
"1163 603 OFFCURVE",
"849 73 OFFCURVE",
"543 73 CURVE SMOOTH"
);
}
);
width = 1320;
},
{
background = {
paths = (
{
closed = 0;
nodes = (
"837 -450 LINE SMOOTH",
"1097 -450 OFFCURVE",
"1242 -216 OFFCURVE",
"1267 -124 CURVE",
"1199 -124 LINE",
"1146 -198 OFFCURVE",
"1011 -252 OFFCURVE",
"837 -252 CURVE SMOOTH"
);
}
);
};
layerId = "D3934E74-9B53-4E98-B19F-CD3DFEE08352";
paths = (
{
closed = 1;
nodes = (
"848 -465 OFFCURVE",
"1001 -329 OFFCURVE",
"1074 -124 CURVE",
"1006 -124 LINE",
"953 -196 OFFCURVE",
"854 -241 OFFCURVE",
"748 -241 CURVE SMOOTH",
"640 -241 OFFCURVE",
"526 -202 OFFCURVE",
"467 -145 CURVE",
"840 24 LINE SMOOTH",
"1226 200 OFFCURVE",
"1494 608 OFFCURVE",
"1494 1025 CURVE SMOOTH",
"1494 1352 OFFCURVE",
"1322 1544 OFFCURVE",
"1032 1544 CURVE SMOOTH",
"570 1544 OFFCURVE",
"136 1050 OFFCURVE",
"136 524 CURVE SMOOTH",
"136 222 OFFCURVE",
"260 37 OFFCURVE",
"498 -17 CURVE",
"498 -25 LINE",
"251 -139 LINE SMOOTH",
"97 -211 OFFCURVE",
"59 -248 OFFCURVE",
"59 -326 CURVE SMOOTH",
"59 -402 OFFCURVE",
"96 -443 OFFCURVE",
"154 -443 CURVE SMOOTH",
"213 -443 OFFCURVE",
"258 -400 OFFCURVE",
"258 -345 CURVE SMOOTH",
"258 -322 OFFCURVE",
"249 -297 OFFCURVE",
"249 -274 CURVE SMOOTH",
"249 -251 OFFCURVE",
"260 -237 OFFCURVE",
"283 -237 CURVE SMOOTH",
"385 -237 OFFCURVE",
"489 -465 OFFCURVE",
"694 -465 CURVE SMOOTH"
);
},
{
closed = 1;
nodes = (
"491 88 OFFCURVE",
"421 200 OFFCURVE",
"421 421 CURVE SMOOTH",
"421 926 OFFCURVE",
"715 1436 OFFCURVE",
"1005 1436 CURVE SMOOTH",
"1139 1436 OFFCURVE",
"1207 1324 OFFCURVE",
"1207 1105 CURVE SMOOTH",
"1207 595 OFFCURVE",
"918 88 OFFCURVE",
"627 88 CURVE SMOOTH"
);
}
);
width = 1457;
}
);
leftKerningGroup = O;
leftMetricsKey = O;
rightKerningGroup = O;
rightMetricsKey = O;
unicode = 0051;
},
{
glyphname = R;
layers = (
{
anchors = (
{
name = bottom;
position = "{554, -21}";
},
{
name = topcap;
position = "{854, 1643}";
}
);
layerId = master01;
paths = (
{
closed = 1;
nodes = (
"421 0 LINE",
"436 45 LINE",
"239 83 LINE",
"449 700 LINE",
"579 700 LINE",
"773 0 LINE",
"1097 0 LINE",
"1109 45 LINE",
"930 83 LINE",
"739 710 LINE",
"1021 758 OFFCURVE",
"1193 942 OFFCURVE",
"1193 1201 CURVE SMOOTH",
"1193 1409 OFFCURVE",
"1073 1523 OFFCURVE",
"816 1523 CURVE SMOOTH",
"417 1523 LINE",
"402 1479 LINE",
"531 1441 LINE",
"56 83 LINE",
"-91 45 LINE",
"-106 0 LINE"
);
},
{
closed = 1;
nodes = (
"714 1443 LINE",
"816 1443 LINE SMOOTH",
"952 1443 OFFCURVE",
"1026 1358 OFFCURVE",
"1026 1203 CURVE SMOOTH",
"1026 978 OFFCURVE",
"848 788 OFFCURVE",
"636 788 CURVE SMOOTH",
"481 788 LINE"
);
}
);
width = 1193;
},
{
anchors = (
{
name = bottom;
position = "{622, -21}";
},
{
name = topcap;
position = "{918, 1643}";
}
);
background = {
paths = (
{
closed = 1;
nodes = (
"576 0 LINE",
"605 68 LINE",
"392 106 LINE",
"623 664 LINE",
"739 664 LINE",
"930 0 LINE",
"1398 0 LINE",
"1427 68 LINE",
"1214 106 LINE",
"1040 696 LINE",
"1341 762 OFFCURVE",
"1510 937 OFFCURVE",
"1510 1170 CURVE SMOOTH",
"1510 1409 OFFCURVE",
"1336 1523 OFFCURVE",
"1000 1523 CURVE SMOOTH",
"473 1523 LINE",
"444 1455 LINE",
"610 1416 LINE",
"67 106 LINE",
"-112 68 LINE",
"-140 0 LINE"
);
},
{
closed = 1;
nodes = (
"936 1420 LINE",
"971 1420 LINE SMOOTH",
"1109 1420 OFFCURVE",
"1181 1332 OFFCURVE",
"1181 1183 CURVE SMOOTH",
"1181 953 OFFCURVE",
"1011 769 OFFCURVE",
"785 769 CURVE SMOOTH",
"667 769 LINE"
);
}
);
};
layerId = "D3934E74-9B53-4E98-B19F-CD3DFEE08352";
paths = (
{
closed = 1;
nodes = (
"484 0 LINE",
"508 68 LINE",
"329 106 LINE",
"523 664 LINE",
"621 664 LINE",
"781 0 LINE",
"1174 0 LINE",
"1199 68 LINE",
"1020 106 LINE",
"874 696 LINE",
"1126 762 OFFCURVE",
"1268 937 OFFCURVE",
"1268 1170 CURVE SMOOTH",
"1268 1409 OFFCURVE",
"1122 1523 OFFCURVE",
"840 1523 CURVE SMOOTH",
"407 1523 LINE",
"383 1455 LINE",
"522 1416 LINE",
"66 106 LINE",
"-84 68 LINE",
"-108 0 LINE"
);
},
{
closed = 1;
nodes = (
"786 1420 LINE",
"816 1420 LINE SMOOTH",
"932 1420 OFFCURVE",
"992 1332 OFFCURVE",
"992 1183 CURVE SMOOTH",
"992 953 OFFCURVE",
"849 769 OFFCURVE",
"659 769 CURVE SMOOTH",
"560 769 LINE"
);
}
);
width = 1262;
}
);
leftKerningGroup = I;
leftMetricsKey = I;
rightKerningGroup = R;
unicode = 0052;
},
{
glyphname = S;
layers = (
{
anchors = (
{
name = bottom;
position = "{300, 0}";
},
{
name = topcap;
position = "{790, 1643}";
}
);
guideLines = (
{
angle = 68;
position = "{258, 835}";
}
);
layerId = master01;
paths = (
{
closed = 1;
nodes = (
"605 -21 OFFCURVE",
"802 174 OFFCURVE",
"802 433 CURVE SMOOTH",
"802 565 OFFCURVE",
"760 659 OFFCURVE",
"611 867 CURVE SMOOTH",
"512 1003 OFFCURVE",
"484 1078 OFFCURVE",
"484 1169 CURVE SMOOTH",
"484 1344 OFFCURVE",
"570 1464 OFFCURVE",
"728 1464 CURVE SMOOTH",
"860 1464 OFFCURVE",
"932 1391 OFFCURVE",
"932 1261 CURVE SMOOTH",
"932 1214 OFFCURVE",
"921 1138 OFFCURVE",
"911 1088 CURVE",
"960 1088 LINE",
"1103 1523 LINE",
"1049 1523 LINE",
"973 1421 LINE",
"908 1506 OFFCURVE",
"830 1544 OFFCURVE",
"722 1544 CURVE SMOOTH",
"480 1544 OFFCURVE",
"308 1356 OFFCURVE",
"308 1093 CURVE SMOOTH",
"308 910 OFFCURVE",
"391 803 OFFCURVE",
"472 699 CURVE SMOOTH",
"549 601 OFFCURVE",
"622 506 OFFCURVE",
"622 351 CURVE SMOOTH",
"622 169 OFFCURVE",
"519 60 OFFCURVE",
"350 60 CURVE SMOOTH",
"197 60 OFFCURVE",
"122 149 OFFCURVE",
"122 326 CURVE SMOOTH",
"122 382 OFFCURVE",
"129 446 OFFCURVE",
"143 516 CURVE",
"95 516 LINE",
"-81 0 LINE",
"-30 0 LINE",
"55 143 LINE",
"102 36 OFFCURVE",
"199 -21 OFFCURVE",
"339 -21 CURVE SMOOTH"
);
}
);
width = 940;
},
{
anchors = (
{
name = bottom;
position = "{389, 0}";
},
{
name = topcap;
position = "{860, 1643}";
}
);
background = {
paths = (
{
closed = 0;
nodes = (
"478 -21 LINE SMOOTH",
"322 -21 OFFCURVE",
"204 18 OFFCURVE",
"104 102 CURVE",
"-24 0 LINE",
"-93 0 LINE",
"102 485 LINE",
"183 485 LINE",
"142 228 OFFCURVE",
"226 88 OFFCURVE",
"424 88 CURVE SMOOTH"
);
}
);
};
layerId = "D3934E74-9B53-4E98-B19F-CD3DFEE08352";
paths = (
{
closed = 1;
nodes = (
"708 -18 OFFCURVE",
"945 188 OFFCURVE",
"945 463 CURVE SMOOTH",
"945 599 OFFCURVE",
"887 710 OFFCURVE",
"736 864 CURVE SMOOTH",
"614 988 OFFCURVE",
"564 1063 OFFCURVE",
"564 1177 CURVE SMOOTH",
"564 1331 OFFCURVE",
"655 1436 OFFCURVE",
"792 1436 CURVE SMOOTH",
"927 1436 OFFCURVE",
"998 1338 OFFCURVE",
"998 1156 CURVE SMOOTH",
"998 1120 OFFCURVE",
"995 1081 OFFCURVE",
"990 1039 CURVE",
"1058 1039 LINE",
"1221 1523 LINE",
"1163 1523 LINE",
"1056 1421 LINE",
"972 1505 OFFCURVE",
"873 1544 OFFCURVE",
"746 1544 CURVE SMOOTH",
"477 1544 OFFCURVE",
"305 1373 OFFCURVE",
"305 1114 CURVE SMOOTH",
"305 964 OFFCURVE",
"359 851 OFFCURVE",
"501 701 CURVE SMOOTH",
"633 563 OFFCURVE",
"673 489 OFFCURVE",
"673 387 CURVE SMOOTH",
"673 208 OFFCURVE",
"550 91 OFFCURVE",
"372 91 CURVE SMOOTH",
"218 91 OFFCURVE",
"148 173 OFFCURVE",
"148 351 CURVE SMOOTH",
"148 396 OFFCURVE",
"153 448 OFFCURVE",
"161 507 CURVE",
"94 507 LINE",
"-77 0 LINE",
"-19 0 LINE",
"88 102 LINE",
"171 17 OFFCURVE",
"263 -18 OFFCURVE",
"394 -18 CURVE SMOOTH"
);
}
);
width = 1061;
}
);
leftKerningGroup = S;
rightKerningGroup = S;
unicode = 0053;
},
{
glyphname = uni1E9E;
layers = (
{
layerId = master01;
paths = (
{
closed = 1;
nodes = (
"751 720 LINE",
"773 725 OFFCURVE",
"796 729 OFFCURVE",
"822 729 CURVE SMOOTH",
"957 729 OFFCURVE",
"1033 638 OFFCURVE",
"1033 479 CURVE SMOOTH",
"1033 257 OFFCURVE",
"893 68 OFFCURVE",
"740 68 CURVE SMOOTH",
"585 68 OFFCURVE",
"632 260 OFFCURVE",
"519 260 CURVE SMOOTH",
"465 260 OFFCURVE",
"433 218 OFFCURVE",
"433 157 CURVE SMOOTH",
"433 50 OFFCURVE",
"532 -21 OFFCURVE",
"678 -21 CURVE SMOOTH",
"976 -21 OFFCURVE",
"1226 260 OFFCURVE",
"1226 554 CURVE SMOOTH",
"1226 776 OFFCURVE",
"1078 889 OFFCURVE",
"904 912 CURVE",
"882 876 LINE",
"1347 1419 LINE",
"1381 1523 LINE",
"989 1523 LINE SMOOTH",
"630 1523 OFFCURVE",
"507 1370 OFFCURVE",
"350 915 CURVE SMOOTH",
"64 83 LINE",
"-97 45 LINE",
"-115 0 LINE",
"217 0 LINE",
"537 909 LINE SMOOTH",
"685 1330 OFFCURVE",
"811 1437 OFFCURVE",
"996 1437 CURVE SMOOTH",
"1294 1437 LINE",
"1274 1461 LINE",
"761 853 LINE",
"787 902 LINE",
"729 737 LINE"
);
}
);
width = 1326;
},
{
background = {
paths = (
{
closed = 1;
nodes = (
"2092 1523 LINE",
"1412 1523 LINE",
"1383 1455 LINE",
"1549 1416 LINE",
"1315 853 LINE",
"724 853 LINE",
"960 1416 LINE",
"1139 1455 LINE",
"1168 1523 LINE",
"485 1523 LINE",
"456 1455 LINE",
"622 1416 LINE",
"78 106 LINE",
"-100 68 LINE",
"-129 0 LINE",
"554 0 LINE",
"583 68 LINE",
"416 106 LINE",
"682 750 LINE",
"1272 750 LINE",
"1005 106 LINE",
"827 68 LINE",
"798 0 LINE",
"1480 0 LINE",
"1508 68 LINE",
"1341 106 LINE",
"1885 1416 LINE",
"2063 1455 LINE"
);
}
);
};
layerId = "D3934E74-9B53-4E98-B19F-CD3DFEE08352";
paths = (
{
closed = 1;
nodes = (
"819 696 LINE",
"838 699 OFFCURVE",
"857 701 OFFCURVE",
"876 701 CURVE SMOOTH",
"996 701 OFFCURVE",
"1071 615 OFFCURVE",
"1071 462 CURVE SMOOTH",
"1071 266 OFFCURVE",
"951 89 OFFCURVE",
"797 89 CURVE SMOOTH",
"638 89 OFFCURVE",
"710 288 OFFCURVE",
"580 288 CURVE SMOOTH",
"518 288 OFFCURVE",
"477 243 OFFCURVE",
"477 176 CURVE SMOOTH",
"477 54 OFFCURVE",
"615 -21 OFFCURVE",
"766 -21 CURVE SMOOTH",
"1066 -21 OFFCURVE",
"1331 272 OFFCURVE",
"1331 567 CURVE SMOOTH",
"1331 777 OFFCURVE",
"1198 915 OFFCURVE",
"979 921 CURVE",
"958 869 LINE",
"1410 1419 LINE",
"1444 1523 LINE",
"1037 1523 LINE SMOOTH",
"678 1523 OFFCURVE",
"478 1367 OFFCURVE",
"323 912 CURVE SMOOTH",
"50 107 LINE",
"-101 69 LINE",
"-125 0 LINE",
"295 0 LINE",
"604 909 LINE SMOOTH",
"747 1331 OFFCURVE",
"899 1414 OFFCURVE",
"1084 1414 CURVE SMOOTH",
"1308 1414 LINE",
"1307 1461 LINE",
"811 857 LINE",
"868 980 LINE",
"785 730 LINE"
);
}
);
width = 1420;
}
);
leftKerningGroup = uni1E9E;
leftMetricsKey = H;
rightKerningGroup = uni1E9E;
unicode = 1E9E;
},
{
glyphname = Schwa;
layers = (
{
background = {
paths = (
{
closed = 1;
nodes = (
"911 -21 OFFCURVE",
"1400 512 OFFCURVE",
"1400 1051 CURVE SMOOTH",
"1400 1365 OFFCURVE",
"1233 1544 OFFCURVE",
"944 1544 CURVE SMOOTH",
"454 1544 OFFCURVE",
"-37 1005 OFFCURVE",
"-37 466 CURVE SMOOTH",
"-37 159 OFFCURVE",
"129 -21 OFFCURVE",
"416 -21 CURVE SMOOTH"
);
},
{
closed = 1;
nodes = (
"273 73 OFFCURVE",
"192 184 OFFCURVE",
"192 416 CURVE SMOOTH",
"192 925 OFFCURVE",
"570 1457 OFFCURVE",
"933 1457 CURVE SMOOTH",
"1099 1457 OFFCURVE",
"1180 1346 OFFCURVE",
"1180 1118 CURVE SMOOTH",
"1180 603 OFFCURVE",
"808 73 OFFCURVE",
"446 73 CURVE SMOOTH"
);
}
);
};
layerId = master01;
paths = (
{
closed = 1;
nodes = (
"645 -21 OFFCURVE",
"1174 636 OFFCURVE",
"1174 1160 CURVE SMOOTH",
"1174 1401 OFFCURVE",
"1071 1542 OFFCURVE",
"874 1542 CURVE SMOOTH",
"669 1542 OFFCURVE",
"465 1393 OFFCURVE",
"270 1102 CURVE",
"331 1059 LINE",
"486 1307 OFFCURVE",
"664 1445 OFFCURVE",
"837 1445 CURVE SMOOTH",
"959 1445 OFFCURVE",
"1010 1375 OFFCURVE",
"1010 1239 CURVE SMOOTH",
"1010 1123 OFFCURVE",
"969 936 OFFCURVE",
"906 750 CURVE",
"365 651 OFFCURVE",
"-5 416 OFFCURVE",
"-5 174 CURVE SMOOTH",
"-5 54 OFFCURVE",
"83 -21 OFFCURVE",
"225 -21 CURVE SMOOTH"
);
},
{
closed = 1;
nodes = (
"236 81 OFFCURVE",
"212 107 OFFCURVE",
"212 165 CURVE SMOOTH",
"212 357 OFFCURVE",
"513 584 OFFCURVE",
"853 656 CURVE",
"777 489 LINE SMOOTH",
"675 268 OFFCURVE",
"461 81 OFFCURVE",
"296 81 CURVE SMOOTH"
);
}
);
width = 1099;
},
{
layerId = "D3934E74-9B53-4E98-B19F-CD3DFEE08352";
paths = (
{
closed = 1;
nodes = (
"781 -21 OFFCURVE",
"1251 633 OFFCURVE",
"1251 1141 CURVE SMOOTH",
"1251 1397 OFFCURVE",
"1122 1546 OFFCURVE",
"894 1546 CURVE SMOOTH",
"659 1546 OFFCURVE",
"459 1393 OFFCURVE",
"269 1108 CURVE",
"347 1050 LINE",
"505 1278 OFFCURVE",
"690 1438 OFFCURVE",
"843 1438 CURVE SMOOTH",
"941 1438 OFFCURVE",
"988 1370 OFFCURVE",
"988 1231 CURVE SMOOTH",
"988 1087 OFFCURVE",
"966 942 OFFCURVE",
"928 806 CURVE",
"388 706 OFFCURVE",
"-39 474 OFFCURVE",
"-39 204 CURVE SMOOTH",
"-39 75 OFFCURVE",
"59 -21 OFFCURVE",
"261 -21 CURVE SMOOTH"
);
},
{
closed = 1;
nodes = (
"279 88 OFFCURVE",
"230 138 OFFCURVE",
"230 215 CURVE SMOOTH",
"230 396 OFFCURVE",
"496 587 OFFCURVE",
"894 693 CURVE",
"893 690 LINE",
"773 348 OFFCURVE",
"556 88 OFFCURVE",
"364 88 CURVE SMOOTH"
);
}
);
width = 1171;
}
);
leftKerningGroup = Schwa;
rightKerningGroup = O;
rightMetricsKey = O;
unicode = 018F;
},
{
glyphname = T;
layers = (
{
anchors = (
{
name = bottom;
position = "{417, 0}";
},
{
name = topcap;
position = "{979, 1643}";
}
);
layerId = master01;
paths = (
{
closed = 1;
nodes = (
"675 0 LINE",
"691 45 LINE",
"522 83 LINE",
"995 1445 LINE",
"1292 1445 LINE",
"1316 1360 OFFCURVE",
"1323 1267 OFFCURVE",
"1323 1177 CURVE SMOOTH",
"1323 1148 OFFCURVE",
"1323 1117 OFFCURVE",
"1321 1088 CURVE",
"1361 1088 LINE",
"1451 1523 LINE",
"411 1523 LINE",
"197 1088 LINE",
"238 1088 LINE",
"308 1201 OFFCURVE",
"409 1331 OFFCURVE",
"518 1445 CURVE",
"815 1445 LINE",
"341 83 LINE",
"162 45 LINE",
"146 0 LINE"
);
}
);
width = 1173;
},
{
anchors = (
{
name = bottom;
position = "{513, 0}";
},
{
name = topcap;
position = "{1058, 1643}";
}
);
layerId = "D3934E74-9B53-4E98-B19F-CD3DFEE08352";
paths = (
{
closed = 1;
nodes = (
"776 0 LINE",
"800 68 LINE",
"641 106 LINE",
"1099 1415 LINE",
"1355 1415 LINE",
"1383 1324 OFFCURVE",
"1399 1218 OFFCURVE",
"1405 1119 CURVE SMOOTH",
"1406 1104 OFFCURVE",
"1407 1086 OFFCURVE",
"1407 1069 CURVE",
"1466 1069 LINE",
"1559 1523 LINE",
"423 1523 LINE",
"200 1069 LINE",
"258 1069 LINE",
"339 1177 OFFCURVE",
"453 1307 OFFCURVE",
"562 1415 CURVE",
"816 1415 LINE",
"359 106 LINE",
"190 68 LINE",
"165 0 LINE"
);
}
);
width = 1304;
}
);
leftKerningGroup = T;
rightKerningGroup = T;
unicode = 0054;
},
{
glyphname = Tbar;
layers = (
{
components = (
{
name = T;
}
);
layerId = master01;
paths = (
{
closed = 1;
nodes = (
"1137 831 LINE",
"1168 919 LINE",
"292 919 LINE",
"262 831 LINE"
);
}
);
width = 1173;
},
{
background = {
paths = (
{
closed = 1;
nodes = (
"1383 831 LINE",
"1421 919 LINE",
"378 919 LINE",
"342 831 LINE"
);
}
);
};
components = (
{
name = T;
}
);
layerId = "D3934E74-9B53-4E98-B19F-CD3DFEE08352";
paths = (
{
closed = 1;
nodes = (
"1202 808 LINE",
"1250 942 LINE",
"334 942 LINE",
"289 808 LINE"
);
}
);
width = 1304;
}
);
leftKerningGroup = T;
leftMetricsKey = T;
rightKerningGroup = T;
rightMetricsKey = T;
unicode = 0166;
},
{
glyphname = U;
layers = (
{
anchors = (
{
name = bottom;
position = "{528, 0}";
},
{
name = topcap;
position = "{1098, 1643}";
}
);
layerId = master01;
paths = (
{
closed = 1;
nodes = (
"732 -21 OFFCURVE",
"911 73 OFFCURVE",
"1048 456 CURVE SMOOTH",
"1400 1441 LINE",
"1558 1479 LINE",
"1572 1523 LINE",
"1205 1523 LINE",
"1188 1479 LINE",
"1326 1441 LINE",
"990 512 LINE SMOOTH",
"868 177 OFFCURVE",
"758 73 OFFCURVE",
"579 73 CURVE SMOOTH",
"417 73 OFFCURVE",
"339 143 OFFCURVE",
"339 284 CURVE SMOOTH",
"339 355 OFFCURVE",
"359 449 OFFCURVE",
"388 532 CURVE SMOOTH",
"705 1439 LINE",
"864 1479 LINE",
"881 1523 LINE",
"407 1523 LINE",
"393 1479 LINE",
"529 1441 LINE",
"241 633 LINE SMOOTH",
"193 500 OFFCURVE",
"170 386 OFFCURVE",
"170 297 CURVE SMOOTH",
"170 91 OFFCURVE",
"294 -21 OFFCURVE",
"529 -21 CURVE SMOOTH"
);
}
);
width = 1283;
},
{
anchors = (
{
name = bottom;
position = "{564, 0}";
},
{
name = topcap;
position = "{1125, 1643}";
}
);
background = {
paths = (
{
closed = 1;
nodes = (
"914 -21 OFFCURVE",
"1128 73 OFFCURVE",
"1292 456 CURVE SMOOTH",
"1711 1441 LINE",
"1899 1479 LINE",
"1916 1523 LINE",
"1479 1523 LINE",
"1458 1479 LINE",
"1622 1441 LINE",
"1222 512 LINE SMOOTH",
"1077 177 OFFCURVE",
"945 73 OFFCURVE",
"732 73 CURVE SMOOTH",
"541 73 OFFCURVE",
"448 143 OFFCURVE",
"448 284 CURVE SMOOTH",
"448 355 OFFCURVE",
"471 449 OFFCURVE",
"506 532 CURVE SMOOTH",
"883 1439 LINE",
"1073 1479 LINE",
"1093 1523 LINE",
"529 1523 LINE",
"511 1479 LINE",
"674 1441 LINE",
"330 633 LINE SMOOTH",
"274 500 OFFCURVE",
"245 386 OFFCURVE",
"245 297 CURVE SMOOTH",
"245 91 OFFCURVE",
"394 -21 OFFCURVE",
"674 -21 CURVE SMOOTH"
);
}
);
};
layerId = "D3934E74-9B53-4E98-B19F-CD3DFEE08352";
paths = (
{
closed = 1;
nodes = (
"829 -21 OFFCURVE",
"989 138 OFFCURVE",
"1136 560 CURVE SMOOTH",
"1435 1416 LINE",
"1584 1455 LINE",
"1609 1523 LINE",
"1214 1523 LINE",
"1189 1455 LINE",
"1329 1416 LINE",
"1049 614 LINE SMOOTH",
"918 236 OFFCURVE",
"787 88 OFFCURVE",
"590 88 CURVE SMOOTH",
"474 88 OFFCURVE",
"417 143 OFFCURVE",
"417 251 CURVE SMOOTH",
"417 305 OFFCURVE",
"430 371 OFFCURVE",
"459 450 CURVE SMOOTH",
"795 1416 LINE",
"945 1455 LINE",
"969 1523 LINE",
"397 1523 LINE",
"373 1455 LINE",
"512 1416 LINE",
"203 529 LINE SMOOTH",
"175 449 OFFCURVE",
"161 375 OFFCURVE",
"161 310 CURVE SMOOTH",
"161 104 OFFCURVE",
"294 -21 OFFCURVE",
"543 -21 CURVE SMOOTH"
);
}
);
width = 1317;
}
);
leftKerningGroup = U;
rightKerningGroup = U;
unicode = 0055;
},
{
glyphname = Uogonek;
layers = (
{
anchors = (
{
name = _bottom;
position = "{535, 0}";
}
);
background = {
paths = (
{
closed = 1;
nodes = (
"658 -507 OFFCURVE",
"750 -466 OFFCURVE",
"839 -392 CURVE {name = hr00;}",
"829 -357 LINE",
"768 -388 OFFCURVE",
"736 -398 OFFCURVE",
"700 -398 CURVE SMOOTH",
"651 -398 OFFCURVE",
"628 -380 OFFCURVE",
"628 -341 CURVE SMOOTH",
"628 -258 OFFCURVE",
"734 -127 OFFCURVE",
"894 0 CURVE",
"819 0 LINE",
"595 -117 OFFCURVE",
"436 -281 OFFCURVE",
"436 -404 CURVE SMOOTH",
"436 -471 OFFCURVE",
"484 -507 OFFCURVE",
"569 -507 CURVE SMOOTH"
);
}
);
};
components = (
{
alignment = -1;
name = U;
}
);
layerId = master01;
paths = (
{
closed = 1;
nodes = (
"541 -507 OFFCURVE",
"618 -466 OFFCURVE",
"694 -392 CURVE {name = hr00;}",
"685 -357 LINE",
"633 -388 OFFCURVE",
"606 -398 OFFCURVE",
"576 -398 CURVE SMOOTH",
"535 -398 OFFCURVE",
"516 -380 OFFCURVE",
"516 -341 CURVE SMOOTH",
"516 -258 OFFCURVE",
"638 -97 OFFCURVE",
"808 81 CURVE",
"676 10 LINE",
"479 -117 OFFCURVE",
"355 -281 OFFCURVE",
"355 -404 CURVE SMOOTH",
"355 -471 OFFCURVE",
"395 -507 OFFCURVE",
"466 -507 CURVE SMOOTH"
);
}
);
width = 1283;
},
{
anchors = (
{
name = _bottom;
position = "{535, 0}";
}
);
background = {
paths = (
{
closed = 1;
nodes = (
"734 -507 OFFCURVE",
"844 -459 OFFCURVE",
"952 -368 CURVE {name = hr00;}",
"942 -321 LINE",
"877 -354 OFFCURVE",
"839 -365 OFFCURVE",
"798 -365 CURVE SMOOTH",
"742 -365 OFFCURVE",
"712 -345 OFFCURVE",
"712 -307 CURVE SMOOTH",
"712 -243 OFFCURVE",
"804 -120 OFFCURVE",
"1070 61 CURVE",
"898 0 LINE",
"625 -129 OFFCURVE",
"470 -258 OFFCURVE",
"470 -383 CURVE SMOOTH",
"470 -464 OFFCURVE",
"525 -507 OFFCURVE",
"629 -507 CURVE SMOOTH"
);
}
);
};
components = (
{
name = U;
}
);
layerId = "D3934E74-9B53-4E98-B19F-CD3DFEE08352";
paths = (
{
closed = 1;
nodes = (
"614 -507 OFFCURVE",
"707 -459 OFFCURVE",
"798 -368 CURVE {name = hr00;}",
"790 -321 LINE",
"735 -354 OFFCURVE",
"703 -365 OFFCURVE",
"669 -365 CURVE SMOOTH",
"621 -365 OFFCURVE",
"596 -334 OFFCURVE",
"596 -296 CURVE SMOOTH",
"596 -208 OFFCURVE",
"678 -97 OFFCURVE",
"860 83 CURVE",
"755 32 LINE",
"485 -106 OFFCURVE",
"393 -246 OFFCURVE",
"393 -355 CURVE SMOOTH",
"393 -444 OFFCURVE",
"446 -507 OFFCURVE",
"536 -507 CURVE SMOOTH"
);
}
);
width = 1317;
}
);
leftKerningGroup = U;
leftMetricsKey = U;
rightKerningGroup = U;
rightMetricsKey = U;
unicode = 0172;
},
{
glyphname = V;
layers = (
{
background = {
paths = (
{
closed = 1;
nodes = (
"523 -21 LINE",
"1523 1249 LINE SMOOTH",
"1643 1401 OFFCURVE",
"1710 1441 OFFCURVE",
"1898 1468 CURVE",
"1925 1523 LINE",
"1348 1523 LINE",
"1322 1468 LINE",
"1497 1446 OFFCURVE",
"1526 1384 OFFCURVE",
"1423 1253 CURVE SMOOTH",
"645 264 LINE",
"638 264 LINE",
"782 1316 LINE SMOOTH",
"798 1431 OFFCURVE",
"851 1466 OFFCURVE",
"1014 1468 CURVE",
"1041 1523 LINE",
"443 1523 LINE",
"416 1468 LINE",
"557 1460 OFFCURVE",
"593 1432 OFFCURVE",
"582 1341 CURVE SMOOTH",
"406 -21 LINE"
);
}
);
};
layerId = master01;
paths = (
{
closed = 1;
nodes = (
"420 -21 LINE",
"1260 1249 LINE SMOOTH",
"1361 1401 OFFCURVE",
"1421 1451 OFFCURVE",
"1578 1479 CURVE",
"1598 1523 LINE",
"1113 1523 LINE",
"1095 1479 LINE",
"1242 1457 OFFCURVE",
"1263 1384 OFFCURVE",
"1176 1253 CURVE SMOOTH",
"522 264 LINE",
"517 264 LINE",
"638 1316 LINE SMOOTH",
"651 1431 OFFCURVE",
"700 1476 OFFCURVE",
"837 1479 CURVE",
"855 1523 LINE",
"353 1523 LINE",
"333 1479 LINE",
"453 1470 OFFCURVE",
"479 1432 OFFCURVE",
"469 1341 CURVE SMOOTH",
"322 -21 LINE"
);
}
);
width = 1249;
},
{
background = {
paths = (
{
closed = 1;
nodes = (
"561 -21 LINE",
"1569 1231 LINE SMOOTH",
"1701 1393 OFFCURVE",
"1748 1422 OFFCURVE",
"1939 1451 CURVE",
"1969 1523 LINE",
"1340 1523 LINE",
"1310 1451 LINE",
"1506 1423 OFFCURVE",
"1530 1377 OFFCURVE",
"1419 1234 CURVE SMOOTH",
"770 409 LINE",
"762 409 LINE",
"890 1318 LINE SMOOTH",
"904 1413 OFFCURVE",
"937 1437 OFFCURVE",
"1127 1451 CURVE",
"1157 1523 LINE",
"373 1523 LINE",
"343 1451 LINE",
"479 1441 OFFCURVE",
"516 1419 OFFCURVE",
"506 1330 CURVE SMOOTH",
"352 -21 LINE"
);
}
);
};
layerId = "D3934E74-9B53-4E98-B19F-CD3DFEE08352";
paths = (
{
closed = 1;
nodes = (
"425 -21 LINE",
"1275 1231 LINE SMOOTH",
"1385 1393 OFFCURVE",
"1425 1422 OFFCURVE",
"1588 1455 CURVE",
"1610 1523 LINE",
"1087 1523 LINE",
"1064 1455 LINE",
"1227 1423 OFFCURVE",
"1247 1376 OFFCURVE",
"1153 1234 CURVE SMOOTH",
"600 409 LINE",
"596 409 LINE",
"703 1318 LINE SMOOTH",
"715 1415 OFFCURVE",
"748 1437 OFFCURVE",
"905 1455 CURVE",
"927 1523 LINE",
"339 1523 LINE",
"317 1455 LINE",
"433 1439 OFFCURVE",
"460 1415 OFFCURVE",
"451 1330 CURVE SMOOTH",
"291 -21 LINE"
);
}
);
width = 1252;
}
);
leftKerningGroup = V;
rightKerningGroup = V;
unicode = 0056;
},
{
glyphname = W;
layers = (
{
anchors = (
{
name = topcap;
position = "{1226, 1643}";
}
);
background = {
paths = (
{
closed = 1;
nodes = (
"515 -21 LINE",
"1210 927 LINE",
"1177 937 LINE",
"1054 -21 LINE",
"1187 -21 LINE",
"2125 1249 LINE SMOOTH",
"2236 1406 OFFCURVE",
"2293 1450 OFFCURVE",
"2464 1479 CURVE",
"2486 1523 LINE",
"1943 1523 LINE",
"1923 1479 LINE",
"2096 1454 OFFCURVE",
"2118 1403 OFFCURVE",
"2019 1253 CURVE SMOOTH",
"1300 264 LINE",
"1442 1316 LINE SMOOTH",
"1458 1438 OFFCURVE",
"1517 1476 OFFCURVE",
"1679 1479 CURVE",
"1701 1523 LINE",
"1152 1523 LINE",
"1128 1479 LINE",
"1223 1470 OFFCURVE",
"1240 1435 OFFCURVE",
"1230 1341 CURVE SMOOTH",
"1191 1041 LINE",
"624 265 LINE",
"769 1316 LINE SMOOTH",
"785 1439 OFFCURVE",
"833 1476 OFFCURVE",
"967 1479 CURVE",
"988 1523 LINE",
"418 1523 LINE",
"397 1479 LINE",
"544 1470 OFFCURVE",
"569 1444 OFFCURVE",
"557 1341 CURVE SMOOTH",
"381 -21 LINE"
);
}
);
};
layerId = master01;
paths = (
{
closed = 1;
nodes = (
"423 -21 LINE",
"1005 927 LINE",
"979 937 LINE",
"875 -21 LINE",
"978 -21 LINE",
"1765 1249 LINE SMOOTH",
"1861 1404 OFFCURVE",
"1907 1450 OFFCURVE",
"2050 1479 CURVE",
"2069 1523 LINE",
"1613 1523 LINE",
"1596 1479 LINE",
"1741 1454 OFFCURVE",
"1773 1398 OFFCURVE",
"1683 1253 CURVE SMOOTH",
"1070 263 LINE",
"1192 1316 LINE SMOOTH",
"1206 1438 OFFCURVE",
"1254 1476 OFFCURVE",
"1391 1479 CURVE",
"1410 1523 LINE",
"958 1523 LINE",
"938 1479 LINE",
"1017 1470 OFFCURVE",
"1034 1435 OFFCURVE",
"1023 1341 CURVE SMOOTH",
"990 1041 LINE",
"515 265 LINE",
"637 1316 LINE SMOOTH",
"651 1439 OFFCURVE",
"690 1476 OFFCURVE",
"803 1479 CURVE",
"820 1523 LINE",
"351 1523 LINE",
"333 1479 LINE",
"457 1470 OFFCURVE",
"478 1444 OFFCURVE",
"468 1341 CURVE SMOOTH",
"320 -21 LINE"
);
}
);
width = 1720;
},
{
anchors = (
{
name = topcap;
position = "{1300, 1643}";
}
);
guideLines = (
{
position = "{1066, 1284}";
}
);
layerId = "D3934E74-9B53-4E98-B19F-CD3DFEE08352";
paths = (
{
closed = 1;
nodes = (
"423 -21 LINE",
"1100 972 LINE",
"1087 982 LINE",
"969 -21 LINE",
"1119 -21 LINE",
"1911 1231 LINE SMOOTH",
"2017 1397 OFFCURVE",
"2061 1422 OFFCURVE",
"2223 1455 CURVE",
"2247 1523 LINE",
"1746 1523 LINE",
"1723 1455 LINE",
"1866 1423 OFFCURVE",
"1883 1381 OFFCURVE",
"1793 1234 CURVE SMOOTH",
"1273 401 LINE",
"1381 1318 LINE SMOOTH",
"1393 1415 OFFCURVE",
"1425 1437 OFFCURVE",
"1563 1455 CURVE",
"1586 1523 LINE",
"1037 1523 LINE",
"1014 1455 LINE",
"1111 1439 OFFCURVE",
"1138 1415 OFFCURVE",
"1129 1330 CURVE SMOOTH",
"1109 1157 LINE",
"595 402 LINE",
"703 1318 LINE SMOOTH",
"715 1415 OFFCURVE",
"748 1437 OFFCURVE",
"885 1455 CURVE",
"908 1523 LINE",
"339 1523 LINE",
"317 1455 LINE",
"433 1439 OFFCURVE",
"460 1415 OFFCURVE",
"451 1330 CURVE SMOOTH",
"291 -21 LINE"
);
}
);
width = 1888;
}
);
leftKerningGroup = V;
leftMetricsKey = V;
rightKerningGroup = V;
rightMetricsKey = V;
unicode = 0057;
},
{
glyphname = X;
layers = (
{
background = {
paths = (
{
closed = 1;
nodes = (
"737 740 LINE",
"211 225 LINE SMOOTH",
"85 102 OFFCURVE",
"2 64 OFFCURVE",
"-146 45 CURVE",
"-165 0 LINE",
"326 0 LINE",
"344 45 LINE",
"205 45 OFFCURVE",
"204 97 OFFCURVE",
"342 235 CURVE SMOOTH",
"758 649 LINE"
);
},
{
closed = 1;
nodes = (
"917 769 LINE",
"1363 1193 LINE SMOOTH",
"1621 1438 OFFCURVE",
"1704 1472 OFFCURVE",
"1848 1479 CURVE",
"1869 1523 LINE",
"1249 1523 LINE",
"1229 1479 LINE",
"1415 1447 OFFCURVE",
"1432 1378 OFFCURVE",
"1284 1234 CURVE SMOOTH",
"894 858 LINE"
);
},
{
closed = 1;
nodes = (
"841 227 LINE SMOOTH",
"871 102 OFFCURVE",
"841 58 OFFCURVE",
"702 45 CURVE",
"684 0 LINE",
"1265 0 LINE",
"1287 47 LINE",
"1132 64 OFFCURVE",
"1095 102 OFFCURVE",
"1070 211 CURVE SMOOTH",
"811 1297 LINE SMOOTH",
"781 1422 OFFCURVE",
"813 1455 OFFCURVE",
"976 1479 CURVE",
"995 1523 LINE",
"403 1523 LINE",
"382 1479 LINE",
"510 1455 OFFCURVE",
"552 1422 OFFCURVE",
"583 1294 CURVE SMOOTH"
);
}
);
};
guideLines = (
{
position = "{584, 39}";
},
{
position = "{1559, 1284}";
}
);
layerId = master01;
paths = (
{
closed = 1;
nodes = (
"766 783 LINE",
"1208 1299 LINE SMOOTH",
"1314 1421 OFFCURVE",
"1383 1459 OFFCURVE",
"1508 1479 CURVE",
"1524 1523 LINE",
"1111 1523 LINE",
"1096 1479 LINE",
"1213 1479 OFFCURVE",
"1214 1427 OFFCURVE",
"1098 1289 CURVE SMOOTH",
"748 874 LINE"
);
},
{
closed = 1;
nodes = (
"615 754 LINE",
"240 330 LINE SMOOTH",
"24 85 OFFCURVE",
"-46 52 OFFCURVE",
"-167 45 CURVE",
"-185 0 LINE",
"336 0 LINE",
"353 45 LINE",
"197 76 OFFCURVE",
"184 143 OFFCURVE",
"307 289 CURVE SMOOTH",
"634 666 LINE"
);
},
{
closed = 1;
nodes = (
"679 1297 LINE SMOOTH",
"654 1421 OFFCURVE",
"679 1466 OFFCURVE",
"795 1479 CURVE",
"811 1523 LINE",
"322 1523 LINE",
"304 1476 LINE",
"434 1459 OFFCURVE",
"465 1421 OFFCURVE",
"486 1313 CURVE SMOOTH",
"704 227 LINE SMOOTH",
"727 101 OFFCURVE",
"702 68 OFFCURVE",
"564 45 CURVE",
"549 0 LINE",
"1047 0 LINE",
"1064 45 LINE",
"957 68 OFFCURVE",
"921 101 OFFCURVE",
"895 229 CURVE SMOOTH"
);
}
);
width = 1212;
},
{
guideLines = (
{
position = "{621, 39}";
},
{
position = "{1596, 1284}";
}
);
layerId = "D3934E74-9B53-4E98-B19F-CD3DFEE08352";
paths = (
{
closed = 1;
nodes = (
"755 740 LINE",
"1181 1221 LINE SMOOTH",
"1332 1391 OFFCURVE",
"1397 1427 OFFCURVE",
"1551 1455 CURVE",
"1575 1523 LINE",
"1073 1523 LINE",
"1049 1455 LINE",
"1176 1427 OFFCURVE",
"1179 1377 OFFCURVE",
"1036 1216 CURVE SMOOTH",
"726 865 LINE"
);
},
{
closed = 1;
nodes = (
"613 759 LINE",
"221 305 LINE SMOOTH",
"72 134 OFFCURVE",
"1 97 OFFCURVE",
"-173 68 CURVE",
"-197 0 LINE",
"338 0 LINE",
"361 68 LINE",
"230 97 OFFCURVE",
"222 158 OFFCURVE",
"355 307 CURVE SMOOTH",
"648 637 LINE"
);
},
{
closed = 1;
nodes = (
"743 1270 LINE SMOOTH",
"712 1411 OFFCURVE",
"736 1439 OFFCURVE",
"874 1455 CURVE",
"896 1523 LINE",
"311 1523 LINE",
"287 1455 LINE",
"427 1439 OFFCURVE",
"454 1412 OFFCURVE",
"480 1291 CURVE SMOOTH",
"705 254 LINE SMOOTH",
"735 114 OFFCURVE",
"711 84 OFFCURVE",
"554 68 CURVE",
"531 0 LINE",
"1119 0 LINE",
"1142 68 LINE",
"1022 84 OFFCURVE",
"995 112 OFFCURVE",
"969 233 CURVE SMOOTH"
);
}
);
width = 1273;
}
);
leftKerningGroup = X;
rightKerningGroup = X;
unicode = 0058;
},
{
glyphname = Y;
layers = (
{
anchors = (
{
name = topcap;
position = "{985, 1643}";
}
);
guideLines = (
{
angle = 68.9625;
position = "{1556, 1284}";
}
);
layerId = master01;
paths = (
{
closed = 1;
nodes = (
"648 0 LINE",
"664 45 LINE",
"501 83 LINE",
"711 688 LINE",
"1192 1263 LINE SMOOTH",
"1336 1434 OFFCURVE",
"1372 1464 OFFCURVE",
"1505 1479 CURVE",
"1520 1523 LINE",
"1067 1523 LINE",
"1053 1479 LINE",
"1201 1469 OFFCURVE",
"1228 1426 OFFCURVE",
"1136 1315 CURVE SMOOTH",
"681 769 LINE",
"680 769 LINE",
"628 1267 LINE SMOOTH",
"612 1430 OFFCURVE",
"638 1470 OFFCURVE",
"753 1479 CURVE",
"771 1523 LINE",
"311 1523 LINE",
"295 1479 LINE",
"411 1472 OFFCURVE",
"428 1447 OFFCURVE",
"444 1315 CURVE SMOOTH",
"524 682 LINE",
"315 83 LINE",
"154 45 LINE",
"138 0 LINE"
);
}
);
width = 1152;
},
{
anchors = (
{
name = topcap;
position = "{1062, 1643}";
}
);
background = {
paths = (
{
closed = 0;
nodes = (
"896 1270 LINE SMOOTH",
"861 1411 OFFCURVE",
"888 1439 OFFCURVE",
"1051 1455 CURVE",
"1079 1523 LINE",
"340 1523 LINE",
"312 1455 LINE",
"478 1439 OFFCURVE",
"511 1412 OFFCURVE",
"541 1291 CURVE SMOOTH"
);
},
{
closed = 0;
nodes = (
"1492 1221 LINE SMOOTH",
"1672 1388 OFFCURVE",
"1749 1427 OFFCURVE",
"1933 1455 CURVE",
"1961 1523 LINE",
"1355 1523 LINE",
"1328 1455 LINE",
"1479 1427 OFFCURVE",
"1481 1374 OFFCURVE",
"1312 1216 CURVE SMOOTH"
);
}
);
};
guideLines = (
{
angle = 68.9625;
position = "{1635, 1284}";
}
);
layerId = "D3934E74-9B53-4E98-B19F-CD3DFEE08352";
paths = (
{
closed = 1;
nodes = (
"708 0 LINE",
"733 73 LINE",
"608 115 LINE",
"816 709 LINE",
"1225 1219 LINE SMOOTH",
"1349 1376 OFFCURVE",
"1419 1422 OFFCURVE",
"1601 1455 CURVE",
"1626 1523 LINE",
"1118 1523 LINE",
"1093 1455 LINE",
"1221 1439 OFFCURVE",
"1221 1385 OFFCURVE",
"1094 1223 CURVE SMOOTH",
"787 831 LINE",
"774 831 LINE",
"724 1264 LINE SMOOTH",
"707 1413 OFFCURVE",
"724 1437 OFFCURVE",
"859 1455 CURVE",
"884 1523 LINE",
"302 1523 LINE",
"276 1455 LINE",
"427 1447 OFFCURVE",
"453 1426 OFFCURVE",
"467 1295 CURVE SMOOTH",
"534 711 LINE",
"325 115 LINE",
"170 73 LINE",
"144 0 LINE"
);
}
);
width = 1267;
}
);
leftKerningGroup = Y;
rightKerningGroup = Y;
unicode = 0059;
},
{
glyphname = Z;
layers = (
{
anchors = (
{
name = bottom;
position = "{434, 0}";
},
{
name = topcap;
position = "{941, 1643}";
}
);
background = {
anchors = (
{
name = bottom;
position = "{1128, 1523}";
},
{
name = topcap;
position = "{525, -120}";
}
);
paths = (
{
closed = 1;
nodes = (
"573 1523 LINE",
"329 1041 LINE",
"396 1041 LINE",
"489 1172 OFFCURVE",
"610 1309 OFFCURVE",
"748 1441 CURVE",
"1366 1441 LINE",
"136 102 LINE",
"92 0 LINE",
"1073 0 LINE",
"1310 430 LINE",
"1256 430 LINE",
"1168 314 OFFCURVE",
"1046 185 OFFCURVE",
"917 78 CURVE",
"383 78 LINE",
"1621 1422 LINE",
"1665 1523 LINE"
);
}
);
};
layerId = master01;
paths = (
{
closed = 1;
nodes = (
"900 0 LINE",
"1105 482 LINE",
"1049 482 LINE",
"971 351 OFFCURVE",
"869 214 OFFCURVE",
"753 83 CURVE",
"235 83 LINE",
"1268 1421 LINE",
"1305 1523 LINE",
"480 1523 LINE",
"281 1094 LINE",
"327 1094 LINE",
"402 1209 OFFCURVE",
"504 1338 OFFCURVE",
"612 1445 CURVE",
"1060 1445 LINE",
"20 101 LINE",
"-17 0 LINE"
);
}
);
width = 1202;
},
{
anchors = (
{
name = bottom;
position = "{454, 0}";
},
{
name = topcap;
position = "{960, 1643}";
}
);
background = {
paths = (
{
closed = 0;
nodes = (
"1095 0 LINE",
"1279 463 LINE",
"1210 463 LINE",
"1132 341 OFFCURVE",
"1041 229 OFFCURVE",
"921 108 CURVE"
);
},
{
closed = 1;
nodes = (
"1095 0 LINE",
"1358 518 LINE",
"1289 518 LINE",
"1183 371 OFFCURVE",
"1061 235 OFFCURVE",
"921 108 CURVE",
"378 108 LINE",
"1599 1392 LINE",
"1652 1523 LINE",
"573 1523 LINE",
"311 1051 LINE",
"380 1051 LINE",
"500 1198 OFFCURVE",
"621 1317 OFFCURVE",
"747 1415 CURVE",
"1215 1415 LINE",
"-13 127 LINE",
"-63 0 LINE"
);
}
);
};
layerId = "D3934E74-9B53-4E98-B19F-CD3DFEE08352";
paths = (
{
closed = 1;
nodes = (
"919 0 LINE",
"1139 517 LINE",
"1084 517 LINE SMOOTH",
"995 374 OFFCURVE",
"904 248 OFFCURVE",
"773 104 CURVE SMOOTH",
"313 104 LINE",
"1342 1393 LINE",
"1389 1523 LINE",
"480 1523 LINE",
"261 1051 LINE",
"319 1051 LINE SMOOTH",
"420 1198 OFFCURVE",
"519 1313 OFFCURVE",
"627 1420 CURVE SMOOTH",
"1023 1420 LINE",
"-11 127 LINE",
"-53 0 LINE"
);
}
);
width = 1220;
},
{
anchors = (
{
name = bottom;
position = "{540, 0}";
},
{
name = topcap;
position = "{1143, 1643}";
}
);
associatedMasterId = "D3934E74-9B53-4E98-B19F-CD3DFEE08352";
background = {
paths = (
{
closed = 0;
nodes = (
"1095 0 LINE",
"1279 463 LINE",
"1210 463 LINE",
"1132 341 OFFCURVE",
"1041 229 OFFCURVE",
"921 108 CURVE"
);
},
{
closed = 1;
nodes = (
"1095 0 LINE",
"1358 518 LINE",
"1289 518 LINE",
"1183 371 OFFCURVE",
"1061 235 OFFCURVE",
"921 108 CURVE",
"378 108 LINE",
"1599 1392 LINE",
"1652 1523 LINE",
"573 1523 LINE",
"311 1051 LINE",
"380 1051 LINE",
"500 1198 OFFCURVE",
"621 1317 OFFCURVE",
"747 1415 CURVE",
"1215 1415 LINE",
"-13 127 LINE",
"-63 0 LINE"
);
}
);
};
layerId = "747861B9-7182-4281-8EE8-82C3AAB3D81C";
name = "Apr 22 20, 11:07";
paths = (
{
closed = 1;
nodes = (
"1095 0 LINE",
"1358 518 LINE",
"1289 518 LINE",
"1183 371 OFFCURVE",
"1061 235 OFFCURVE",
"921 104 CURVE",
"373 104 LINE",
"1599 1392 LINE",
"1652 1523 LINE",
"573 1523 LINE",
"311 1051 LINE",
"380 1051 LINE",
"500 1198 OFFCURVE",
"621 1317 OFFCURVE",
"747 1420 CURVE",
"1219 1420 LINE",
"-13 127 LINE",
"-63 0 LINE"
);
},
{
closed = 0;
nodes = (
"4875 -2886 LINE"
);
}
);
width = 1452;
}
);
leftKerningGroup = Z;
rightKerningGroup = Z;
unicode = 005A;
},
{
glyphname = AE.001;
layers = (
{
background = {
paths = (
{
closed = 1;
nodes = (
"1226 1390 LINE",
"1271 1390 LINE",
"735 93 LINE",
"553 55 LINE",
"529 0 LINE",
"1734 0 LINE",
"1914 456 LINE",
"1857 456 LINE",
"1781 330 OFFCURVE",
"1693 204 OFFCURVE",
"1586 78 CURVE",
"947 78 LINE",
"1227 763 LINE",
"1572 763 LINE",
"1568 685 OFFCURVE",
"1560 606 OFFCURVE",
"1537 526 CURVE",
"1595 526 LINE",
"1818 1069 LINE",
"1762 1069 LINE",
"1717 994 OFFCURVE",
"1662 919 OFFCURVE",
"1595 843 CURVE",
"1263 843 LINE",
"1508 1445 LINE",
"1956 1445 LINE",
"2013 1346 OFFCURVE",
"2047 1229 OFFCURVE",
"2070 1088 CURVE",
"2123 1088 LINE",
"2107 1523 LINE",
"1064 1523 LINE",
"1043 1479 LINE",
"1226 1436 LINE"
);
},
{
closed = 1;
nodes = (
"979 639 LINE",
"563 639 LINE",
"499 561 LINE",
"949 561 LINE"
);
},
{
closed = 1;
nodes = (
"1231 1479 LINE",
"145 275 LINE SMOOTH",
"13 128 OFFCURVE",
"-41 83 OFFCURVE",
"-226 55 CURVE",
"-252 0 LINE",
"306 0 LINE",
"332 55 LINE",
"218 71 OFFCURVE",
"168 94 OFFCURVE",
"168 138 CURVE SMOOTH",
"168 169 OFFCURVE",
"189 203 OFFCURVE",
"253 271 CURVE SMOOTH",
"1314 1445 LINE"
);
}
);
};
layerId = master01;
paths = (
{
closed = 1;
nodes = (
"1030 1390 LINE",
"1068 1390 LINE",
"613 83 LINE",
"460 45 LINE",
"444 0 LINE",
"1457 0 LINE",
"1608 456 LINE",
"1560 456 LINE",
"1496 330 OFFCURVE",
"1422 204 OFFCURVE",
"1332 78 CURVE",
"795 78 LINE",
"1031 763 LINE",
"1320 763 LINE",
"1317 685 OFFCURVE",
"1310 606 OFFCURVE",
"1291 526 CURVE",
"1340 526 LINE",
"1527 1069 LINE",
"1480 1069 LINE",
"1442 994 OFFCURVE",
"1396 919 OFFCURVE",
"1340 843 CURVE",
"1061 843 LINE",
"1267 1445 LINE",
"1643 1445 LINE",
"1691 1346 OFFCURVE",
"1719 1229 OFFCURVE",
"1739 1088 CURVE",
"1783 1088 LINE",
"1770 1523 LINE",
"894 1523 LINE",
"876 1479 LINE",
"1030 1436 LINE"
);
},
{
closed = 1;
nodes = (
"822 639 LINE",
"473 639 LINE",
"419 561 LINE",
"797 561 LINE"
);
},
{
closed = 1;
nodes = (
"1034 1479 LINE",
"122 275 LINE SMOOTH",
"11 128 OFFCURVE",
"-39 73 OFFCURVE",
"-193 45 CURVE",
"-212 0 LINE",
"257 0 LINE",
"275 45 LINE",
"179 61 OFFCURVE",
"141 94 OFFCURVE",
"141 138 CURVE SMOOTH",
"141 169 OFFCURVE",
"159 203 OFFCURVE",
"213 271 CURVE SMOOTH",
"1104 1445 LINE"
);
}
);
width = 1727;
},
{
background = {
paths = (
{
closed = 1;
nodes = (
"1210 1389 LINE",
"1253 1389 LINE",
"719 106 LINE",
"540 68 LINE",
"511 0 LINE",
"1787 0 LINE",
"1971 463 LINE",
"1902 463 LINE",
"1824 341 OFFCURVE",
"1733 229 OFFCURVE",
"1613 108 CURVE",
"1059 108 LINE",
"1327 752 LINE",
"1541 752 LINE",
"1561 679 OFFCURVE",
"1567 602 OFFCURVE",
"1558 529 CURVE",
"1641 529 LINE",
"1871 1082 LINE",
"1788 1082 LINE",
"1749 1020 OFFCURVE",
"1682 947 OFFCURVE",
"1586 859 CURVE",
"1371 859 LINE",
"1603 1415 LINE",
"1954 1415 LINE",
"2015 1330 OFFCURVE",
"2066 1225 OFFCURVE",
"2110 1088 CURVE",
"2179 1088 LINE",
"2161 1523 LINE",
"1043 1523 LINE",
"1014 1455 LINE",
"1210 1424 LINE"
);
},
{
closed = 1;
nodes = (
"1024 547 LINE",
"386 547 LINE",
"340 443 LINE",
"978 443 LINE"
);
},
{
closed = 1;
nodes = (
"1185 1495 LINE",
"143 292 LINE SMOOTH",
"-6 122 OFFCURVE",
"-38 102 OFFCURVE",
"-225 68 CURVE",
"-252 0 LINE",
"366 0 LINE",
"394 68 LINE",
"264 94 OFFCURVE",
"214 121 OFFCURVE",
"214 165 CURVE SMOOTH",
"214 193 OFFCURVE",
"235 231 OFFCURVE",
"284 289 CURVE SMOOTH",
"1298 1449 LINE"
);
}
);
};
layerId = "D3934E74-9B53-4E98-B19F-CD3DFEE08352";
paths = (
{
closed = 1;
nodes = (
"1016 1398 LINE",
"1065 1398 LINE",
"613 106 LINE",
"464 68 LINE",
"439 0 LINE",
"1499 0 LINE",
"1654 463 LINE",
"1596 463 LINE",
"1530 341 OFFCURVE",
"1454 229 OFFCURVE",
"1353 104 CURVE",
"876 104 LINE",
"1104 754 LINE",
"1292 754 LINE",
"1310 679 OFFCURVE",
"1315 602 OFFCURVE",
"1307 529 CURVE",
"1377 529 LINE",
"1570 1082 LINE",
"1500 1082 LINE",
"1467 1020 OFFCURVE",
"1411 947 OFFCURVE",
"1330 858 CURVE",
"1141 858 LINE",
"1336 1420 LINE",
"1640 1420 LINE",
"1691 1330 OFFCURVE",
"1733 1225 OFFCURVE",
"1770 1088 CURVE",
"1828 1088 LINE",
"1814 1523 LINE",
"848 1523 LINE",
"823 1455 LINE",
"1016 1424 LINE"
);
},
{
closed = 1;
nodes = (
"860 547 LINE",
"324 547 LINE",
"286 443 LINE",
"822 443 LINE"
);
},
{
closed = 1;
nodes = (
"995 1495 LINE",
"120 292 LINE SMOOTH",
"-5 122 OFFCURVE",
"-32 102 OFFCURVE",
"-189 68 CURVE",
"-212 0 LINE",
"307 0 LINE",
"331 68 LINE",
"222 94 OFFCURVE",
"180 121 OFFCURVE",
"180 165 CURVE SMOOTH",
"180 193 OFFCURVE",
"197 231 OFFCURVE",
"239 289 CURVE SMOOTH",
"1088 1449 LINE"
);
}
);
width = 1760;
}
);
leftMetricsKey = A;
rightKerningGroup = E;
rightMetricsKey = E;
},
{
glyphname = C.001;
layers = (
{
anchors = (
{
name = bottom;
position = "{520, 0}";
},
{
name = topcap;
position = "{1113, 1643}";
}
);
guideLines = (
{
angle = 68;
position = "{1242, 772}";
}
);
layerId = master01;
paths = (
{
closed = 1;
nodes = (
"660 -21 OFFCURVE",
"774 29 OFFCURVE",
"906 153 CURVE",
"913 153 LINE",
"900 0 LINE",
"945 0 LINE",
"1129 580 LINE",
"1081 580 LINE",
"967 265 OFFCURVE",
"769 73 OFFCURVE",
"556 73 CURVE SMOOTH",
"388 73 OFFCURVE",
"302 193 OFFCURVE",
"302 433 CURVE SMOOTH",
"302 944 OFFCURVE",
"676 1457 OFFCURVE",
"1049 1457 CURVE SMOOTH",
"1179 1457 OFFCURVE",
"1239 1396 OFFCURVE",
"1239 1255 CURVE SMOOTH",
"1239 1203 OFFCURVE",
"1231 1142 OFFCURVE",
"1214 1069 CURVE",
"1263 1069 LINE",
"1424 1523 LINE",
"1387 1523 LINE",
"1327 1459 LINE",
"1267 1512 OFFCURVE",
"1172 1544 OFFCURVE",
"1066 1544 CURVE SMOOTH",
"594 1544 OFFCURVE",
"120 982 OFFCURVE",
"120 421 CURVE SMOOTH",
"120 128 OFFCURVE",
"249 -21 OFFCURVE",
"511 -21 CURVE SMOOTH"
);
}
);
width = 1234;
},
{
anchors = (
{
name = bottom;
position = "{511, 0}";
},
{
name = topcap;
position = "{1104, 1643}";
}
);
background = {
paths = (
{
closed = 1;
nodes = (
"867 -21 OFFCURVE",
"1031 38 OFFCURVE",
"1185 140 CURVE",
"1189 140 LINE",
"1180 0 LINE",
"1249 0 LINE",
"1489 611 LINE",
"1420 611 LINE",
"1241 278 OFFCURVE",
"973 88 OFFCURVE",
"760 88 CURVE SMOOTH",
"591 88 OFFCURVE",
"504 199 OFFCURVE",
"504 444 CURVE SMOOTH",
"504 975 OFFCURVE",
"849 1436 OFFCURVE",
"1263 1436 CURVE SMOOTH",
"1468 1436 OFFCURVE",
"1587 1323 OFFCURVE",
"1587 1126 CURVE SMOOTH",
"1587 1093 OFFCURVE",
"1584 1065 OFFCURVE",
"1579 1039 CURVE",
"1648 1039 LINE",
"1846 1523 LINE",
"1777 1523 LINE",
"1644 1420 LINE",
"1526 1510 OFFCURVE",
"1419 1544 OFFCURVE",
"1259 1544 CURVE SMOOTH",
"672 1544 OFFCURVE",
"161 1067 OFFCURVE",
"161 501 CURVE SMOOTH",
"161 169 OFFCURVE",
"348 -21 OFFCURVE",
"682 -21 CURVE SMOOTH"
);
}
);
};
layerId = "D3934E74-9B53-4E98-B19F-CD3DFEE08352";
paths = (
{
closed = 1;
nodes = (
"728 -21 OFFCURVE",
"866 38 OFFCURVE",
"985 129 CURVE",
"990 129 LINE",
"991 0 LINE",
"1049 0 LINE",
"1251 611 LINE",
"1193 611 LINE",
"1042 278 OFFCURVE",
"817 88 OFFCURVE",
"638 88 CURVE SMOOTH",
"496 88 OFFCURVE",
"423 199 OFFCURVE",
"423 444 CURVE SMOOTH",
"423 975 OFFCURVE",
"713 1436 OFFCURVE",
"1061 1436 CURVE SMOOTH",
"1233 1436 OFFCURVE",
"1333 1323 OFFCURVE",
"1333 1126 CURVE SMOOTH",
"1333 1093 OFFCURVE",
"1331 1065 OFFCURVE",
"1326 1039 CURVE",
"1384 1039 LINE",
"1551 1523 LINE",
"1493 1523 LINE",
"1391 1397 LINE",
"1301 1510 OFFCURVE",
"1192 1544 OFFCURVE",
"1058 1544 CURVE SMOOTH",
"564 1544 OFFCURVE",
"135 1067 OFFCURVE",
"135 501 CURVE SMOOTH",
"135 169 OFFCURVE",
"292 -21 OFFCURVE",
"573 -21 CURVE SMOOTH"
);
}
);
width = 1329;
}
);
leftKerningGroup = C;
leftMetricsKey = O;
rightKerningGroup = C;
},
{
glyphname = a;
layers = (
{
anchors = (
{
name = bottom;
position = "{606, 0}";
},
{
name = top;
position = "{746, 1289}";
}
);
background = {
paths = (
{
closed = 1;
nodes = (
"623 -21 OFFCURVE",
"996 388 OFFCURVE",
"996 744 CURVE SMOOTH",
"996 944 OFFCURVE",
"889 1069 OFFCURVE",
"701 1069 CURVE SMOOTH",
"373 1069 OFFCURVE",
"2 659 OFFCURVE",
"2 307 CURVE SMOOTH",
"2 105 OFFCURVE",
"107 -21 OFFCURVE",
"295 -21 CURVE SMOOTH {name = hr00;}"
);
},
{
closed = 1;
nodes = (
"208 50 OFFCURVE",
"183 99 OFFCURVE",
"183 193 CURVE SMOOTH",
"183 503 OFFCURVE",
"516 1000 OFFCURVE",
"724 1000 CURVE SMOOTH",
"792 1000 OFFCURVE",
"820 953 OFFCURVE",
"820 865 CURVE SMOOTH",
"820 572 OFFCURVE",
"470 50 OFFCURVE",
"272 50 CURVE SMOOTH"
);
}
);
};
layerId = master01;
paths = (
{
closed = 1;
nodes = (
"324 -21 OFFCURVE",
"425 75 OFFCURVE",
"554 302 CURVE",
"564 295 LINE",
"519 211 OFFCURVE",
"508 153 OFFCURVE",
"508 94 CURVE SMOOTH",
"508 18 OFFCURVE",
"544 -21 OFFCURVE",
"606 -21 CURVE SMOOTH",
"698 -21 OFFCURVE",
"806 71 OFFCURVE",
"921 245 CURVE",
"889 273 LINE",
"795 151 OFFCURVE",
"737 97 OFFCURVE",
"704 97 CURVE SMOOTH",
"672 97 OFFCURVE",
"664 128 OFFCURVE",
"695 216 CURVE SMOOTH",
"979 1049 LINE",
"811 1049 LINE",
"784 976 LINE",
"744 1043 OFFCURVE",
"707 1069 OFFCURVE",
"646 1069 CURVE SMOOTH",
"371 1069 OFFCURVE",
"29 600 OFFCURVE",
"29 242 CURVE SMOOTH",
"29 77 OFFCURVE",
"98 -21 OFFCURVE",
"212 -21 CURVE SMOOTH"
);
},
{
closed = 1;
nodes = (
"199 50 OFFCURVE",
"181 85 OFFCURVE",
"181 165 CURVE SMOOTH",
"181 451 OFFCURVE",
"497 1005 OFFCURVE",
"664 1005 CURVE SMOOTH",
"707 1005 OFFCURVE",
"740 968 OFFCURVE",
"740 906 CURVE SMOOTH",
"740 869 OFFCURVE",
"737 828 OFFCURVE",
"704 737 CURVE SMOOTH",
"570 362 OFFCURVE",
"357 50 OFFCURVE",
"244 50 CURVE SMOOTH"
);
}
);
width = 1000;
},
{
anchors = (
{
name = bottom;
position = "{675, 0}";
},
{
name = top;
position = "{795, 1289}";
}
);
background = {
paths = (
{
closed = 1;
nodes = (
"428 -21 OFFCURVE",
"552 79 OFFCURVE",
"725 328 CURVE",
"738 325 LINE",
"676 219 OFFCURVE",
"653 159 OFFCURVE",
"653 105 CURVE SMOOTH",
"653 22 OFFCURVE",
"706 -21 OFFCURVE",
"808 -21 CURVE SMOOTH",
"941 -21 OFFCURVE",
"1056 54 OFFCURVE",
"1225 251 CURVE {name = hr03;}",
"1170 284 LINE",
"1018 128 OFFCURVE",
"973 91 OFFCURVE",
"934 91 CURVE SMOOTH",
"911 91 OFFCURVE",
"904 108 OFFCURVE",
"915 135 CURVE SMOOTH",
"1292 1049 LINE",
"1002 1049 LINE",
"970 976 LINE",
"917 1041 OFFCURVE",
"851 1069 OFFCURVE",
"752 1069 CURVE SMOOTH",
"438 1069 OFFCURVE",
"43 618 OFFCURVE",
"43 260 CURVE SMOOTH",
"43 86 OFFCURVE",
"139 -21 OFFCURVE",
"296 -21 CURVE SMOOTH"
);
},
{
closed = 1;
nodes = (
"345 73 OFFCURVE",
"326 111 OFFCURVE",
"326 173 CURVE SMOOTH",
"326 463 OFFCURVE",
"638 976 OFFCURVE",
"814 976 CURVE SMOOTH",
"873 976 OFFCURVE",
"905 943 OFFCURVE",
"905 882 CURVE SMOOTH",
"905 848 OFFCURVE",
"896 815 OFFCURVE",
"862 737 CURVE SMOOTH",
"725 419 OFFCURVE",
"472 73 OFFCURVE",
"378 73 CURVE SMOOTH"
);
}
);
};
layerId = "D3934E74-9B53-4E98-B19F-CD3DFEE08352";
paths = (
{
closed = 1;
nodes = (
"360 -21 OFFCURVE",
"464 79 OFFCURVE",
"600 328 CURVE",
"611 325 LINE",
"568 219 OFFCURVE",
"549 159 OFFCURVE",
"549 105 CURVE SMOOTH",
"549 22 OFFCURVE",
"593 -21 OFFCURVE",
"679 -21 CURVE SMOOTH",
"790 -21 OFFCURVE",
"887 54 OFFCURVE",
"1029 251 CURVE {name = hr03;}",
"983 284 LINE",
"855 128 OFFCURVE",
"817 91 OFFCURVE",
"785 91 CURVE SMOOTH",
"765 91 OFFCURVE",
"759 108 OFFCURVE",
"769 135 CURVE SMOOTH",
"1085 1049 LINE",
"842 1049 LINE",
"815 976 LINE",
"770 1041 OFFCURVE",
"715 1069 OFFCURVE",
"632 1069 CURVE SMOOTH",
"368 1069 OFFCURVE",
"36 618 OFFCURVE",
"36 260 CURVE SMOOTH",
"36 86 OFFCURVE",
"117 -21 OFFCURVE",
"249 -21 CURVE SMOOTH"
);
},
{
closed = 1;
nodes = (
"290 73 OFFCURVE",
"274 111 OFFCURVE",
"274 173 CURVE SMOOTH",
"274 463 OFFCURVE",
"536 976 OFFCURVE",
"684 976 CURVE SMOOTH",
"733 976 OFFCURVE",
"760 943 OFFCURVE",
"760 882 CURVE SMOOTH",
"760 848 OFFCURVE",
"753 815 OFFCURVE",
"724 737 CURVE SMOOTH",
"609 419 OFFCURVE",
"396 73 OFFCURVE",
"318 73 CURVE SMOOTH"
);
}
);
width = 1095;
}
);
leftKerningGroup = a;
rightKerningGroup = i;
rightMetricsKey = u;
unicode = 0061;
},
{
glyphname = aogonek;
layers = (
{
components = (
{
alignment = -1;
name = a;
}
);
layerId = master01;
paths = (
{
closed = 1;
nodes = (
"494 -507 OFFCURVE",
"572 -466 OFFCURVE",
"647 -392 CURVE {name = hr00;}",
"638 -357 LINE",
"587 -388 OFFCURVE",
"560 -398 OFFCURVE",
"530 -398 CURVE SMOOTH",
"489 -398 OFFCURVE",
"469 -380 OFFCURVE",
"469 -341 CURVE SMOOTH",
"469 -258 OFFCURVE",
"591 -97 OFFCURVE",
"770 89 CURVE",
"630 0 LINE",
"433 -117 OFFCURVE",
"308 -281 OFFCURVE",
"308 -404 CURVE SMOOTH",
"308 -471 OFFCURVE",
"349 -507 OFFCURVE",
"420 -507 CURVE SMOOTH"
);
}
);
width = 1000;
},
{
components = (
{
name = a;
}
);
layerId = "D3934E74-9B53-4E98-B19F-CD3DFEE08352";
paths = (
{
closed = 1;
nodes = (
"643 -507 OFFCURVE",
"736 -459 OFFCURVE",
"827 -368 CURVE {name = hr00;}",
"818 -321 LINE",
"764 -354 OFFCURVE",
"732 -365 OFFCURVE",
"697 -365 CURVE SMOOTH",
"650 -365 OFFCURVE",
"625 -334 OFFCURVE",
"625 -296 CURVE SMOOTH",
"625 -208 OFFCURVE",
"707 -97 OFFCURVE",
"891 84 CURVE",
"791 30 LINE",
"513 -106 OFFCURVE",
"422 -246 OFFCURVE",
"422 -355 CURVE SMOOTH",
"422 -444 OFFCURVE",
"475 -507 OFFCURVE",
"564 -507 CURVE SMOOTH"
);
}
);
width = 1110;
}
);
leftKerningGroup = a;
leftMetricsKey = a;
rightKerningGroup = u;
rightMetricsKey = a;
unicode = 0105;
},
{
glyphname = ae;
layers = (
{
layerId = master01;
paths = (
{
closed = 1;
nodes = (
"323 -21 OFFCURVE",
"425 75 OFFCURVE",
"554 302 CURVE",
"564 295 LINE",
"563 283 OFFCURVE",
"563 271 OFFCURVE",
"563 248 CURVE SMOOTH",
"563 75 OFFCURVE",
"639 -21 OFFCURVE",
"773 -21 CURVE SMOOTH",
"915 -21 OFFCURVE",
"1058 85 OFFCURVE",
"1194 287 CURVE",
"1158 314 LINE",
"1059 159 OFFCURVE",
"918 50 OFFCURVE",
"815 50 CURVE SMOOTH",
"751 50 OFFCURVE",
"719 91 OFFCURVE",
"719 182 CURVE SMOOTH",
"719 273 OFFCURVE",
"751 392 OFFCURVE",
"813 532 CURVE",
"1145 601 OFFCURVE",
"1378 766 OFFCURVE",
"1378 933 CURVE SMOOTH",
"1378 1016 OFFCURVE",
"1317 1069 OFFCURVE",
"1224 1069 CURVE SMOOTH",
"1135 1069 OFFCURVE",
"1033 1021 OFFCURVE",
"939 935 CURVE",
"979 1049 LINE",
"811 1049 LINE {name = hr02;}",
"784 976 LINE",
"742 1044 OFFCURVE",
"705 1069 OFFCURVE",
"644 1069 CURVE SMOOTH",
"375 1069 OFFCURVE",
"29 603 OFFCURVE",
"29 240 CURVE SMOOTH {name = hr01;}",
"29 78 OFFCURVE",
"98 -21 OFFCURVE",
"211 -21 CURVE SMOOTH"
);
},
{
closed = 1;
nodes = (
"202 50 OFFCURVE",
"181 85 OFFCURVE",
"181 161 CURVE SMOOTH",
"181 456 OFFCURVE",
"496 1005 OFFCURVE",
"665 1005 CURVE SMOOTH",
"712 1005 OFFCURVE",
"740 964 OFFCURVE",
"740 895 CURVE SMOOTH",
"740 854 OFFCURVE",
"728 808 OFFCURVE",
"703 737 CURVE SMOOTH",
"577 375 OFFCURVE",
"356 50 OFFCURVE",
"240 50 CURVE SMOOTH"
);
},
{
closed = 1;
nodes = (
"904 714 LINE SMOOTH",
"979 886 OFFCURVE",
"1100 1008 OFFCURVE",
"1193 1008 CURVE SMOOTH",
"1228 1008 OFFCURVE",
"1246 987 OFFCURVE",
"1246 948 CURVE SMOOTH",
"1246 812 OFFCURVE",
"1058 646 OFFCURVE",
"850 599 CURVE"
);
}
);
width = 1346;
},
{
background = {
paths = (
{
closed = 1;
nodes = (
"43 86 OFFCURVE",
"139 -21 OFFCURVE",
"296 -21 CURVE SMOOTH",
"428 -21 OFFCURVE",
"552 79 OFFCURVE",
"725 328 CURVE",
"738 325 LINE",
"702 82 OFFCURVE",
"853 -21 OFFCURVE",
"1048 -21 CURVE SMOOTH",
"1227 -21 OFFCURVE",
"1389 77 OFFCURVE",
"1560 282 CURVE",
"1510 321 LINE",
"1350 147 OFFCURVE",
"1234 73 OFFCURVE",
"1124 73 CURVE SMOOTH",
"1051 73 OFFCURVE",
"1011 124 OFFCURVE",
"1011 215 CURVE SMOOTH",
"1011 297 OFFCURVE",
"1042 403 OFFCURVE",
"1095 514 CURVE",
"1553 596 OFFCURVE",
"1785 724 OFFCURVE",
"1785 892 CURVE SMOOTH",
"1785 1003 OFFCURVE",
"1687 1069 OFFCURVE",
"1520 1069 CURVE SMOOTH",
"1428 1069 OFFCURVE",
"1317 1017 OFFCURVE",
"1193 921 CURVE",
"1225 882 LINE",
"1292 1049 LINE",
"1002 1049 LINE",
"970 976 LINE",
"917 1041 OFFCURVE",
"851 1069 OFFCURVE",
"752 1069 CURVE SMOOTH",
"438 1069 OFFCURVE",
"43 618 OFFCURVE",
"43 260 CURVE SMOOTH"
);
},
{
closed = 1;
nodes = (
"326 463 OFFCURVE",
"638 976 OFFCURVE",
"814 976 CURVE SMOOTH",
"873 976 OFFCURVE",
"905 943 OFFCURVE",
"905 882 CURVE SMOOTH",
"905 848 OFFCURVE",
"896 815 OFFCURVE",
"862 737 CURVE SMOOTH",
"727 419 OFFCURVE",
"472 73 OFFCURVE",
"378 73 CURVE SMOOTH",
"345 73 OFFCURVE",
"326 111 OFFCURVE",
"326 173 CURVE SMOOTH"
);
},
{
closed = 1;
nodes = (
"1161 632 LINE SMOOTH",
"1280 829 OFFCURVE",
"1399 976 OFFCURVE",
"1497 976 CURVE SMOOTH",
"1529 976 OFFCURVE",
"1546 960 OFFCURVE",
"1546 922 CURVE SMOOTH",
"1546 793 OFFCURVE",
"1348 634 OFFCURVE",
"1134 588 CURVE"
);
}
);
};
layerId = "D3934E74-9B53-4E98-B19F-CD3DFEE08352";
paths = (
{
closed = 1;
nodes = (
"360 -21 OFFCURVE",
"464 79 OFFCURVE",
"600 328 CURVE",
"611 325 LINE",
"608 305 OFFCURVE",
"607 287 OFFCURVE",
"607 269 CURVE SMOOTH",
"607 97 OFFCURVE",
"689 -21 OFFCURVE",
"851 -21 CURVE SMOOTH",
"1002 -21 OFFCURVE",
"1137 77 OFFCURVE",
"1282 282 CURVE",
"1239 321 LINE",
"1105 147 OFFCURVE",
"1008 73 OFFCURVE",
"915 73 CURVE SMOOTH",
"854 73 OFFCURVE",
"820 124 OFFCURVE",
"820 215 CURVE SMOOTH",
"820 297 OFFCURVE",
"847 403 OFFCURVE",
"891 514 CURVE",
"1276 596 OFFCURVE",
"1470 724 OFFCURVE",
"1470 892 CURVE SMOOTH",
"1470 1003 OFFCURVE",
"1388 1069 OFFCURVE",
"1277 1069 CURVE SMOOTH",
"1198 1069 OFFCURVE",
"1115 1034 OFFCURVE",
"1029 968 CURVE",
"1056 1049 LINE",
"842 1049 LINE",
"815 976 LINE",
"770 1041 OFFCURVE",
"715 1069 OFFCURVE",
"632 1069 CURVE SMOOTH",
"368 1069 OFFCURVE",
"36 618 OFFCURVE",
"36 260 CURVE SMOOTH",
"36 86 OFFCURVE",
"117 -21 OFFCURVE",
"249 -21 CURVE SMOOTH"
);
},
{
closed = 1;
nodes = (
"290 73 OFFCURVE",
"274 111 OFFCURVE",
"274 173 CURVE SMOOTH",
"274 463 OFFCURVE",
"536 976 OFFCURVE",
"684 976 CURVE SMOOTH",
"733 976 OFFCURVE",
"760 943 OFFCURVE",
"760 882 CURVE SMOOTH",
"760 848 OFFCURVE",
"753 815 OFFCURVE",
"724 737 CURVE SMOOTH",
"611 419 OFFCURVE",
"396 73 OFFCURVE",
"318 73 CURVE SMOOTH"
);
},
{
closed = 1;
nodes = (
"946 632 LINE SMOOTH",
"1047 829 OFFCURVE",
"1147 976 OFFCURVE",
"1228 976 CURVE SMOOTH",
"1256 976 OFFCURVE",
"1270 960 OFFCURVE",
"1270 922 CURVE SMOOTH",
"1270 793 OFFCURVE",
"1104 634 OFFCURVE",
"924 588 CURVE"
);
}
);
width = 1464;
}
);
leftKerningGroup = a;
leftMetricsKey = a;
rightKerningGroup = e;
rightMetricsKey = e;
unicode = 00E6;
},
{
glyphname = b;
layers = (
{
background = {
paths = (
{
closed = 1;
nodes = (
"662 -21 OFFCURVE",
"1035 388 OFFCURVE",
"1035 744 CURVE SMOOTH",
"1035 944 OFFCURVE",
"928 1069 OFFCURVE",
"740 1069 CURVE SMOOTH",
"412 1069 OFFCURVE",
"41 659 OFFCURVE",
"41 307 CURVE SMOOTH",
"41 105 OFFCURVE",
"146 -21 OFFCURVE",
"334 -21 CURVE SMOOTH {name = hr00;}"
);
},
{
closed = 1;
nodes = (
"248 50 OFFCURVE",
"222 99 OFFCURVE",
"222 193 CURVE SMOOTH",
"222 503 OFFCURVE",
"555 1000 OFFCURVE",
"763 1000 CURVE SMOOTH",
"831 1000 OFFCURVE",
"859 953 OFFCURVE",
"859 865 CURVE SMOOTH",
"859 572 OFFCURVE",
"509 50 OFFCURVE",
"311 50 CURVE SMOOTH"
);
}
);
};
layerId = master01;
paths = (
{
closed = 1;
nodes = (
"575 -21 OFFCURVE",
"870 382 OFFCURVE",
"870 763 CURVE SMOOTH",
"870 960 OFFCURVE",
"790 1069 OFFCURVE",
"664 1069 CURVE SMOOTH",
"580 1069 OFFCURVE",
"490 1013 OFFCURVE",
"413 914 CURVE",
"407 914 LINE",
"640 1622 LINE",
"321 1622 LINE {name = hr00;}",
"328 1594 LINE",
"457 1569 LINE",
"87 493 LINE SMOOTH",
"57 406 OFFCURVE",
"44 326 OFFCURVE",
"44 260 CURVE SMOOTH",
"44 85 OFFCURVE",
"127 -21 OFFCURVE",
"281 -21 CURVE SMOOTH"
);
},
{
closed = 1;
nodes = (
"216 50 OFFCURVE",
"179 93 OFFCURVE",
"179 162 CURVE SMOOTH",
"179 283 OFFCURVE",
"255 500 OFFCURVE",
"301 614 CURVE SMOOTH",
"387 829 OFFCURVE",
"531 1000 OFFCURVE",
"623 1000 CURVE SMOOTH",
"676 1000 OFFCURVE",
"710 928 OFFCURVE",
"710 823 CURVE SMOOTH",
"710 532 OFFCURVE",
"435 50 OFFCURVE",
"267 50 CURVE SMOOTH"
);
}
);
width = 916;
},
{
background = {
anchors = (
{
name = bottom;
position = "{388, 0}";
},
{
name = top;
position = "{909, 1289}";
}
);
paths = (
{
closed = 1;
nodes = (
"807 -21 OFFCURVE",
"1155 341 OFFCURVE",
"1155 716 CURVE SMOOTH",
"1155 941 OFFCURVE",
"1020 1069 OFFCURVE",
"796 1069 CURVE SMOOTH",
"420 1069 OFFCURVE",
"73 709 OFFCURVE",
"73 330 CURVE SMOOTH",
"73 106 OFFCURVE",
"207 -21 OFFCURVE",
"433 -21 CURVE SMOOTH {name = hr00;}"
);
},
{
closed = 1;
nodes = (
"373 73 OFFCURVE",
"347 124 OFFCURVE",
"347 207 CURVE SMOOTH",
"347 495 OFFCURVE",
"641 975 OFFCURVE",
"803 975 CURVE SMOOTH",
"856 975 OFFCURVE",
"881 924 OFFCURVE",
"881 841 CURVE SMOOTH",
"881 552 OFFCURVE",
"586 73 OFFCURVE",
"425 73 CURVE SMOOTH"
);
}
);
};
layerId = "D3934E74-9B53-4E98-B19F-CD3DFEE08352";
paths = (
{
closed = 1;
nodes = (
"655 -21 OFFCURVE",
"962 349 OFFCURVE",
"962 753 CURVE SMOOTH",
"962 960 OFFCURVE",
"879 1067 OFFCURVE",
"753 1067 CURVE SMOOTH",
"658 1067 OFFCURVE",
"558 1004 OFFCURVE",
"462 869 CURVE",
"452 873 LINE",
"727 1622 LINE",
"312 1622 LINE",
"318 1578 LINE",
"455 1552 LINE",
"101 558 LINE SMOOTH",
"64 455 OFFCURVE",
"45 360 OFFCURVE",
"45 280 CURVE SMOOTH",
"45 93 OFFCURVE",
"145 -21 OFFCURVE",
"333 -21 CURVE SMOOTH {name = hr00;}"
);
},
{
closed = 1;
nodes = (
"281 73 OFFCURVE",
"254 111 OFFCURVE",
"254 185 CURVE SMOOTH",
"254 269 OFFCURVE",
"287 411 OFFCURVE",
"333 524 CURVE SMOOTH",
"447 799 OFFCURVE",
"609 975 OFFCURVE",
"672 975 CURVE SMOOTH {name = hr02;}",
"712 975 OFFCURVE",
"730 937 OFFCURVE",
"730 853 CURVE SMOOTH",
"730 545 OFFCURVE",
"467 73 OFFCURVE",
"321 73 CURVE SMOOTH"
);
}
);
width = 1003;
}
);
rightKerningGroup = o;
rightMetricsKey = o;
unicode = 0062;
userData = {
com.typemytype.robofont.guides = (
{
angle = 0;
isGlobal = 0;
magnetic = 5;
x = 0;
y = 508;
}
);
};
},
{
glyphname = c;
layers = (
{
anchors = (
{
name = bottom;
position = "{263, 0}";
},
{
name = top;
position = "{737, 1289}";
}
);
background = {
paths = (
{
closed = 1;
nodes = (
"677 -21 OFFCURVE",
"1050 388 OFFCURVE",
"1050 744 CURVE SMOOTH",
"1050 944 OFFCURVE",
"943 1069 OFFCURVE",
"755 1069 CURVE SMOOTH",
"427 1069 OFFCURVE",
"56 659 OFFCURVE",
"56 307 CURVE SMOOTH",
"56 105 OFFCURVE",
"161 -21 OFFCURVE",
"349 -21 CURVE SMOOTH {name = hr00;}"
);
},
{
closed = 1;
nodes = (
"263 50 OFFCURVE",
"237 99 OFFCURVE",
"237 193 CURVE SMOOTH",
"237 503 OFFCURVE",
"570 1000 OFFCURVE",
"778 1000 CURVE SMOOTH",
"846 1000 OFFCURVE",
"874 953 OFFCURVE",
"874 865 CURVE SMOOTH",
"874 572 OFFCURVE",
"524 50 OFFCURVE",
"326 50 CURVE SMOOTH"
);
}
);
};
layerId = master01;
paths = (
{
closed = 1;
nodes = (
"402 -21 OFFCURVE",
"554 86 OFFCURVE",
"700 289 CURVE",
"663 314 LINE",
"518 138 OFFCURVE",
"396 50 OFFCURVE",
"304 50 CURVE SMOOTH",
"232 50 OFFCURVE",
"206 97 OFFCURVE",
"206 196 CURVE SMOOTH",
"206 501 OFFCURVE",
"468 1008 OFFCURVE",
"668 1008 CURVE SMOOTH",
"709 1008 OFFCURVE",
"729 978 OFFCURVE",
"739 904 CURVE SMOOTH",
"748 839 OFFCURVE",
"772 810 OFFCURVE",
"816 810 CURVE SMOOTH {name = hr01;}",
"859 810 OFFCURVE",
"889 841 OFFCURVE",
"889 888 CURVE SMOOTH",
"889 987 OFFCURVE",
"803 1069 OFFCURVE",
"688 1069 CURVE SMOOTH",
"577 1069 OFFCURVE",
"438 1003 OFFCURVE",
"319 892 CURVE SMOOTH",
"144 730 OFFCURVE",
"42 500 OFFCURVE",
"42 283 CURVE SMOOTH",
"42 85 OFFCURVE",
"114 -21 OFFCURVE",
"256 -21 CURVE SMOOTH"
);
}
);
width = 840;
},
{
anchors = (
{
name = bottom;
position = "{292, 0}";
},
{
name = top;
position = "{747, 1289}";
}
);
background = {
paths = (
{
closed = 1;
nodes = (
"554 -21 OFFCURVE",
"715 77 OFFCURVE",
"887 282 CURVE",
"836 321 LINE",
"676 147 OFFCURVE",
"561 73 OFFCURVE",
"450 73 CURVE SMOOTH",
"378 73 OFFCURVE",
"337 124 OFFCURVE",
"337 215 CURVE SMOOTH",
"337 297 OFFCURVE",
"368 403 OFFCURVE",
"421 514 CURVE",
"880 596 OFFCURVE",
"1111 724 OFFCURVE",
"1111 892 CURVE SMOOTH",
"1111 1003 OFFCURVE",
"1013 1069 OFFCURVE",
"846 1069 CURVE SMOOTH",
"444 1069 OFFCURVE",
"63 691 OFFCURVE",
"63 294 CURVE SMOOTH",
"63 107 OFFCURVE",
"190 -21 OFFCURVE",
"374 -21 CURVE SMOOTH"
);
},
{
closed = 1;
nodes = (
"487 632 LINE SMOOTH",
"607 829 OFFCURVE",
"727 976 OFFCURVE",
"823 976 CURVE SMOOTH",
"856 976 OFFCURVE",
"873 960 OFFCURVE",
"873 922 CURVE SMOOTH",
"873 793 OFFCURVE",
"675 636 OFFCURVE",
"461 588 CURVE"
);
}
);
};
layerId = "D3934E74-9B53-4E98-B19F-CD3DFEE08352";
paths = (
{
closed = 1;
nodes = (
"453 -21 OFFCURVE",
"591 67 OFFCURVE",
"744 281 CURVE",
"701 320 LINE",
"559 144 OFFCURVE",
"474 73 OFFCURVE",
"381 73 CURVE SMOOTH",
"302 73 OFFCURVE",
"268 124 OFFCURVE",
"268 215 CURVE SMOOTH",
"268 481 OFFCURVE",
"533 976 OFFCURVE",
"666 976 CURVE SMOOTH",
"709 976 OFFCURVE",
"733 941 OFFCURVE",
"743 864 CURVE SMOOTH",
"753 786 OFFCURVE",
"785 748 OFFCURVE",
"838 748 CURVE SMOOTH",
"898 748 OFFCURVE",
"939 793 OFFCURVE",
"939 856 CURVE SMOOTH",
"939 979 OFFCURVE",
"832 1069 OFFCURVE",
"682 1069 CURVE SMOOTH",
"567 1069 OFFCURVE",
"428 1005 OFFCURVE",
"304 891 CURVE SMOOTH",
"143 743 OFFCURVE",
"38 514 OFFCURVE",
"38 309 CURVE SMOOTH",
"38 112 OFFCURVE",
"130 -21 OFFCURVE",
"307 -21 CURVE SMOOTH"
);
}
);
width = 908;
}
);
leftKerningGroup = o;
leftMetricsKey = o;
rightKerningGroup = c;
unicode = 0063;
},
{
glyphname = d;
layers = (
{
anchors = (
{
name = bottom;
position = "{382, 0}";
},
{
name = top;
position = "{1284, 1260}";
}
);
layerId = master01;
paths = (
{
closed = 1;
nodes = (
"333 -21 OFFCURVE",
"426 68 OFFCURVE",
"558 302 CURVE",
"562 295 LINE",
"531 221 OFFCURVE",
"513 169 OFFCURVE",
"513 122 CURVE SMOOTH",
"513 28 OFFCURVE",
"542 -21 OFFCURVE",
"614 -21 CURVE SMOOTH",
"708 -21 OFFCURVE",
"811 71 OFFCURVE",
"919 245 CURVE",
"886 273 LINE",
"794 151 OFFCURVE",
"745 97 OFFCURVE",
"711 97 CURVE SMOOTH",
"677 97 OFFCURVE",
"673 132 OFFCURVE",
"699 216 CURVE SMOOTH",
"1145 1622 LINE",
"828 1622 LINE",
"836 1594 LINE",
"964 1569 LINE",
"772 976 LINE {name = hr01;}",
"730 1043 OFFCURVE",
"693 1069 OFFCURVE",
"629 1069 CURVE SMOOTH",
"352 1069 OFFCURVE",
"33 606 OFFCURVE",
"33 237 CURVE SMOOTH",
"33 66 OFFCURVE",
"94 -21 OFFCURVE",
"213 -21 CURVE SMOOTH"
);
},
{
closed = 1;
nodes = (
"207 50 OFFCURVE",
"182 83 OFFCURVE",
"182 161 CURVE SMOOTH",
"182 448 OFFCURVE",
"491 1005 OFFCURVE",
"658 1005 CURVE SMOOTH",
"701 1005 OFFCURVE",
"728 968 OFFCURVE",
"736 906 CURVE",
"734 867 OFFCURVE",
"725 828 OFFCURVE",
"695 737 CURVE SMOOTH",
"567 366 OFFCURVE",
"357 50 OFFCURVE",
"244 50 CURVE SMOOTH"
);
}
);
width = 997;
},
{
anchors = (
{
name = bottom;
position = "{475, 0}";
},
{
name = top;
position = "{1352, 1260}";
}
);
background = {
paths = (
{
closed = 1;
nodes = (
"428 -21 OFFCURVE",
"552 79 OFFCURVE",
"714 328 CURVE",
"727 325 LINE",
"676 219 OFFCURVE",
"653 159 OFFCURVE",
"653 105 CURVE SMOOTH",
"653 22 OFFCURVE",
"706 -21 OFFCURVE",
"808 -21 CURVE SMOOTH",
"941 -21 OFFCURVE",
"1056 54 OFFCURVE",
"1225 251 CURVE {name = hr03;}",
"1170 284 LINE",
"1018 128 OFFCURVE",
"973 91 OFFCURVE",
"934 91 CURVE SMOOTH",
"911 91 OFFCURVE",
"904 108 OFFCURVE",
"915 135 CURVE SMOOTH",
"1292 1049 LINE",
"1002 1049 LINE",
"970 976 LINE",
"917 1041 OFFCURVE",
"851 1069 OFFCURVE",
"752 1069 CURVE SMOOTH",
"438 1069 OFFCURVE",
"43 618 OFFCURVE",
"43 260 CURVE SMOOTH",
"43 86 OFFCURVE",
"139 -21 OFFCURVE",
"296 -21 CURVE SMOOTH"
);
},
{
closed = 1;
nodes = (
"345 73 OFFCURVE",
"326 111 OFFCURVE",
"326 173 CURVE SMOOTH",
"326 463 OFFCURVE",
"638 976 OFFCURVE",
"814 976 CURVE SMOOTH",
"873 976 OFFCURVE",
"905 943 OFFCURVE",
"905 882 CURVE SMOOTH",
"905 848 OFFCURVE",
"896 815 OFFCURVE",
"862 737 CURVE SMOOTH",
"725 419 OFFCURVE",
"472 73 OFFCURVE",
"378 73 CURVE SMOOTH"
);
}
);
};
layerId = "D3934E74-9B53-4E98-B19F-CD3DFEE08352";
paths = (
{
closed = 1;
nodes = (
"360 -21 OFFCURVE",
"464 79 OFFCURVE",
"600 328 CURVE",
"611 325 LINE",
"568 219 OFFCURVE",
"549 159 OFFCURVE",
"549 105 CURVE SMOOTH",
"549 22 OFFCURVE",
"593 -21 OFFCURVE",
"679 -21 CURVE SMOOTH",
"790 -21 OFFCURVE",
"887 54 OFFCURVE",
"1029 251 CURVE {name = hr03;}",
"983 284 LINE",
"855 128 OFFCURVE",
"817 91 OFFCURVE",
"785 91 CURVE SMOOTH",
"765 91 OFFCURVE",
"760 108 OFFCURVE",
"769 135 CURVE SMOOTH",
"1284 1622 LINE",
"873 1622 LINE",
"879 1578 LINE",
"1016 1552 LINE",
"815 976 LINE",
"770 1041 OFFCURVE",
"715 1069 OFFCURVE",
"632 1069 CURVE SMOOTH",
"368 1069 OFFCURVE",
"36 618 OFFCURVE",
"36 260 CURVE SMOOTH",
"36 86 OFFCURVE",
"117 -21 OFFCURVE",
"249 -21 CURVE SMOOTH"
);
},
{
closed = 1;
nodes = (
"290 73 OFFCURVE",
"274 111 OFFCURVE",
"274 173 CURVE SMOOTH",
"274 463 OFFCURVE",
"536 976 OFFCURVE",
"684 976 CURVE SMOOTH",
"733 976 OFFCURVE",
"760 943 OFFCURVE",
"760 882 CURVE SMOOTH",
"760 848 OFFCURVE",
"753 815 OFFCURVE",
"724 737 CURVE SMOOTH",
"611 419 OFFCURVE",
"396 73 OFFCURVE",
"318 73 CURVE SMOOTH"
);
}
);
width = 1095;
}
);
leftKerningGroup = a;
leftMetricsKey = a;
rightKerningGroup = u;
rightMetricsKey = a;
unicode = 0064;
},
{
glyphname = eth;
layers = (
{
background = {
paths = (
{
closed = 1;
nodes = (
"264 50 OFFCURVE",
"235 96 OFFCURVE",
"235 192 CURVE SMOOTH",
"235 506 OFFCURVE",
"557 982 OFFCURVE",
"769 982 CURVE SMOOTH",
"831 982 OFFCURVE",
"862 938 OFFCURVE",
"862 849 CURVE SMOOTH",
"862 554 OFFCURVE",
"522 50 OFFCURVE",
"324 50 CURVE SMOOTH"
);
},
{
closed = 1;
nodes = (
"1048 1132 OFFCURVE",
"945 1461 OFFCURVE",
"560 1620 CURVE",
"532 1569 LINE",
"761 1453 OFFCURVE",
"897 1224 OFFCURVE",
"902 994 CURVE",
"894 994 LINE",
"868 1044 OFFCURVE",
"821 1069 OFFCURVE",
"745 1069 CURVE SMOOTH {name = hr00;}",
"425 1069 OFFCURVE",
"54 656 OFFCURVE",
"54 299 CURVE SMOOTH",
"54 99 OFFCURVE",
"167 -21 OFFCURVE",
"354 -21 CURVE SMOOTH",
"707 -21 OFFCURVE",
"1048 381 OFFCURVE",
"1048 869 CURVE SMOOTH"
);
},
{
closed = 1;
nodes = (
"511 1200 LINE",
"553 1133 LINE",
"1161 1523 LINE",
"1117 1588 LINE"
);
}
);
};
layerId = master01;
paths = (
{
closed = 1;
nodes = (
"594 -21 OFFCURVE",
"880 381 OFFCURVE",
"880 869 CURVE SMOOTH",
"880 1025 OFFCURVE",
"850 1204 OFFCURVE",
"758 1358 CURVE",
"975 1523 LINE",
"938 1588 LINE",
"717 1419 LINE",
"656 1498 OFFCURVE",
"575 1568 OFFCURVE",
"470 1620 CURVE",
"447 1569 LINE",
"529 1520 OFFCURVE",
"598 1450 OFFCURVE",
"648 1367 CURVE",
"429 1200 LINE",
"465 1133 LINE",
"685 1301 LINE",
"730 1207 OFFCURVE",
"755 1100 OFFCURVE",
"758 994 CURVE",
"751 994 LINE",
"729 1044 OFFCURVE",
"690 1069 OFFCURVE",
"626 1069 CURVE SMOOTH",
"357 1069 OFFCURVE",
"45 656 OFFCURVE",
"45 299 CURVE SMOOTH",
"45 99 OFFCURVE",
"140 -21 OFFCURVE",
"297 -21 CURVE SMOOTH"
);
},
{
closed = 1;
nodes = (
"197 506 OFFCURVE",
"468 982 OFFCURVE",
"646 982 CURVE SMOOTH",
"698 982 OFFCURVE",
"724 938 OFFCURVE",
"724 849 CURVE SMOOTH",
"724 554 OFFCURVE",
"438 50 OFFCURVE",
"272 50 CURVE SMOOTH",
"222 50 OFFCURVE",
"197 96 OFFCURVE",
"197 192 CURVE SMOOTH"
);
}
);
width = 914;
},
{
background = {
paths = (
{
closed = 1;
nodes = (
"358 73 OFFCURVE",
"329 122 OFFCURVE",
"329 207 CURVE SMOOTH",
"329 487 OFFCURVE",
"620 975 OFFCURVE",
"785 975 CURVE SMOOTH",
"836 975 OFFCURVE",
"864 928 OFFCURVE",
"864 841 CURVE SMOOTH",
"864 560 OFFCURVE",
"575 73 OFFCURVE",
"410 73 CURVE SMOOTH"
);
},
{
closed = 1;
nodes = (
"55 108 OFFCURVE",
"188 -21 OFFCURVE",
"419 -21 CURVE SMOOTH {name = hr00;}",
"838 -21 OFFCURVE",
"1138 359 OFFCURVE",
"1138 851 CURVE SMOOTH",
"1138 1227 OFFCURVE",
"965 1481 OFFCURVE",
"618 1620 CURVE",
"586 1560 LINE",
"806 1443 OFFCURVE",
"902 1274 OFFCURVE",
"921 971 CURVE",
"907 971 LINE",
"875 1033 OFFCURVE",
"818 1069 OFFCURVE",
"723 1069 CURVE SMOOTH",
"431 1069 OFFCURVE",
"55 709 OFFCURVE",
"55 330 CURVE SMOOTH"
);
},
{
closed = 1;
nodes = (
"564 1217 LINE",
"614 1139 LINE",
"1222 1529 LINE",
"1170 1605 LINE"
);
}
);
};
layerId = "D3934E74-9B53-4E98-B19F-CD3DFEE08352";
paths = (
{
closed = 1;
nodes = (
"695 -21 OFFCURVE",
"956 347 OFFCURVE",
"956 828 CURVE SMOOTH",
"956 1027 OFFCURVE",
"908 1215 OFFCURVE",
"818 1370 CURVE",
"1026 1529 LINE",
"983 1605 LINE",
"765 1439 LINE",
"701 1512 OFFCURVE",
"619 1572 OFFCURVE",
"519 1620 CURVE",
"480 1549 LINE",
"560 1498 OFFCURVE",
"620 1437 OFFCURVE",
"664 1360 CURVE",
"474 1217 LINE",
"516 1139 LINE",
"702 1279 LINE",
"743 1189 OFFCURVE",
"764 1095 OFFCURVE",
"774 971 CURVE",
"762 971 LINE",
"733 1036 OFFCURVE",
"683 1069 OFFCURVE",
"607 1069 CURVE SMOOTH",
"340 1069 OFFCURVE",
"46 682 OFFCURVE",
"46 330 CURVE SMOOTH",
"46 107 OFFCURVE",
"159 -21 OFFCURVE",
"352 -21 CURVE SMOOTH"
);
},
{
closed = 1;
nodes = (
"301 73 OFFCURVE",
"276 121 OFFCURVE",
"276 207 CURVE SMOOTH",
"276 487 OFFCURVE",
"521 975 OFFCURVE",
"659 975 CURVE SMOOTH",
"702 975 OFFCURVE",
"726 928 OFFCURVE",
"726 841 CURVE SMOOTH",
"726 561 OFFCURVE",
"484 73 OFFCURVE",
"344 73 CURVE SMOOTH"
);
}
);
width = 995;
}
);
leftKerningGroup = o;
leftMetricsKey = o;
rightMetricsKey = o;
unicode = 00F0;
},
{
glyphname = dcroat;
layers = (
{
components = (
{
name = d;
}
);
layerId = master01;
paths = (
{
closed = 1;
nodes = (
"1144 1310 LINE",
"1174 1393 LINE",
"696 1393 LINE",
"669 1310 LINE"
);
}
);
width = 1002;
},
{
background = {
paths = (
{
closed = 1;
nodes = (
"1362 1310 LINE",
"1398 1393 LINE",
"829 1393 LINE",
"796 1310 LINE"
);
}
);
};
components = (
{
name = d;
}
);
layerId = "D3934E74-9B53-4E98-B19F-CD3DFEE08352";
paths = (
{
closed = 1;
nodes = (
"1301 1253 LINE",
"1347 1382 LINE",
"811 1382 LINE",
"767 1253 LINE"
);
}
);
width = 1096;
}
);
leftKerningGroup = o;
rightKerningGroup = u;
unicode = 0111;
},
{
glyphname = e;
layers = (
{
anchors = (
{
name = bottom;
position = "{255, 0}";
},
{
name = top;
position = "{727, 1289}";
}
);
background = {
paths = (
{
closed = 1;
nodes = (
"674 -21 OFFCURVE",
"1047 388 OFFCURVE",
"1047 744 CURVE SMOOTH",
"1047 944 OFFCURVE",
"940 1069 OFFCURVE",
"752 1069 CURVE SMOOTH",
"424 1069 OFFCURVE",
"53 659 OFFCURVE",
"53 307 CURVE SMOOTH",
"53 105 OFFCURVE",
"158 -21 OFFCURVE",
"345 -21 CURVE SMOOTH {name = hr00;}"
);
},
{
closed = 1;
nodes = (
"259 50 OFFCURVE",
"234 99 OFFCURVE",
"234 193 CURVE SMOOTH",
"234 503 OFFCURVE",
"567 1000 OFFCURVE",
"775 1000 CURVE SMOOTH",
"843 1000 OFFCURVE",
"871 953 OFFCURVE",
"871 865 CURVE SMOOTH",
"871 572 OFFCURVE",
"520 50 OFFCURVE",
"322 50 CURVE SMOOTH"
);
}
);
};
layerId = master01;
paths = (
{
closed = 1;
nodes = (
"381 -21 OFFCURVE",
"524 83 OFFCURVE",
"659 287 CURVE",
"623 314 LINE",
"526 159 OFFCURVE",
"384 50 OFFCURVE",
"281 50 CURVE SMOOTH",
"216 50 OFFCURVE",
"185 91 OFFCURVE",
"185 182 CURVE SMOOTH",
"185 273 OFFCURVE",
"216 392 OFFCURVE",
"280 532 CURVE",
"612 601 OFFCURVE",
"844 766 OFFCURVE",
"844 933 CURVE SMOOTH",
"844 1018 OFFCURVE",
"783 1069 OFFCURVE",
"685 1069 CURVE SMOOTH {name = hr00;}",
"391 1069 OFFCURVE",
"24 611 OFFCURVE",
"24 248 CURVE SMOOTH",
"24 77 OFFCURVE",
"102 -21 OFFCURVE",
"240 -21 CURVE SMOOTH"
);
},
{
closed = 1;
nodes = (
"369 714 LINE SMOOTH",
"444 883 OFFCURVE",
"568 1008 OFFCURVE",
"658 1008 CURVE SMOOTH",
"695 1008 OFFCURVE",
"712 987 OFFCURVE",
"712 948 CURVE SMOOTH",
"712 812 OFFCURVE",
"522 646 OFFCURVE",
"317 599 CURVE"
);
}
);
width = 811;
},
{
anchors = (
{
name = bottom;
position = "{290, 0}";
},
{
name = top;
position = "{691, 1289}";
}
);
background = {
paths = (
{
closed = 1;
nodes = (
"535 -21 OFFCURVE",
"697 77 OFFCURVE",
"861 287 CURVE",
"818 321 LINE",
"658 147 OFFCURVE",
"542 73 OFFCURVE",
"432 73 CURVE SMOOTH",
"359 73 OFFCURVE",
"319 124 OFFCURVE",
"319 215 CURVE SMOOTH",
"319 326 OFFCURVE",
"375 482 OFFCURVE",
"469 632 CURVE SMOOTH",
"591 828 OFFCURVE",
"708 976 OFFCURVE",
"805 976 CURVE SMOOTH",
"837 976 OFFCURVE",
"854 960 OFFCURVE",
"854 922 CURVE SMOOTH",
"854 791 OFFCURVE",
"648 630 OFFCURVE",
"431 586 CURVE",
"395 512 LINE",
"859 595 OFFCURVE",
"1093 723 OFFCURVE",
"1093 892 CURVE SMOOTH",
"1093 1003 OFFCURVE",
"995 1069 OFFCURVE",
"828 1069 CURVE SMOOTH {name = hr00;}",
"426 1069 OFFCURVE",
"45 691 OFFCURVE",
"45 294 CURVE SMOOTH",
"45 107 OFFCURVE",
"172 -21 OFFCURVE",
"356 -21 CURVE SMOOTH"
);
}
);
};
layerId = "D3934E74-9B53-4E98-B19F-CD3DFEE08352";
paths = (
{
closed = 1;
nodes = (
"449 -21 OFFCURVE",
"585 77 OFFCURVE",
"729 282 CURVE",
"687 321 LINE",
"553 147 OFFCURVE",
"455 73 OFFCURVE",
"363 73 CURVE SMOOTH",
"302 73 OFFCURVE",
"268 124 OFFCURVE",
"268 215 CURVE SMOOTH",
"268 297 OFFCURVE",
"294 403 OFFCURVE",
"339 514 CURVE",
"723 596 OFFCURVE",
"918 724 OFFCURVE",
"918 892 CURVE SMOOTH",
"918 1003 OFFCURVE",
"836 1069 OFFCURVE",
"696 1069 CURVE SMOOTH",
"358 1069 OFFCURVE",
"38 691 OFFCURVE",
"38 294 CURVE SMOOTH",
"38 107 OFFCURVE",
"144 -21 OFFCURVE",
"299 -21 CURVE SMOOTH"
);
},
{
closed = 1;
nodes = (
"394 632 LINE SMOOTH",
"496 828 OFFCURVE",
"595 976 OFFCURVE",
"676 976 CURVE SMOOTH",
"703 976 OFFCURVE",
"717 960 OFFCURVE",
"717 922 CURVE SMOOTH",
"717 793 OFFCURVE",
"551 636 OFFCURVE",
"371 588 CURVE"
);
}
);
width = 911;
}
);
leftKerningGroup = o;
leftMetricsKey = o;
rightKerningGroup = e;
unicode = 0065;
},
{
glyphname = schwa;
layers = (
{
anchors = (
{
name = bottom;
position = "{199, 0}";
},
{
name = top;
position = "{669, 1289}";
}
);
layerId = master01;
paths = (
{
closed = 1;
nodes = (
"378 187 OFFCURVE",
"273 41 OFFCURVE",
"153 41 CURVE SMOOTH",
"116 41 OFFCURVE",
"100 62 OFFCURVE",
"100 101 CURVE SMOOTH",
"100 242 OFFCURVE",
"301 415 OFFCURVE",
"513 455 CURVE",
"554 520 LINE",
"210 455 OFFCURVE",
"-33 287 OFFCURVE",
"-33 117 CURVE SMOOTH",
"-33 31 OFFCURVE",
"28 -21 OFFCURVE",
"127 -21 CURVE {name = hr00;}",
"420 -21 OFFCURVE",
"787 438 OFFCURVE",
"787 801 CURVE SMOOTH",
"787 972 OFFCURVE",
"708 1069 OFFCURVE",
"573 1069 CURVE SMOOTH",
"430 1069 OFFCURVE",
"288 966 OFFCURVE",
"151 762 CURVE",
"187 735 LINE",
"286 890 OFFCURVE",
"427 1000 OFFCURVE",
"531 1000 CURVE SMOOTH",
"595 1000 OFFCURVE",
"627 958 OFFCURVE",
"627 867 CURVE SMOOTH",
"627 772 OFFCURVE",
"592 645 OFFCURVE",
"522 495 CURVE SMOOTH"
);
}
);
width = 811;
},
{
anchors = (
{
name = bottom;
position = "{233, 0}";
},
{
name = top;
position = "{703, 1289}";
}
);
background = {
paths = (
{
closed = 1;
nodes = (
"548 1069 OFFCURVE",
"387 971 OFFCURVE",
"215 766 CURVE",
"266 727 LINE",
"426 900 OFFCURVE",
"541 975 OFFCURVE",
"652 975 CURVE SMOOTH",
"724 975 OFFCURVE",
"764 924 OFFCURVE",
"764 833 CURVE SMOOTH",
"764 751 OFFCURVE",
"733 645 OFFCURVE",
"680 534 CURVE",
"222 451 OFFCURVE",
"-9 324 OFFCURVE",
"-9 155 CURVE SMOOTH",
"-9 45 OFFCURVE",
"89 -21 OFFCURVE",
"255 -21 CURVE SMOOTH",
"657 -21 OFFCURVE",
"1039 357 OFFCURVE",
"1039 754 CURVE SMOOTH",
"1039 941 OFFCURVE",
"912 1069 OFFCURVE",
"728 1069 CURVE SMOOTH"
);
},
{
closed = 1;
nodes = (
"615 416 LINE SMOOTH",
"495 219 OFFCURVE",
"375 71 OFFCURVE",
"279 71 CURVE SMOOTH",
"246 71 OFFCURVE",
"229 88 OFFCURVE",
"229 126 CURVE SMOOTH",
"229 254 OFFCURVE",
"427 412 OFFCURVE",
"641 459 CURVE"
);
}
);
};
layerId = "D3934E74-9B53-4E98-B19F-CD3DFEE08352";
paths = (
{
closed = 1;
nodes = (
"398 191 OFFCURVE",
"316 71 OFFCURVE",
"235 71 CURVE SMOOTH",
"207 71 OFFCURVE",
"193 88 OFFCURVE",
"193 126 CURVE SMOOTH",
"193 263 OFFCURVE",
"381 432 OFFCURVE",
"573 466 CURVE",
"621 545 LINE",
"204 462 OFFCURVE",
"-7 330 OFFCURVE",
"-7 155 CURVE SMOOTH",
"-7 45 OFFCURVE",
"76 -21 OFFCURVE",
"216 -21 CURVE SMOOTH",
"554 -21 OFFCURVE",
"874 357 OFFCURVE",
"874 754 CURVE SMOOTH",
"874 941 OFFCURVE",
"767 1069 OFFCURVE",
"612 1069 CURVE SMOOTH",
"461 1069 OFFCURVE",
"326 971 OFFCURVE",
"181 766 CURVE",
"224 727 LINE",
"359 900 OFFCURVE",
"455 975 OFFCURVE",
"549 975 CURVE SMOOTH",
"609 975 OFFCURVE",
"643 924 OFFCURVE",
"643 833 CURVE SMOOTH",
"643 729 OFFCURVE",
"606 590 OFFCURVE",
"482 354 CURVE SMOOTH"
);
}
);
width = 911;
}
);
leftMetricsKey = "=|e";
rightKerningGroup = o;
rightMetricsKey = "=|e";
unicode = 0259;
},
{
glyphname = f;
layers = (
{
associatedMasterId = master01;
layerId = "802DC178-2968-4689-BA99-BD2290573E1B";
name = "Jan 8 19, 16:47";
paths = (
{
closed = 1;
nodes = (
"593 1168 LINE SMOOTH",
"689 1470 OFFCURVE",
"826 1589 OFFCURVE",
"956 1589 CURVE SMOOTH",
"1016 1589 OFFCURVE",
"1057 1563 OFFCURVE",
"1057 1520 CURVE SMOOTH",
"1057 1490 OFFCURVE",
"1043 1466 OFFCURVE",
"1043 1429 CURVE SMOOTH",
"1043 1377 OFFCURVE",
"1085 1341 OFFCURVE",
"1135 1341 CURVE SMOOTH",
"1195 1341 OFFCURVE",
"1231 1379 OFFCURVE",
"1231 1437 CURVE SMOOTH",
"1231 1555 OFFCURVE",
"1109 1643 OFFCURVE",
"966 1643 CURVE SMOOTH",
"745 1643 OFFCURVE",
"503 1528 OFFCURVE",
"393 1187 CURVE SMOOTH",
"100 283 LINE SMOOTH",
"-79 -271 OFFCURVE",
"-274 -438 OFFCURVE",
"-379 -438 CURVE SMOOTH",
"-484 -438 OFFCURVE",
"-427 -249 OFFCURVE",
"-561 -249 CURVE SMOOTH",
"-618 -249 OFFCURVE",
"-654 -291 OFFCURVE",
"-654 -350 CURVE SMOOTH",
"-654 -444 OFFCURVE",
"-578 -507 OFFCURVE",
"-438 -507 CURVE SMOOTH",
"-161 -507 OFFCURVE",
"129 -302 OFFCURVE",
"351 402 CURVE SMOOTH"
);
},
{
closed = 1;
nodes = (
"189 1049 LINE",
"165 985 LINE",
"748 985 LINE",
"774 1049 LINE"
);
}
);
width = 641;
},
{
associatedMasterId = master01;
layerId = "BAAEB8E4-1D37-4217-9235-A593962F46F4";
name = "Jan 8 19, 16:50";
paths = (
{
closed = 1;
nodes = (
"-184 -507 OFFCURVE",
"58 -229 OFFCURVE",
"328 402 CURVE SMOOTH",
"580 985 LINE",
"772 985 LINE",
"797 1049 LINE {name = hr01;}",
"603 1049 LINE",
"651 1168 LINE SMOOTH",
"770 1464 OFFCURVE",
"883 1589 OFFCURVE",
"1013 1589 CURVE SMOOTH",
"1073 1589 OFFCURVE",
"1115 1563 OFFCURVE",
"1115 1520 CURVE SMOOTH",
"1115 1490 OFFCURVE",
"1101 1466 OFFCURVE",
"1101 1429 CURVE SMOOTH",
"1101 1377 OFFCURVE",
"1142 1341 OFFCURVE",
"1193 1341 CURVE SMOOTH",
"1253 1341 OFFCURVE",
"1289 1379 OFFCURVE",
"1289 1437 CURVE SMOOTH",
"1289 1555 OFFCURVE",
"1166 1643 OFFCURVE",
"1024 1643 CURVE SMOOTH",
"813 1643 OFFCURVE",
"596 1518 OFFCURVE",
"450 1187 CURVE SMOOTH",
"388 1049 LINE {name = hr02;}",
"212 1049 LINE",
"188 985 LINE",
"362 985 LINE",
"77 283 LINE SMOOTH",
"-140 -256 OFFCURVE",
"-297 -438 OFFCURVE",
"-402 -438 CURVE SMOOTH",
"-507 -438 OFFCURVE",
"-450 -261 OFFCURVE",
"-584 -261 CURVE SMOOTH",
"-641 -261 OFFCURVE",
"-677 -291 OFFCURVE",
"-677 -342 CURVE SMOOTH",
"-677 -440 OFFCURVE",
"-594 -507 OFFCURVE",
"-461 -507 CURVE SMOOTH"
);
}
);
width = 641;
},
{
background = {
paths = (
{
closed = 1;
nodes = (
"591 1103 LINE SMOOTH",
"700 1434 OFFCURVE",
"831 1583 OFFCURVE",
"1012 1583 CURVE SMOOTH",
"1086 1583 OFFCURVE",
"1127 1560 OFFCURVE",
"1127 1520 CURVE SMOOTH",
"1127 1490 OFFCURVE",
"1114 1466 OFFCURVE",
"1114 1429 CURVE SMOOTH",
"1114 1377 OFFCURVE",
"1155 1341 OFFCURVE",
"1206 1341 CURVE SMOOTH",
"1265 1341 OFFCURVE",
"1301 1379 OFFCURVE",
"1301 1437 CURVE SMOOTH",
"1301 1557 OFFCURVE",
"1178 1643 OFFCURVE",
"1008 1643 CURVE SMOOTH",
"715 1643 OFFCURVE",
"503 1460 OFFCURVE",
"383 1103 CURVE SMOOTH",
"108 283 LINE SMOOTH",
"-36 -144 OFFCURVE",
"-241 -440 OFFCURVE",
"-394 -440 CURVE SMOOTH",
"-499 -440 OFFCURVE",
"-438 -249 OFFCURVE",
"-571 -249 CURVE SMOOTH",
"-629 -249 OFFCURVE",
"-664 -291 OFFCURVE",
"-664 -350 CURVE SMOOTH",
"-664 -442 OFFCURVE",
"-587 -507 OFFCURVE",
"-448 -507 CURVE SMOOTH",
"-109 -507 OFFCURVE",
"159 -205 OFFCURVE",
"359 402 CURVE SMOOTH"
);
},
{
closed = 1;
nodes = (
"202 1049 LINE",
"177 985 LINE",
"761 985 LINE",
"786 1049 LINE"
);
}
);
};
layerId = master01;
paths = (
{
closed = 1;
nodes = (
"508 1103 LINE SMOOTH",
"602 1430 OFFCURVE",
"710 1583 OFFCURVE",
"862 1583 CURVE SMOOTH",
"924 1583 OFFCURVE",
"958 1560 OFFCURVE",
"958 1520 CURVE SMOOTH",
"958 1490 OFFCURVE",
"947 1466 OFFCURVE",
"947 1429 CURVE SMOOTH",
"947 1377 OFFCURVE",
"982 1341 OFFCURVE",
"1024 1341 CURVE SMOOTH",
"1074 1341 OFFCURVE",
"1105 1379 OFFCURVE",
"1105 1437 CURVE SMOOTH",
"1105 1557 OFFCURVE",
"1001 1643 OFFCURVE",
"858 1643 CURVE SMOOTH",
"612 1643 OFFCURVE",
"439 1458 OFFCURVE",
"333 1103 CURVE SMOOTH",
"91 283 LINE SMOOTH",
"-34 -140 OFFCURVE",
"-202 -440 OFFCURVE",
"-331 -440 CURVE SMOOTH",
"-419 -440 OFFCURVE",
"-368 -249 OFFCURVE",
"-480 -249 CURVE SMOOTH",
"-528 -249 OFFCURVE",
"-558 -291 OFFCURVE",
"-558 -350 CURVE SMOOTH",
"-558 -442 OFFCURVE",
"-493 -507 OFFCURVE",
"-376 -507 CURVE SMOOTH",
"-92 -507 OFFCURVE",
"130 -198 OFFCURVE",
"305 402 CURVE SMOOTH"
);
},
{
closed = 1;
nodes = (
"181 1049 LINE",
"160 985 LINE",
"651 985 LINE",
"672 1049 LINE"
);
}
);
width = 528;
},
{
associatedMasterId = master01;
layerId = "CCA3CB14-3C2A-4D99-A472-E35F3E3F9C8D";
name = "Jan 9 19, 10:01";
paths = (
{
closed = 1;
nodes = (
"605 1168 LINE SMOOTH",
"709 1469 OFFCURVE",
"844 1589 OFFCURVE",
"979 1589 CURVE SMOOTH",
"1070 1589 OFFCURVE",
"1115 1563 OFFCURVE",
"1115 1520 CURVE SMOOTH",
"1115 1490 OFFCURVE",
"1101 1466 OFFCURVE",
"1101 1429 CURVE SMOOTH",
"1101 1377 OFFCURVE",
"1142 1341 OFFCURVE",
"1193 1341 CURVE SMOOTH",
"1253 1341 OFFCURVE",
"1289 1379 OFFCURVE",
"1289 1437 CURVE SMOOTH",
"1289 1555 OFFCURVE",
"1162 1643 OFFCURVE",
"989 1643 CURVE SMOOTH",
"763 1643 OFFCURVE",
"523 1527 OFFCURVE",
"404 1187 CURVE SMOOTH",
"100 283 LINE SMOOTH",
"-92 -266 OFFCURVE",
"-274 -438 OFFCURVE",
"-379 -438 CURVE SMOOTH",
"-484 -438 OFFCURVE",
"-427 -249 OFFCURVE",
"-561 -249 CURVE SMOOTH",
"-618 -249 OFFCURVE",
"-654 -291 OFFCURVE",
"-654 -350 CURVE SMOOTH",
"-654 -444 OFFCURVE",
"-578 -507 OFFCURVE",
"-438 -507 CURVE SMOOTH",
"-161 -507 OFFCURVE",
"111 -295 OFFCURVE",
"351 402 CURVE SMOOTH"
);
},
{
closed = 1;
nodes = (
"189 1049 LINE",
"165 985 LINE",
"748 985 LINE",
"774 1049 LINE"
);
}
);
width = 641;
},
{
associatedMasterId = "D3934E74-9B53-4E98-B19F-CD3DFEE08352";
layerId = "335FD8BD-4664-4E45-A52E-9C4646E9ABE7";
name = "Jan 8 19, 16:47";
paths = (
{
closed = 1;
nodes = (
"593 1168 LINE SMOOTH",
"689 1470 OFFCURVE",
"826 1589 OFFCURVE",
"956 1589 CURVE SMOOTH",
"1016 1589 OFFCURVE",
"1057 1563 OFFCURVE",
"1057 1520 CURVE SMOOTH",
"1057 1490 OFFCURVE",
"1043 1466 OFFCURVE",
"1043 1429 CURVE SMOOTH",
"1043 1377 OFFCURVE",
"1085 1341 OFFCURVE",
"1135 1341 CURVE SMOOTH",
"1195 1341 OFFCURVE",
"1231 1379 OFFCURVE",
"1231 1437 CURVE SMOOTH",
"1231 1555 OFFCURVE",
"1109 1643 OFFCURVE",
"966 1643 CURVE SMOOTH",
"745 1643 OFFCURVE",
"503 1528 OFFCURVE",
"393 1187 CURVE SMOOTH",
"100 283 LINE SMOOTH",
"-79 -271 OFFCURVE",
"-274 -438 OFFCURVE",
"-379 -438 CURVE SMOOTH",
"-484 -438 OFFCURVE",
"-427 -249 OFFCURVE",
"-561 -249 CURVE SMOOTH",
"-618 -249 OFFCURVE",
"-654 -291 OFFCURVE",
"-654 -350 CURVE SMOOTH",
"-654 -444 OFFCURVE",
"-578 -507 OFFCURVE",
"-438 -507 CURVE SMOOTH",
"-161 -507 OFFCURVE",
"129 -302 OFFCURVE",
"351 402 CURVE SMOOTH"
);
},
{
closed = 1;
nodes = (
"189 1049 LINE",
"165 985 LINE",
"748 985 LINE",
"774 1049 LINE"
);
}
);
width = 641;
},
{
associatedMasterId = "D3934E74-9B53-4E98-B19F-CD3DFEE08352";
layerId = "139B72F1-E750-4A89-A3EA-1049FF8FCD72";
name = "Jan 8 19, 16:50";
paths = (
{
closed = 1;
nodes = (
"-184 -507 OFFCURVE",
"58 -229 OFFCURVE",
"328 402 CURVE SMOOTH",
"580 985 LINE",
"772 985 LINE",
"797 1049 LINE {name = hr01;}",
"603 1049 LINE",
"651 1168 LINE SMOOTH",
"770 1464 OFFCURVE",
"883 1589 OFFCURVE",
"1013 1589 CURVE SMOOTH",
"1073 1589 OFFCURVE",
"1115 1563 OFFCURVE",
"1115 1520 CURVE SMOOTH",
"1115 1490 OFFCURVE",
"1101 1466 OFFCURVE",
"1101 1429 CURVE SMOOTH",
"1101 1377 OFFCURVE",
"1142 1341 OFFCURVE",
"1193 1341 CURVE SMOOTH",
"1253 1341 OFFCURVE",
"1289 1379 OFFCURVE",
"1289 1437 CURVE SMOOTH",
"1289 1555 OFFCURVE",
"1166 1643 OFFCURVE",
"1024 1643 CURVE SMOOTH",
"813 1643 OFFCURVE",
"596 1518 OFFCURVE",
"450 1187 CURVE SMOOTH",
"388 1049 LINE {name = hr02;}",
"212 1049 LINE",
"188 985 LINE",
"362 985 LINE",
"77 283 LINE SMOOTH",
"-140 -256 OFFCURVE",
"-297 -438 OFFCURVE",
"-402 -438 CURVE SMOOTH",
"-507 -438 OFFCURVE",
"-450 -261 OFFCURVE",
"-584 -261 CURVE SMOOTH",
"-641 -261 OFFCURVE",
"-677 -291 OFFCURVE",
"-677 -342 CURVE SMOOTH",
"-677 -440 OFFCURVE",
"-594 -507 OFFCURVE",
"-461 -507 CURVE SMOOTH"
);
}
);
width = 641;
},
{
layerId = "D3934E74-9B53-4E98-B19F-CD3DFEE08352";
paths = (
{
closed = 1;
nodes = (
"568 1031 LINE SMOOTH",
"684 1420 OFFCURVE",
"765 1551 OFFCURVE",
"890 1551 CURVE SMOOTH",
"944 1551 OFFCURVE",
"983 1527 OFFCURVE",
"983 1489 CURVE SMOOTH",
"983 1462 OFFCURVE",
"968 1430 OFFCURVE",
"968 1394 CURVE SMOOTH",
"968 1343 OFFCURVE",
"1000 1298 OFFCURVE",
"1065 1298 CURVE SMOOTH",
"1136 1298 OFFCURVE",
"1169 1351 OFFCURVE",
"1169 1416 CURVE SMOOTH",
"1169 1536 OFFCURVE",
"1065 1643 OFFCURVE",
"892 1643 CURVE SMOOTH",
"663 1643 OFFCURVE",
"446 1467 OFFCURVE",
"317 1034 CURVE SMOOTH",
"56 164 LINE SMOOTH",
"-81 -297 OFFCURVE",
"-159 -412 OFFCURVE",
"-249 -415 CURVE SMOOTH",
"-365 -418 OFFCURVE",
"-300 -195 OFFCURVE",
"-430 -195 CURVE SMOOTH",
"-497 -195 OFFCURVE",
"-538 -256 OFFCURVE",
"-538 -322 CURVE SMOOTH",
"-538 -432 OFFCURVE",
"-423 -507 OFFCURVE",
"-297 -507 CURVE SMOOTH",
"-61 -507 OFFCURVE",
"186 -254 OFFCURVE",
"344 279 CURVE SMOOTH"
);
},
{
closed = 1;
nodes = (
"189 1049 LINE",
"161 963 LINE",
"717 963 LINE",
"746 1049 LINE"
);
}
);
width = 612;
},
{
associatedMasterId = "D3934E74-9B53-4E98-B19F-CD3DFEE08352";
layerId = "CB55ACAE-54BA-4AF0-B4E6-5A087A0430E7";
name = "Jan 9 19, 10:01";
paths = (
{
closed = 1;
nodes = (
"605 1168 LINE SMOOTH",
"709 1469 OFFCURVE",
"844 1589 OFFCURVE",
"979 1589 CURVE SMOOTH",
"1070 1589 OFFCURVE",
"1115 1563 OFFCURVE",
"1115 1520 CURVE SMOOTH",
"1115 1490 OFFCURVE",
"1101 1466 OFFCURVE",
"1101 1429 CURVE SMOOTH",
"1101 1377 OFFCURVE",
"1142 1341 OFFCURVE",
"1193 1341 CURVE SMOOTH",
"1253 1341 OFFCURVE",
"1289 1379 OFFCURVE",
"1289 1437 CURVE SMOOTH",
"1289 1555 OFFCURVE",
"1162 1643 OFFCURVE",
"989 1643 CURVE SMOOTH",
"763 1643 OFFCURVE",
"523 1527 OFFCURVE",
"404 1187 CURVE SMOOTH",
"100 283 LINE SMOOTH",
"-92 -266 OFFCURVE",
"-274 -438 OFFCURVE",
"-379 -438 CURVE SMOOTH",
"-484 -438 OFFCURVE",
"-427 -249 OFFCURVE",
"-561 -249 CURVE SMOOTH",
"-618 -249 OFFCURVE",
"-654 -291 OFFCURVE",
"-654 -350 CURVE SMOOTH",
"-654 -444 OFFCURVE",
"-578 -507 OFFCURVE",
"-438 -507 CURVE SMOOTH",
"-161 -507 OFFCURVE",
"111 -295 OFFCURVE",
"351 402 CURVE SMOOTH"
);
},
{
closed = 1;
nodes = (
"189 1049 LINE",
"165 985 LINE",
"748 985 LINE",
"774 1049 LINE"
);
}
);
width = 641;
}
);
leftKerningGroup = f;
rightKerningGroup = f;
unicode = 0066;
},
{
glyphname = g;
layers = (
{
anchors = (
{
name = top;
position = "{568, 1289}";
}
);
background = {
paths = (
{
closed = 1;
nodes = (
"496 -21 OFFCURVE",
"869 388 OFFCURVE",
"869 744 CURVE SMOOTH",
"869 944 OFFCURVE",
"762 1069 OFFCURVE",
"575 1069 CURVE SMOOTH",
"246 1069 OFFCURVE",
"-124 659 OFFCURVE",
"-124 307 CURVE SMOOTH",
"-124 105 OFFCURVE",
"-20 -21 OFFCURVE",
"168 -21 CURVE SMOOTH {name = hr00;}"
);
},
{
closed = 1;
nodes = (
"82 50 OFFCURVE",
"56 99 OFFCURVE",
"56 193 CURVE SMOOTH",
"56 503 OFFCURVE",
"389 1000 OFFCURVE",
"598 1000 CURVE SMOOTH",
"666 1000 OFFCURVE",
"693 953 OFFCURVE",
"693 865 CURVE SMOOTH",
"693 572 OFFCURVE",
"343 50 OFFCURVE",
"145 50 CURVE SMOOTH"
);
}
);
};
layerId = master01;
paths = (
{
closed = 1;
nodes = (
"697 958 LINE",
"733 1025 OFFCURVE",
"766 1051 OFFCURVE",
"811 1051 CURVE SMOOTH",
"852 1051 OFFCURVE",
"863 996 OFFCURVE",
"911 996 CURVE SMOOTH",
"949 996 OFFCURVE",
"981 1031 OFFCURVE",
"981 1076 CURVE SMOOTH",
"981 1130 OFFCURVE",
"944 1175 OFFCURVE",
"887 1175 CURVE SMOOTH",
"816 1175 OFFCURVE",
"733 1137 OFFCURVE",
"662 1008 CURVE"
);
},
{
closed = 1;
nodes = (
"76 -448 OFFCURVE",
"-36 -359 OFFCURVE",
"-36 -212 CURVE SMOOTH",
"-36 -89 OFFCURVE",
"43 13 OFFCURVE",
"150 13 CURVE SMOOTH {name = hr04;}",
"165 13 OFFCURVE",
"178 9 OFFCURVE",
"202 0 CURVE SMOOTH",
"415 -85 LINE SMOOTH",
"486 -114 OFFCURVE",
"538 -182 OFFCURVE",
"538 -248 CURVE SMOOTH",
"538 -362 OFFCURVE",
"419 -448 OFFCURVE",
"248 -448 CURVE SMOOTH"
);
},
{
closed = 1;
nodes = (
"332 432 OFFCURVE",
"296 491 OFFCURVE",
"296 594 CURVE SMOOTH",
"296 788 OFFCURVE",
"427 995 OFFCURVE",
"545 995 CURVE SMOOTH",
"609 995 OFFCURVE",
"634 953 OFFCURVE",
"634 862 CURVE SMOOTH",
"634 646 OFFCURVE",
"517 432 OFFCURVE",
"395 432 CURVE SMOOTH"
);
},
{
closed = 1;
nodes = (
"485 -507 OFFCURVE",
"671 -370 OFFCURVE",
"671 -182 CURVE SMOOTH",
"671 -68 OFFCURVE",
"602 32 OFFCURVE",
"497 75 CURVE SMOOTH",
"237 180 LINE SMOOTH",
"181 203 OFFCURVE",
"154 235 OFFCURVE",
"154 281 CURVE SMOOTH {name = hr01;}",
"154 339 OFFCURVE",
"202 370 OFFCURVE",
"306 370 CURVE SMOOTH",
"347 370 OFFCURVE",
"401 364 OFFCURVE",
"435 364 CURVE SMOOTH",
"631 364 OFFCURVE",
"783 525 OFFCURVE",
"783 744 CURVE SMOOTH",
"783 951 OFFCURVE",
"679 1069 OFFCURVE",
"526 1069 CURVE SMOOTH",
"313 1069 OFFCURVE",
"155 890 OFFCURVE",
"155 692 CURVE SMOOTH {name = hr02;}",
"155 587 OFFCURVE",
"193 503 OFFCURVE",
"274 435 CURVE",
"272 427 LINE",
"117 427 OFFCURVE",
"25 352 OFFCURVE",
"25 229 CURVE SMOOTH",
"25 167 OFFCURVE",
"51 105 OFFCURVE",
"97 63 CURVE",
"-62 63 OFFCURVE",
"-181 -55 OFFCURVE",
"-181 -208 CURVE SMOOTH",
"-181 -388 OFFCURVE",
"-17 -507 OFFCURVE",
"224 -507 CURVE SMOOTH"
);
}
);
width = 848;
},
{
anchors = (
{
name = top;
position = "{780, 1289}";
}
);
associatedMasterId = master01;
layerId = "B5BF7713-81A1-41A7-92F7-04D8C14707DA";
name = "Jan 9 19, 13:59";
paths = (
{
closed = 1;
nodes = (
"565 -507 OFFCURVE",
"788 -370 OFFCURVE",
"788 -182 CURVE SMOOTH",
"788 -68 OFFCURVE",
"706 31 OFFCURVE",
"580 75 CURVE SMOOTH",
"271 180 LINE SMOOTH",
"204 203 OFFCURVE",
"172 235 OFFCURVE",
"172 281 CURVE SMOOTH {name = hr01;}",
"172 339 OFFCURVE",
"229 370 OFFCURVE",
"352 370 CURVE SMOOTH",
"402 370 OFFCURVE",
"465 364 OFFCURVE",
"507 364 CURVE SMOOTH",
"735 364 OFFCURVE",
"920 534 OFFCURVE",
"920 744 CURVE SMOOTH",
"920 797 OFFCURVE",
"912 837 OFFCURVE",
"883 898 CURVE",
"896 927 OFFCURVE",
"927 945 OFFCURVE",
"953 945 CURVE SMOOTH",
"1003 945 OFFCURVE",
"1016 890 OFFCURVE",
"1073 890 CURVE SMOOTH",
"1118 890 OFFCURVE",
"1156 925 OFFCURVE",
"1156 970 CURVE SMOOTH",
"1156 1024 OFFCURVE",
"1112 1069 OFFCURVE",
"1044 1069 CURVE SMOOTH",
"982 1069 OFFCURVE",
"914 1029 OFFCURVE",
"845 948 CURVE",
"780 1029 OFFCURVE",
"696 1069 OFFCURVE",
"588 1069 CURVE SMOOTH",
"362 1069 OFFCURVE",
"168 895 OFFCURVE",
"168 697 CURVE SMOOTH {name = hr02;}",
"168 592 OFFCURVE",
"219 503 OFFCURVE",
"314 435 CURVE",
"312 427 LINE",
"128 427 OFFCURVE",
"18 352 OFFCURVE",
"18 229 CURVE SMOOTH",
"18 167 OFFCURVE",
"50 105 OFFCURVE",
"105 63 CURVE",
"-85 63 OFFCURVE",
"-227 -55 OFFCURVE",
"-227 -208 CURVE SMOOTH",
"-227 -388 OFFCURVE",
"-31 -507 OFFCURVE",
"256 -507 CURVE SMOOTH"
);
},
{
closed = 1;
nodes = (
"78 -448 OFFCURVE",
"-54 -359 OFFCURVE",
"-54 -212 CURVE SMOOTH",
"-54 -89 OFFCURVE",
"39 13 OFFCURVE",
"167 13 CURVE SMOOTH {name = hr04;}",
"185 13 OFFCURVE",
"200 10 OFFCURVE",
"229 0 CURVE SMOOTH",
"482 -85 LINE SMOOTH",
"568 -115 OFFCURVE",
"630 -182 OFFCURVE",
"630 -248 CURVE SMOOTH",
"630 -362 OFFCURVE",
"487 -448 OFFCURVE",
"283 -448 CURVE SMOOTH"
);
},
{
closed = 1;
nodes = (
"383 432 OFFCURVE",
"341 491 OFFCURVE",
"341 594 CURVE SMOOTH",
"341 778 OFFCURVE",
"507 995 OFFCURVE",
"638 995 CURVE SMOOTH",
"714 995 OFFCURVE",
"744 953 OFFCURVE",
"744 862 CURVE SMOOTH",
"744 646 OFFCURVE",
"603 432 OFFCURVE",
"458 432 CURVE SMOOTH"
);
}
);
width = 1043;
},
{
anchors = (
{
name = top;
position = "{695, 1289}";
}
);
background = {
paths = (
{
closed = 1;
nodes = (
"707 986 OFFCURVE",
"740 929 OFFCURVE",
"740 830 CURVE SMOOTH",
"740 648 OFFCURVE",
"610 448 OFFCURVE",
"532 448 CURVE SMOOTH",
"499 448 OFFCURVE",
"469 497 OFFCURVE",
"469 603 CURVE SMOOTH",
"469 785 OFFCURVE",
"576 986 OFFCURVE",
"661 986 CURVE SMOOTH"
);
}
);
};
layerId = "D3934E74-9B53-4E98-B19F-CD3DFEE08352";
paths = (
{
closed = 1;
nodes = (
"755 956 LINE",
"794 1014 OFFCURVE",
"822 1039 OFFCURVE",
"850 1039 CURVE",
"907 1039 OFFCURVE",
"902 938 OFFCURVE",
"984 938 CURVE",
"1043 938 OFFCURVE",
"1079 989 OFFCURVE",
"1079 1052 CURVE",
"1079 1130 OFFCURVE",
"1027 1186 OFFCURVE",
"953 1186 CURVE",
"874 1186 OFFCURVE",
"784 1122 OFFCURVE",
"711 1005 CURVE"
);
},
{
closed = 1;
nodes = (
"140 -403 OFFCURVE",
"25 -319 OFFCURVE",
"25 -189 CURVE",
"25 -91 OFFCURVE",
"107 6 OFFCURVE",
"155 6 CURVE",
"171 6 OFFCURVE",
"191 -2 OFFCURVE",
"223 -17 CURVE",
"333 -70 LINE",
"438 -120 OFFCURVE",
"496 -164 OFFCURVE",
"496 -233 CURVE",
"496 -324 OFFCURVE",
"396 -403 OFFCURVE",
"270 -403 CURVE"
);
},
{
closed = 1;
nodes = (
"402 459 OFFCURVE",
"375 516 OFFCURVE",
"375 615 CURVE",
"375 797 OFFCURVE",
"484 997 OFFCURVE",
"573 997 CURVE",
"617 997 OFFCURVE",
"641 948 OFFCURVE",
"641 849 CURVE",
"641 660 OFFCURVE",
"551 459 OFFCURVE",
"454 459 CURVE"
);
},
{
closed = 1;
nodes = (
"531 -495 OFFCURVE",
"723 -356 OFFCURVE",
"723 -160 CURVE SMOOTH",
"723 -43 OFFCURVE",
"652 32 OFFCURVE",
"523 92 CURVE SMOOTH",
"356 170 LINE SMOOTH",
"257 216 OFFCURVE",
"234 254 OFFCURVE",
"234 296 CURVE SMOOTH {name = hr01;}",
"234 357 OFFCURVE",
"282 386 OFFCURVE",
"360 381 CURVE SMOOTH",
"381 380 OFFCURVE",
"407 377 OFFCURVE",
"459 377 CURVE SMOOTH {name = hr00;}",
"704 377 OFFCURVE",
"869 515 OFFCURVE",
"869 729 CURVE SMOOTH",
"869 924 OFFCURVE",
"730 1080 OFFCURVE",
"529 1080 CURVE SMOOTH",
"315 1080 OFFCURVE",
"141 906 OFFCURVE",
"141 716 CURVE SMOOTH",
"141 615 OFFCURVE",
"191 523 OFFCURVE",
"281 456 CURVE",
"276 447 LINE",
"134 434 OFFCURVE",
"38 357 OFFCURVE",
"38 231 CURVE SMOOTH",
"38 168 OFFCURVE",
"63 111 OFFCURVE",
"110 63 CURVE",
"-64 59 OFFCURVE",
"-209 -41 OFFCURVE",
"-209 -197 CURVE SMOOTH",
"-209 -377 OFFCURVE",
"-11 -495 OFFCURVE",
"248 -495 CURVE SMOOTH"
);
}
);
width = 951;
},
{
anchors = (
{
name = top;
position = "{780, 1289}";
}
);
associatedMasterId = "D3934E74-9B53-4E98-B19F-CD3DFEE08352";
layerId = "99424A7E-43A4-470D-AA80-DBD7DD0D598D";
name = "Jan 9 19, 13:59";
paths = (
{
closed = 1;
nodes = (
"565 -507 OFFCURVE",
"788 -370 OFFCURVE",
"788 -182 CURVE SMOOTH",
"788 -68 OFFCURVE",
"706 31 OFFCURVE",
"580 75 CURVE SMOOTH",
"271 180 LINE SMOOTH",
"204 203 OFFCURVE",
"172 235 OFFCURVE",
"172 281 CURVE SMOOTH {name = hr01;}",
"172 339 OFFCURVE",
"229 370 OFFCURVE",
"352 370 CURVE SMOOTH",
"402 370 OFFCURVE",
"465 364 OFFCURVE",
"507 364 CURVE SMOOTH",
"735 364 OFFCURVE",
"920 534 OFFCURVE",
"920 744 CURVE SMOOTH",
"920 797 OFFCURVE",
"912 837 OFFCURVE",
"883 898 CURVE",
"896 927 OFFCURVE",
"927 945 OFFCURVE",
"953 945 CURVE SMOOTH",
"1003 945 OFFCURVE",
"1016 890 OFFCURVE",
"1073 890 CURVE SMOOTH",
"1118 890 OFFCURVE",
"1156 925 OFFCURVE",
"1156 970 CURVE SMOOTH",
"1156 1024 OFFCURVE",
"1112 1069 OFFCURVE",
"1044 1069 CURVE SMOOTH",
"982 1069 OFFCURVE",
"914 1029 OFFCURVE",
"845 948 CURVE",
"780 1029 OFFCURVE",
"696 1069 OFFCURVE",
"588 1069 CURVE SMOOTH",
"362 1069 OFFCURVE",
"168 895 OFFCURVE",
"168 697 CURVE SMOOTH {name = hr02;}",
"168 592 OFFCURVE",
"219 503 OFFCURVE",
"314 435 CURVE",
"312 427 LINE",
"128 427 OFFCURVE",
"18 352 OFFCURVE",
"18 229 CURVE SMOOTH",
"18 167 OFFCURVE",
"50 105 OFFCURVE",
"105 63 CURVE",
"-85 63 OFFCURVE",
"-227 -55 OFFCURVE",
"-227 -208 CURVE SMOOTH",
"-227 -388 OFFCURVE",
"-31 -507 OFFCURVE",
"256 -507 CURVE SMOOTH"
);
},
{
closed = 1;
nodes = (
"78 -448 OFFCURVE",
"-54 -359 OFFCURVE",
"-54 -212 CURVE SMOOTH",
"-54 -89 OFFCURVE",
"39 13 OFFCURVE",
"167 13 CURVE SMOOTH {name = hr04;}",
"185 13 OFFCURVE",
"200 10 OFFCURVE",
"229 0 CURVE SMOOTH",
"482 -85 LINE SMOOTH",
"568 -115 OFFCURVE",
"630 -182 OFFCURVE",
"630 -248 CURVE SMOOTH",
"630 -362 OFFCURVE",
"487 -448 OFFCURVE",
"283 -448 CURVE SMOOTH"
);
},
{
closed = 1;
nodes = (
"383 432 OFFCURVE",
"341 491 OFFCURVE",
"341 594 CURVE SMOOTH",
"341 778 OFFCURVE",
"507 995 OFFCURVE",
"638 995 CURVE SMOOTH",
"714 995 OFFCURVE",
"744 953 OFFCURVE",
"744 862 CURVE SMOOTH",
"744 646 OFFCURVE",
"603 432 OFFCURVE",
"458 432 CURVE SMOOTH"
);
}
);
width = 1043;
}
);
leftKerningGroup = g;
rightKerningGroup = g;
unicode = 0067;
},
{
glyphname = h;
layers = (
{
anchors = (
{
name = bottom;
position = "{270, 0}";
},
{
name = top;
position = "{858, 1289}";
}
);
background = {
paths = (
{
closed = 1;
nodes = (
"755 -21 OFFCURVE",
"890 70 OFFCURVE",
"1031 245 CURVE",
"989 275 LINE",
"888 162 OFFCURVE",
"804 97 OFFCURVE",
"758 97 CURVE SMOOTH {name = hr01;}",
"742 97 OFFCURVE",
"734 105 OFFCURVE",
"734 124 CURVE SMOOTH",
"734 146 OFFCURVE",
"750 192 OFFCURVE",
"773 240 CURVE SMOOTH",
"1005 713 LINE SMOOTH",
"1039 780 OFFCURVE",
"1054 837 OFFCURVE",
"1054 895 CURVE SMOOTH",
"1054 1008 OFFCURVE",
"994 1067 OFFCURVE",
"874 1067 CURVE SMOOTH",
"728 1067 OFFCURVE",
"599 976 OFFCURVE",
"430 752 CURVE",
"421 755 LINE",
"484 873 OFFCURVE",
"508 936 OFFCURVE",
"508 989 CURVE SMOOTH",
"508 1044 OFFCURVE",
"480 1069 OFFCURVE",
"413 1069 CURVE SMOOTH",
"287 1069 OFFCURVE",
"140 982 OFFCURVE",
"39 843 CURVE {name = hr03;}",
"79 812 LINE",
"160 912 OFFCURVE",
"243 980 OFFCURVE",
"288 980 CURVE SMOOTH",
"309 980 OFFCURVE",
"317 968 OFFCURVE",
"317 950 CURVE SMOOTH",
"317 937 OFFCURVE",
"309 917 OFFCURVE",
"294 883 CURVE SMOOTH",
"-86 0 LINE",
"106 0 LINE",
"290 383 LINE SMOOTH",
"461 738 OFFCURVE",
"684 1000 OFFCURVE",
"819 1000 CURVE SMOOTH {name = hr02;}",
"859 1000 OFFCURVE",
"882 978 OFFCURVE",
"882 940 CURVE SMOOTH",
"882 911 OFFCURVE",
"871 873 OFFCURVE",
"857 845 CURVE SMOOTH",
"587 312 LINE SMOOTH",
"541 221 OFFCURVE",
"516 140 OFFCURVE",
"516 85 CURVE SMOOTH",
"516 16 OFFCURVE",
"556 -21 OFFCURVE",
"632 -21 CURVE SMOOTH"
);
}
);
};
layerId = master01;
paths = (
{
closed = 1;
nodes = (
"637 -21 OFFCURVE",
"749 71 OFFCURVE",
"862 245 CURVE",
"828 275 LINE",
"748 168 OFFCURVE",
"675 97 OFFCURVE",
"638 97 CURVE SMOOTH",
"623 97 OFFCURVE",
"613 107 OFFCURVE",
"613 127 CURVE SMOOTH",
"613 151 OFFCURVE",
"625 185 OFFCURVE",
"647 240 CURVE SMOOTH",
"842 713 LINE SMOOTH",
"874 793 OFFCURVE",
"886 857 OFFCURVE",
"886 911 CURVE SMOOTH",
"886 1011 OFFCURVE",
"824 1067 OFFCURVE",
"733 1067 CURVE SMOOTH",
"608 1067 OFFCURVE",
"500 976 OFFCURVE",
"361 752 CURVE",
"352 755 LINE",
"669 1622 LINE",
"350 1622 LINE",
"354 1594 LINE {name = hr02;}",
"480 1569 LINE",
"-66 0 LINE",
"90 0 LINE",
"241 383 LINE SMOOTH",
"379 734 OFFCURVE",
"577 1000 OFFCURVE",
"690 1000 CURVE SMOOTH",
"722 1000 OFFCURVE",
"738 980 OFFCURVE",
"738 944 CURVE SMOOTH",
"738 917 OFFCURVE",
"730 883 OFFCURVE",
"715 845 CURVE SMOOTH",
"492 312 LINE SMOOTH",
"454 221 OFFCURVE",
"433 149 OFFCURVE",
"433 94 CURVE SMOOTH",
"433 18 OFFCURVE",
"460 -21 OFFCURVE",
"532 -21 CURVE SMOOTH {name = hr01;}"
);
}
);
width = 954;
},
{
anchors = (
{
name = bottom;
position = "{369, 0}";
},
{
name = top;
position = "{946, 1289}";
}
);
background = {
paths = (
{
closed = 1;
nodes = (
"866 -21 OFFCURVE",
"994 58 OFFCURVE",
"1161 251 CURVE",
"1105 284 LINE",
"970 144 OFFCURVE",
"903 91 OFFCURVE",
"862 91 CURVE SMOOTH {name = hr01;}",
"846 91 OFFCURVE",
"838 99 OFFCURVE",
"838 115 CURVE SMOOTH",
"838 130 OFFCURVE",
"846 154 OFFCURVE",
"861 184 CURVE SMOOTH",
"1124 712 LINE SMOOTH",
"1150 763 OFFCURVE",
"1164 820 OFFCURVE",
"1164 876 CURVE SMOOTH",
"1164 1000 OFFCURVE",
"1095 1067 OFFCURVE",
"973 1067 CURVE SMOOTH",
"824 1067 OFFCURVE",
"697 970 OFFCURVE",
"523 720 CURVE",
"510 723 LINE",
"567 845 OFFCURVE",
"587 909 OFFCURVE",
"587 959 CURVE SMOOTH",
"587 1034 OFFCURVE",
"544 1069 OFFCURVE",
"444 1069 CURVE SMOOTH",
"295 1069 OFFCURVE",
"143 991 OFFCURVE",
"28 856 CURVE {name = hr03;}",
"81 813 LINE",
"140 888 OFFCURVE",
"253 968 OFFCURVE",
"299 968 CURVE SMOOTH",
"312 968 OFFCURVE",
"317 964 OFFCURVE",
"317 953 CURVE SMOOTH",
"317 945 OFFCURVE",
"314 934 OFFCURVE",
"305 912 CURVE SMOOTH",
"-67 0 LINE",
"222 0 LINE",
"410 412 LINE SMOOTH",
"512 638 OFFCURVE",
"792 976 OFFCURVE",
"876 976 CURVE SMOOTH {name = hr02;}",
"896 976 OFFCURVE",
"907 963 OFFCURVE",
"907 940 CURVE SMOOTH",
"907 919 OFFCURVE",
"899 892 OFFCURVE",
"881 854 CURVE SMOOTH",
"636 350 LINE SMOOTH",
"590 256 OFFCURVE",
"565 177 OFFCURVE",
"565 114 CURVE SMOOTH",
"565 22 OFFCURVE",
"617 -21 OFFCURVE",
"729 -21 CURVE SMOOTH"
);
}
);
};
layerId = "D3934E74-9B53-4E98-B19F-CD3DFEE08352";
paths = (
{
closed = 1;
nodes = (
"732 -21 OFFCURVE",
"841 66 OFFCURVE",
"975 251 CURVE",
"928 284 LINE",
"815 144 OFFCURVE",
"759 91 OFFCURVE",
"724 91 CURVE SMOOTH {name = hr01;}",
"711 91 OFFCURVE",
"704 99 OFFCURVE",
"704 115 CURVE SMOOTH",
"704 130 OFFCURVE",
"711 154 OFFCURVE",
"723 184 CURVE SMOOTH",
"944 712 LINE SMOOTH",
"966 763 OFFCURVE",
"978 820 OFFCURVE",
"978 876 CURVE SMOOTH",
"978 1000 OFFCURVE",
"920 1067 OFFCURVE",
"817 1067 CURVE SMOOTH",
"692 1067 OFFCURVE",
"585 970 OFFCURVE",
"440 720 CURVE",
"429 723 LINE",
"754 1622 LINE",
"340 1622 LINE",
"346 1578 LINE",
"485 1552 LINE",
"-56 0 LINE",
"186 0 LINE",
"344 412 LINE SMOOTH",
"433 644 OFFCURVE",
"665 976 OFFCURVE",
"736 976 CURVE SMOOTH {name = hr02;}",
"752 976 OFFCURVE",
"762 964 OFFCURVE",
"762 940 CURVE SMOOTH",
"762 919 OFFCURVE",
"755 890 OFFCURVE",
"740 854 CURVE SMOOTH",
"534 351 LINE SMOOTH",
"494 254 OFFCURVE",
"475 176 OFFCURVE",
"475 114 CURVE SMOOTH",
"475 24 OFFCURVE",
"517 -21 OFFCURVE",
"607 -21 CURVE SMOOTH"
);
}
);
width = 1061;
}
);
leftKerningGroup = h;
rightKerningGroup = i;
rightMetricsKey = n;
unicode = 0068;
},
{
glyphname = hbar;
layers = (
{
components = (
{
name = h;
}
);
layerId = master01;
paths = (
{
closed = 1;
nodes = (
"726 1310 LINE",
"755 1393 LINE",
"279 1393 LINE",
"249 1310 LINE"
);
}
);
width = 954;
},
{
background = {
paths = (
{
closed = 1;
nodes = (
"887 1310 LINE",
"922 1393 LINE",
"355 1393 LINE",
"320 1310 LINE"
);
}
);
};
components = (
{
name = h;
}
);
layerId = "D3934E74-9B53-4E98-B19F-CD3DFEE08352";
paths = (
{
closed = 1;
nodes = (
"812 1251 LINE",
"858 1379 LINE",
"275 1379 LINE",
"230 1251 LINE"
);
}
);
width = 1061;
}
);
leftKerningGroup = h;
leftMetricsKey = h;
rightKerningGroup = n;
rightMetricsKey = h;
unicode = 0127;
},
{
glyphname = i;
layers = (
{
anchors = (
{
name = bottom;
position = "{136, 0}";
}
);
background = {
paths = (
{
closed = 1;
nodes = (
"258 -21 OFFCURVE",
"406 75 OFFCURVE",
"530 231 CURVE",
"489 256 LINE",
"360 128 OFFCURVE",
"319 97 OFFCURVE",
"282 97 CURVE SMOOTH",
"258 97 OFFCURVE",
"243 113 OFFCURVE",
"243 135 CURVE SMOOTH",
"243 143 OFFCURVE",
"244 151 OFFCURVE",
"249 161 CURVE SMOOTH",
"532 841 LINE SMOOTH",
"552 888 OFFCURVE",
"563 935 OFFCURVE",
"563 972 CURVE SMOOTH",
"563 1034 OFFCURVE",
"509 1069 OFFCURVE",
"435 1069 CURVE SMOOTH",
"329 1069 OFFCURVE",
"202 1002 OFFCURVE",
"112 892 CURVE",
"157 857 LINE",
"216 933 OFFCURVE",
"284 980 OFFCURVE",
"332 980 CURVE SMOOTH",
"349 980 OFFCURVE",
"357 974 OFFCURVE",
"357 962 CURVE SMOOTH",
"357 953 OFFCURVE",
"354 942 OFFCURVE",
"347 925 CURVE SMOOTH",
"60 219 LINE SMOOTH",
"39 168 OFFCURVE",
"30 124 OFFCURVE",
"30 91 CURVE SMOOTH",
"30 16 OFFCURVE",
"82 -21 OFFCURVE",
"159 -21 CURVE SMOOTH"
);
},
{
closed = 1;
nodes = (
"646 1297 OFFCURVE",
"720 1365 OFFCURVE",
"720 1435 CURVE SMOOTH",
"720 1497 OFFCURVE",
"660 1544 OFFCURVE",
"592 1544 CURVE SMOOTH {name = hr00;}",
"517 1544 OFFCURVE",
"448 1482 OFFCURVE",
"448 1409 CURVE SMOOTH",
"448 1341 OFFCURVE",
"495 1297 OFFCURVE",
"571 1297 CURVE SMOOTH"
);
}
);
};
layerId = master01;
paths = (
{
closed = 1;
nodes = (
"197 -21 OFFCURVE",
"322 75 OFFCURVE",
"426 231 CURVE",
"391 256 LINE",
"283 128 OFFCURVE",
"249 97 OFFCURVE",
"218 97 CURVE SMOOTH",
"197 97 OFFCURVE",
"185 113 OFFCURVE",
"185 135 CURVE SMOOTH",
"185 143 OFFCURVE",
"186 151 OFFCURVE",
"190 161 CURVE SMOOTH",
"457 841 LINE SMOOTH",
"475 888 OFFCURVE",
"483 935 OFFCURVE",
"483 972 CURVE SMOOTH",
"483 1034 OFFCURVE",
"437 1069 OFFCURVE",
"375 1069 CURVE SMOOTH",
"286 1069 OFFCURVE",
"179 1002 OFFCURVE",
"103 892 CURVE",
"141 857 LINE",
"192 933 OFFCURVE",
"249 980 OFFCURVE",
"288 980 CURVE SMOOTH",
"302 980 OFFCURVE",
"309 974 OFFCURVE",
"309 962 CURVE SMOOTH",
"309 953 OFFCURVE",
"307 942 OFFCURVE",
"301 925 CURVE SMOOTH",
"31 219 LINE SMOOTH",
"12 168 OFFCURVE",
"6 124 OFFCURVE",
"6 91 CURVE SMOOTH",
"6 16 OFFCURVE",
"50 -21 OFFCURVE",
"114 -21 CURVE SMOOTH"
);
},
{
closed = 1;
nodes = (
"543 1297 OFFCURVE",
"605 1365 OFFCURVE",
"605 1435 CURVE SMOOTH",
"605 1497 OFFCURVE",
"554 1544 OFFCURVE",
"497 1544 CURVE SMOOTH {name = hr00;}",
"434 1544 OFFCURVE",
"376 1482 OFFCURVE",
"376 1409 CURVE SMOOTH",
"376 1341 OFFCURVE",
"416 1297 OFFCURVE",
"480 1297 CURVE SMOOTH"
);
}
);
width = 523;
},
{
anchors = (
{
name = bottom;
position = "{141, 0}";
}
);
background = {
paths = (
{
closed = 1;
nodes = (
"364 -21 OFFCURVE",
"493 60 OFFCURVE",
"647 240 CURVE",
"592 273 LINE",
"461 137 OFFCURVE",
"402 91 OFFCURVE",
"359 91 CURVE SMOOTH",
"341 91 OFFCURVE",
"330 100 OFFCURVE",
"330 116 CURVE SMOOTH",
"330 122 OFFCURVE",
"332 129 OFFCURVE",
"339 146 CURVE SMOOTH",
"598 782 LINE SMOOTH",
"620 836 OFFCURVE",
"634 895 OFFCURVE",
"634 930 CURVE SMOOTH",
"634 1017 OFFCURVE",
"567 1069 OFFCURVE",
"449 1069 CURVE SMOOTH",
"320 1069 OFFCURVE",
"202 1006 OFFCURVE",
"92 886 CURVE",
"145 844 LINE",
"206 917 OFFCURVE",
"282 968 OFFCURVE",
"328 968 CURVE SMOOTH",
"344 968 OFFCURVE",
"352 962 OFFCURVE",
"352 948 CURVE SMOOTH",
"352 940 OFFCURVE",
"350 929 OFFCURVE",
"343 911 CURVE SMOOTH",
"81 266 LINE SMOOTH",
"59 212 OFFCURVE",
"44 153 OFFCURVE",
"44 117 CURVE SMOOTH",
"44 32 OFFCURVE",
"109 -21 OFFCURVE",
"221 -21 CURVE SMOOTH"
);
},
{
closed = 1;
nodes = (
"735 1256 OFFCURVE",
"823 1339 OFFCURVE",
"823 1424 CURVE SMOOTH",
"823 1497 OFFCURVE",
"753 1557 OFFCURVE",
"668 1557 CURVE SMOOTH {name = hr00;}",
"576 1557 OFFCURVE",
"494 1480 OFFCURVE",
"494 1393 CURVE SMOOTH",
"494 1310 OFFCURVE",
"553 1256 OFFCURVE",
"644 1256 CURVE SMOOTH"
);
}
);
};
layerId = "D3934E74-9B53-4E98-B19F-CD3DFEE08352";
paths = (
{
closed = 1;
nodes = (
"286 -21 OFFCURVE",
"395 60 OFFCURVE",
"524 240 CURVE",
"478 273 LINE",
"368 137 OFFCURVE",
"318 91 OFFCURVE",
"282 91 CURVE SMOOTH",
"267 91 OFFCURVE",
"258 100 OFFCURVE",
"258 116 CURVE SMOOTH",
"258 122 OFFCURVE",
"258 129 OFFCURVE",
"265 146 CURVE SMOOTH",
"522 782 LINE SMOOTH",
"543 836 OFFCURVE",
"553 895 OFFCURVE",
"553 930 CURVE SMOOTH",
"553 1017 OFFCURVE",
"496 1069 OFFCURVE",
"396 1069 CURVE SMOOTH",
"288 1069 OFFCURVE",
"189 1006 OFFCURVE",
"97 886 CURVE",
"141 844 LINE",
"192 917 OFFCURVE",
"256 968 OFFCURVE",
"295 968 CURVE SMOOTH",
"308 968 OFFCURVE",
"315 962 OFFCURVE",
"315 948 CURVE SMOOTH",
"315 940 OFFCURVE",
"315 929 OFFCURVE",
"307 911 CURVE SMOOTH",
"49 266 LINE SMOOTH",
"27 212 OFFCURVE",
"18 153 OFFCURVE",
"18 117 CURVE SMOOTH",
"18 32 OFFCURVE",
"72 -21 OFFCURVE",
"166 -21 CURVE SMOOTH"
);
},
{
closed = 1;
nodes = (
"617 1256 OFFCURVE",
"691 1339 OFFCURVE",
"691 1424 CURVE SMOOTH",
"691 1497 OFFCURVE",
"633 1557 OFFCURVE",
"561 1557 CURVE SMOOTH {name = hr00;}",
"484 1557 OFFCURVE",
"415 1480 OFFCURVE",
"415 1393 CURVE SMOOTH",
"415 1310 OFFCURVE",
"465 1256 OFFCURVE",
"541 1256 CURVE SMOOTH"
);
}
);
width = 613;
}
);
leftKerningGroup = i;
leftMetricsKey = n;
rightKerningGroup = i;
rightMetricsKey = n;
unicode = 0069;
},
{
glyphname = dotlessi;
layers = (
{
anchors = (
{
name = bottom;
position = "{146, 0}";
},
{
name = top;
position = "{483, 1289}";
}
);
layerId = master01;
paths = (
{
closed = 1;
nodes = (
"226 -21 OFFCURVE",
"351 75 OFFCURVE",
"454 231 CURVE",
"421 256 LINE",
"312 128 OFFCURVE",
"277 97 OFFCURVE",
"247 97 CURVE SMOOTH",
"226 97 OFFCURVE",
"213 113 OFFCURVE",
"213 135 CURVE SMOOTH",
"213 143 OFFCURVE",
"215 151 OFFCURVE",
"218 161 CURVE SMOOTH",
"457 841 LINE SMOOTH",
"473 888 OFFCURVE",
"483 935 OFFCURVE",
"483 972 CURVE SMOOTH",
"483 1034 OFFCURVE",
"437 1069 OFFCURVE",
"375 1069 CURVE SMOOTH {name = hr00;}",
"286 1069 OFFCURVE",
"179 1002 OFFCURVE",
"103 892 CURVE",
"141 857 LINE",
"192 933 OFFCURVE",
"249 980 OFFCURVE",
"288 980 CURVE SMOOTH",
"312 980 OFFCURVE",
"314 965 OFFCURVE",
"301 925 CURVE SMOOTH",
"60 219 LINE SMOOTH",
"43 168 OFFCURVE",
"34 124 OFFCURVE",
"34 91 CURVE SMOOTH",
"34 16 OFFCURVE",
"78 -21 OFFCURVE",
"143 -21 CURVE SMOOTH"
);
}
);
width = 552;
},
{
anchors = (
{
name = bottom;
position = "{149, 0}";
},
{
name = top;
position = "{496, 1289}";
}
);
background = {
paths = (
{
closed = 1;
nodes = (
"273 -21 OFFCURVE",
"421 75 OFFCURVE",
"545 231 CURVE",
"504 256 LINE",
"375 128 OFFCURVE",
"334 97 OFFCURVE",
"297 97 CURVE SMOOTH",
"273 97 OFFCURVE",
"258 113 OFFCURVE",
"258 135 CURVE SMOOTH",
"258 143 OFFCURVE",
"259 151 OFFCURVE",
"264 161 CURVE SMOOTH",
"547 841 LINE SMOOTH",
"567 888 OFFCURVE",
"578 935 OFFCURVE",
"578 972 CURVE SMOOTH",
"578 1034 OFFCURVE",
"524 1069 OFFCURVE",
"450 1069 CURVE SMOOTH {name = hr00;}",
"344 1069 OFFCURVE",
"216 1002 OFFCURVE",
"127 892 CURVE",
"172 857 LINE",
"231 933 OFFCURVE",
"299 980 OFFCURVE",
"347 980 CURVE SMOOTH",
"374 980 OFFCURVE",
"378 965 OFFCURVE",
"362 925 CURVE SMOOTH",
"75 219 LINE SMOOTH",
"54 168 OFFCURVE",
"45 124 OFFCURVE",
"45 91 CURVE SMOOTH",
"45 16 OFFCURVE",
"97 -21 OFFCURVE",
"174 -21 CURVE SMOOTH"
);
}
);
};
layerId = "D3934E74-9B53-4E98-B19F-CD3DFEE08352";
paths = (
{
closed = 1;
nodes = (
"325 -21 OFFCURVE",
"433 60 OFFCURVE",
"563 240 CURVE",
"517 273 LINE",
"407 137 OFFCURVE",
"357 91 OFFCURVE",
"321 91 CURVE SMOOTH",
"306 91 OFFCURVE",
"297 100 OFFCURVE",
"297 116 CURVE SMOOTH",
"297 122 OFFCURVE",
"298 129 OFFCURVE",
"304 146 CURVE SMOOTH",
"522 782 LINE SMOOTH",
"540 836 OFFCURVE",
"553 895 OFFCURVE",
"553 930 CURVE SMOOTH",
"553 1017 OFFCURVE",
"496 1069 OFFCURVE",
"396 1069 CURVE SMOOTH",
"288 1069 OFFCURVE",
"189 1006 OFFCURVE",
"97 886 CURVE",
"141 844 LINE",
"192 917 OFFCURVE",
"256 968 OFFCURVE",
"295 968 CURVE SMOOTH",
"321 968 OFFCURVE",
"318 944 OFFCURVE",
"307 911 CURVE SMOOTH",
"87 266 LINE SMOOTH",
"69 212 OFFCURVE",
"56 153 OFFCURVE",
"56 117 CURVE SMOOTH",
"56 32 OFFCURVE",
"111 -21 OFFCURVE",
"205 -21 CURVE SMOOTH"
);
}
);
width = 652;
}
);
leftKerningGroup = i;
leftMetricsKey = i;
rightKerningGroup = i;
rightMetricsKey = i;
unicode = 0131;
},
{
glyphname = iogonek;
layers = (
{
anchors = (
{
name = _bottom;
position = "{204, 0}";
}
);
background = {
paths = (
{
closed = 1;
nodes = (
"33 -507 OFFCURVE",
"126 -466 OFFCURVE",
"215 -392 CURVE {name = hr00;}",
"205 -357 LINE",
"144 -388 OFFCURVE",
"112 -398 OFFCURVE",
"76 -398 CURVE SMOOTH",
"26 -398 OFFCURVE",
"3 -380 OFFCURVE",
"3 -341 CURVE SMOOTH",
"3 -258 OFFCURVE",
"109 -127 OFFCURVE",
"269 0 CURVE",
"195 0 LINE",
"-29 -117 OFFCURVE",
"-188 -281 OFFCURVE",
"-188 -404 CURVE SMOOTH",
"-188 -471 OFFCURVE",
"-140 -507 OFFCURVE",
"-55 -507 CURVE SMOOTH"
);
}
);
};
components = (
{
alignment = -1;
name = i;
}
);
layerId = master01;
paths = (
{
closed = 1;
nodes = (
"66 -507 OFFCURVE",
"143 -466 OFFCURVE",
"218 -392 CURVE {name = hr00;}",
"210 -357 LINE",
"159 -388 OFFCURVE",
"132 -398 OFFCURVE",
"102 -398 CURVE SMOOTH",
"60 -398 OFFCURVE",
"40 -380 OFFCURVE",
"40 -341 CURVE SMOOTH",
"40 -258 OFFCURVE",
"162 -97 OFFCURVE",
"341 89 CURVE",
"202 0 LINE",
"4 -117 OFFCURVE",
"-120 -281 OFFCURVE",
"-120 -404 CURVE SMOOTH",
"-120 -471 OFFCURVE",
"-81 -507 OFFCURVE",
"-8 -507 CURVE SMOOTH"
);
}
);
width = 533;
},
{
anchors = (
{
name = _bottom;
position = "{151, 0}";
}
);
background = {
paths = (
{
closed = 1;
nodes = (
"218 -507 OFFCURVE",
"328 -459 OFFCURVE",
"436 -368 CURVE {name = hr00;}",
"426 -321 LINE",
"362 -354 OFFCURVE",
"324 -365 OFFCURVE",
"282 -365 CURVE SMOOTH",
"226 -365 OFFCURVE",
"196 -345 OFFCURVE",
"196 -307 CURVE SMOOTH",
"196 -233 OFFCURVE",
"304 -101 OFFCURVE",
"538 105 CURVE",
"334 0 LINE",
"82 -121 OFFCURVE",
"-46 -249 OFFCURVE",
"-46 -383 CURVE SMOOTH",
"-46 -464 OFFCURVE",
"9 -507 OFFCURVE",
"113 -507 CURVE SMOOTH"
);
}
);
};
components = (
{
name = i;
}
);
layerId = "D3934E74-9B53-4E98-B19F-CD3DFEE08352";
paths = (
{
closed = 1;
nodes = (
"183 -507 OFFCURVE",
"276 -459 OFFCURVE",
"366 -368 CURVE {name = hr00;}",
"358 -321 LINE",
"304 -354 OFFCURVE",
"272 -365 OFFCURVE",
"237 -365 CURVE SMOOTH",
"190 -365 OFFCURVE",
"165 -334 OFFCURVE",
"165 -296 CURVE SMOOTH",
"165 -208 OFFCURVE",
"247 -97 OFFCURVE",
"434 88 CURVE",
"331 30 LINE",
"53 -106 OFFCURVE",
"-39 -246 OFFCURVE",
"-39 -355 CURVE SMOOTH",
"-39 -444 OFFCURVE",
"14 -507 OFFCURVE",
"104 -507 CURVE SMOOTH"
);
}
);
width = 668;
}
);
leftKerningGroup = i;
leftMetricsKey = i;
rightKerningGroup = i;
rightMetricsKey = i;
unicode = 012F;
},
{
glyphname = j;
layers = (
{
background = {
paths = (
{
closed = 1;
nodes = (
"-114 -507 OFFCURVE",
"41 -383 OFFCURVE",
"142 -161 CURVE SMOOTH",
"394 402 LINE SMOOTH",
"533 714 OFFCURVE",
"596 903 OFFCURVE",
"596 974 CURVE SMOOTH",
"596 1033 OFFCURVE",
"555 1069 OFFCURVE",
"472 1069 CURVE SMOOTH",
"365 1069 OFFCURVE",
"246 1005 OFFCURVE",
"152 892 CURVE {name = hr02;}",
"193 857 LINE",
"252 933 OFFCURVE",
"310 974 OFFCURVE",
"357 974 CURVE SMOOTH",
"377 974 OFFCURVE",
"386 968 OFFCURVE",
"386 948 CURVE SMOOTH",
"386 906 OFFCURVE",
"359 828 OFFCURVE",
"229 500 CURVE SMOOTH {name = hr01;}",
"9 -55 LINE SMOOTH",
"-107 -349 OFFCURVE",
"-174 -438 OFFCURVE",
"-252 -438 CURVE SMOOTH",
"-379 -438 OFFCURVE",
"-312 -261 OFFCURVE",
"-450 -261 CURVE SMOOTH",
"-512 -261 OFFCURVE",
"-541 -295 OFFCURVE",
"-541 -355 CURVE SMOOTH",
"-541 -448 OFFCURVE",
"-444 -507 OFFCURVE",
"-310 -507 CURVE SMOOTH"
);
}
);
};
layerId = master01;
paths = (
{
closed = 1;
nodes = (
"-76 -507 OFFCURVE",
"81 -348 OFFCURVE",
"192 -20 CURVE SMOOTH",
"447 731 LINE SMOOTH",
"497 880 OFFCURVE",
"501 924 OFFCURVE",
"501 974 CURVE SMOOTH",
"501 1035 OFFCURVE",
"465 1069 OFFCURVE",
"396 1069 CURVE SMOOTH",
"305 1069 OFFCURVE",
"206 1003 OFFCURVE",
"128 892 CURVE {name = hr02;}",
"162 857 LINE",
"212 933 OFFCURVE",
"260 974 OFFCURVE",
"300 974 CURVE SMOOTH",
"318 974 OFFCURVE",
"324 967 OFFCURVE",
"324 948 CURVE SMOOTH",
"324 905 OFFCURVE",
"299 819 OFFCURVE",
"192 500 CURVE SMOOTH {name = hr01;}",
"8 -55 LINE SMOOTH",
"-86 -339 OFFCURVE",
"-143 -438 OFFCURVE",
"-218 -438 CURVE SMOOTH",
"-318 -438 OFFCURVE",
"-262 -261 OFFCURVE",
"-378 -261 CURVE SMOOTH",
"-430 -261 OFFCURVE",
"-454 -295 OFFCURVE",
"-454 -349 CURVE SMOOTH",
"-454 -448 OFFCURVE",
"-373 -507 OFFCURVE",
"-260 -507 CURVE SMOOTH"
);
},
{
closed = 1;
nodes = (
"576 1297 OFFCURVE",
"633 1360 OFFCURVE",
"633 1429 CURVE SMOOTH",
"633 1492 OFFCURVE",
"587 1544 OFFCURVE",
"528 1544 CURVE SMOOTH",
"462 1544 OFFCURVE",
"410 1482 OFFCURVE",
"410 1409 CURVE SMOOTH",
"410 1346 OFFCURVE",
"449 1297 OFFCURVE",
"510 1297 CURVE SMOOTH"
);
}
);
width = 561;
},
{
background = {
paths = (
{
closed = 0;
nodes = (
"-242 -435 LINE SMOOTH",
"-324 -435 OFFCURVE",
"-371 -406 OFFCURVE",
"-383 -321 CURVE SMOOTH",
"-395 -246 OFFCURVE",
"-432 -207 OFFCURVE",
"-496 -207 CURVE SMOOTH",
"-567 -207 OFFCURVE",
"-616 -252 OFFCURVE",
"-616 -314 CURVE SMOOTH",
"-616 -433 OFFCURVE",
"-436 -527 OFFCURVE",
"-227 -527 CURVE SMOOTH"
);
}
);
};
layerId = "D3934E74-9B53-4E98-B19F-CD3DFEE08352";
paths = (
{
closed = 1;
nodes = (
"-26 -507 OFFCURVE",
"174 -337 OFFCURVE",
"339 146 CURVE SMOOTH",
"557 782 LINE SMOOTH",
"575 836 OFFCURVE",
"588 895 OFFCURVE",
"588 930 CURVE SMOOTH",
"588 1017 OFFCURVE",
"531 1069 OFFCURVE",
"433 1069 CURVE SMOOTH",
"324 1069 OFFCURVE",
"224 1006 OFFCURVE",
"133 886 CURVE",
"177 844 LINE",
"228 917 OFFCURVE",
"292 968 OFFCURVE",
"331 968 CURVE SMOOTH",
"344 968 OFFCURVE",
"351 962 OFFCURVE",
"351 948 CURVE SMOOTH",
"351 940 OFFCURVE",
"350 929 OFFCURVE",
"344 911 CURVE SMOOTH",
"106 215 LINE SMOOTH",
"-66 -287 OFFCURVE",
"-143 -412 OFFCURVE",
"-234 -415 CURVE SMOOTH",
"-349 -418 OFFCURVE",
"-285 -207 OFFCURVE",
"-417 -207 CURVE SMOOTH",
"-481 -207 OFFCURVE",
"-517 -256 OFFCURVE",
"-517 -316 CURVE SMOOTH",
"-517 -432 OFFCURVE",
"-387 -507 OFFCURVE",
"-255 -507 CURVE SMOOTH"
);
},
{
closed = 1;
nodes = (
"672 1256 OFFCURVE",
"747 1339 OFFCURVE",
"747 1424 CURVE SMOOTH",
"747 1497 OFFCURVE",
"688 1557 OFFCURVE",
"617 1557 CURVE SMOOTH {name = hr00;}",
"538 1557 OFFCURVE",
"470 1480 OFFCURVE",
"470 1393 CURVE SMOOTH",
"470 1310 OFFCURVE",
"519 1256 OFFCURVE",
"596 1256 CURVE SMOOTH"
);
}
);
width = 632;
}
);
leftKerningGroup = j;
rightKerningGroup = j;
unicode = 006A;
},
{
glyphname = dotlessj;
layers = (
{
anchors = (
{
name = top;
position = "{500, 1289}";
}
);
background = {
paths = (
{
closed = 1;
nodes = (
"-114 -507 OFFCURVE",
"41 -383 OFFCURVE",
"142 -161 CURVE SMOOTH",
"394 402 LINE SMOOTH",
"533 714 OFFCURVE",
"596 903 OFFCURVE",
"596 974 CURVE SMOOTH",
"596 1033 OFFCURVE",
"555 1069 OFFCURVE",
"472 1069 CURVE SMOOTH",
"365 1069 OFFCURVE",
"246 1005 OFFCURVE",
"152 892 CURVE {name = hr02;}",
"193 857 LINE",
"252 933 OFFCURVE",
"310 974 OFFCURVE",
"357 974 CURVE SMOOTH",
"377 974 OFFCURVE",
"386 968 OFFCURVE",
"386 948 CURVE SMOOTH",
"386 906 OFFCURVE",
"359 828 OFFCURVE",
"229 500 CURVE SMOOTH {name = hr01;}",
"9 -55 LINE SMOOTH",
"-107 -349 OFFCURVE",
"-174 -438 OFFCURVE",
"-252 -438 CURVE SMOOTH",
"-379 -438 OFFCURVE",
"-312 -261 OFFCURVE",
"-450 -261 CURVE SMOOTH",
"-512 -261 OFFCURVE",
"-541 -295 OFFCURVE",
"-541 -355 CURVE SMOOTH",
"-541 -448 OFFCURVE",
"-444 -507 OFFCURVE",
"-310 -507 CURVE SMOOTH"
);
}
);
};
layerId = master01;
paths = (
{
closed = 1;
nodes = (
"-76 -507 OFFCURVE",
"81 -348 OFFCURVE",
"192 -20 CURVE SMOOTH",
"447 731 LINE SMOOTH",
"497 880 OFFCURVE",
"501 924 OFFCURVE",
"501 974 CURVE SMOOTH",
"501 1035 OFFCURVE",
"465 1069 OFFCURVE",
"396 1069 CURVE SMOOTH",
"305 1069 OFFCURVE",
"206 1003 OFFCURVE",
"128 892 CURVE {name = hr02;}",
"162 857 LINE",
"212 933 OFFCURVE",
"260 974 OFFCURVE",
"300 974 CURVE SMOOTH",
"318 974 OFFCURVE",
"324 967 OFFCURVE",
"324 948 CURVE SMOOTH",
"324 902 OFFCURVE",
"318 874 OFFCURVE",
"192 500 CURVE SMOOTH {name = hr01;}",
"8 -55 LINE SMOOTH",
"-86 -339 OFFCURVE",
"-143 -438 OFFCURVE",
"-218 -438 CURVE SMOOTH",
"-318 -438 OFFCURVE",
"-262 -261 OFFCURVE",
"-378 -261 CURVE SMOOTH",
"-430 -261 OFFCURVE",
"-454 -295 OFFCURVE",
"-454 -349 CURVE SMOOTH",
"-454 -448 OFFCURVE",
"-373 -507 OFFCURVE",
"-260 -507 CURVE SMOOTH"
);
}
);
width = 561;
},
{
anchors = (
{
name = top;
position = "{519, 1289}";
}
);
background = {
paths = (
{
closed = 1;
nodes = (
"-114 -507 OFFCURVE",
"41 -383 OFFCURVE",
"142 -161 CURVE SMOOTH",
"394 402 LINE SMOOTH",
"533 714 OFFCURVE",
"596 903 OFFCURVE",
"596 974 CURVE SMOOTH",
"596 1033 OFFCURVE",
"555 1069 OFFCURVE",
"472 1069 CURVE SMOOTH",
"365 1069 OFFCURVE",
"246 1005 OFFCURVE",
"152 892 CURVE {name = hr02;}",
"193 857 LINE",
"252 933 OFFCURVE",
"310 974 OFFCURVE",
"357 974 CURVE SMOOTH",
"377 974 OFFCURVE",
"386 968 OFFCURVE",
"386 948 CURVE SMOOTH",
"386 906 OFFCURVE",
"359 828 OFFCURVE",
"229 500 CURVE SMOOTH {name = hr01;}",
"9 -55 LINE SMOOTH",
"-107 -349 OFFCURVE",
"-174 -438 OFFCURVE",
"-252 -438 CURVE SMOOTH",
"-379 -438 OFFCURVE",
"-312 -261 OFFCURVE",
"-450 -261 CURVE SMOOTH",
"-512 -261 OFFCURVE",
"-541 -295 OFFCURVE",
"-541 -355 CURVE SMOOTH",
"-541 -448 OFFCURVE",
"-444 -507 OFFCURVE",
"-310 -507 CURVE SMOOTH"
);
}
);
};
layerId = "D3934E74-9B53-4E98-B19F-CD3DFEE08352";
paths = (
{
closed = 1;
nodes = (
"-26 -507 OFFCURVE",
"174 -337 OFFCURVE",
"339 146 CURVE SMOOTH",
"557 782 LINE SMOOTH",
"575 836 OFFCURVE",
"588 895 OFFCURVE",
"588 930 CURVE SMOOTH",
"588 1017 OFFCURVE",
"531 1069 OFFCURVE",
"433 1069 CURVE SMOOTH",
"324 1069 OFFCURVE",
"224 1006 OFFCURVE",
"133 886 CURVE",
"177 844 LINE",
"228 917 OFFCURVE",
"292 968 OFFCURVE",
"331 968 CURVE SMOOTH",
"344 968 OFFCURVE",
"351 962 OFFCURVE",
"351 948 CURVE SMOOTH",
"351 940 OFFCURVE",
"350 929 OFFCURVE",
"344 911 CURVE SMOOTH",
"106 215 LINE SMOOTH",
"-66 -287 OFFCURVE",
"-143 -412 OFFCURVE",
"-234 -415 CURVE SMOOTH",
"-349 -418 OFFCURVE",
"-285 -207 OFFCURVE",
"-417 -207 CURVE SMOOTH",
"-481 -207 OFFCURVE",
"-517 -256 OFFCURVE",
"-517 -316 CURVE SMOOTH",
"-517 -432 OFFCURVE",
"-388 -507 OFFCURVE",
"-255 -507 CURVE SMOOTH"
);
}
);
width = 632;
}
);
leftKerningGroup = j;
leftMetricsKey = j;
rightKerningGroup = j;
rightMetricsKey = j;
unicode = 0237;
},
{
glyphname = k;
layers = (
{
anchors = (
{
name = bottom;
position = "{270, 0}";
}
);
layerId = master01;
paths = (
{
closed = 1;
nodes = (
"650 -21 OFFCURVE",
"741 47 OFFCURVE",
"785 136 CURVE",
"751 159 LINE",
"711 97 OFFCURVE",
"673 66 OFFCURVE",
"638 66 CURVE SMOOTH",
"604 66 OFFCURVE",
"580 105 OFFCURVE",
"535 219 CURVE SMOOTH",
"422 503 LINE",
"659 580 OFFCURVE",
"859 770 OFFCURVE",
"859 920 CURVE SMOOTH",
"859 1016 OFFCURVE",
"805 1069 OFFCURVE",
"702 1069 CURVE SMOOTH",
"600 1069 OFFCURVE",
"487 1008 OFFCURVE",
"417 914 CURVE",
"411 914 LINE",
"668 1622 LINE",
"350 1622 LINE",
"354 1594 LINE",
"479 1569 LINE",
"-76 0 LINE",
"91 0 LINE",
"249 465 LINE",
"262 465 LINE",
"376 177 LINE SMOOTH {name = hr01;}",
"430 40 OFFCURVE",
"489 -21 OFFCURVE",
"569 -21 CURVE SMOOTH"
);
},
{
closed = 1;
nodes = (
"333 706 OFFCURVE",
"394 812 OFFCURVE",
"475 896 CURVE SMOOTH",
"529 952 OFFCURVE",
"580 982 OFFCURVE",
"630 982 CURVE SMOOTH",
"671 982 OFFCURVE",
"692 956 OFFCURVE",
"692 903 CURVE SMOOTH",
"692 727 OFFCURVE",
"498 547 OFFCURVE",
"277 531 CURVE"
);
}
);
width = 872;
},
{
anchors = (
{
name = bottom;
position = "{407, 0}";
}
);
background = {
paths = (
{
closed = 1;
nodes = (
"529 753 OFFCURVE",
"757 975 OFFCURVE",
"859 975 CURVE SMOOTH {name = hr02;}",
"898 975 OFFCURVE",
"919 950 OFFCURVE",
"919 900 CURVE SMOOTH",
"919 743 OFFCURVE",
"712 553 OFFCURVE",
"406 508 CURVE",
"367 433 LINE",
"836 502 OFFCURVE",
"1161 704 OFFCURVE",
"1161 917 CURVE SMOOTH",
"1161 1014 OFFCURVE",
"1092 1067 OFFCURVE",
"973 1067 CURVE SMOOTH",
"841 1067 OFFCURVE",
"700 1001 OFFCURVE",
"588 869 CURVE",
"576 873 LINE",
"898 1622 LINE",
"405 1622 LINE",
"412 1578 LINE",
"577 1552 LINE",
"-67 0 LINE",
"222 0 LINE",
"435 524 LINE SMOOTH"
);
},
{
closed = 1;
nodes = (
"405 465 LINE",
"539 159 LINE SMOOTH {name = hr01;}",
"590 43 OFFCURVE",
"687 -21 OFFCURVE",
"803 -21 CURVE SMOOTH",
"917 -21 OFFCURVE",
"1017 41 OFFCURVE",
"1110 170 CURVE",
"1057 204 LINE",
"1001 129 OFFCURVE",
"953 91 OFFCURVE",
"919 91 CURVE SMOOTH {name = hr01;}",
"884 91 OFFCURVE",
"861 114 OFFCURVE",
"813 226 CURVE SMOOTH",
"684 524 LINE"
);
}
);
};
layerId = "D3934E74-9B53-4E98-B19F-CD3DFEE08352";
paths = (
{
closed = 1;
nodes = (
"770 -21 OFFCURVE",
"854 41 OFFCURVE",
"932 170 CURVE",
"888 204 LINE",
"841 129 OFFCURVE",
"801 91 OFFCURVE",
"772 91 CURVE SMOOTH {name = hr01;}",
"743 91 OFFCURVE",
"723 114 OFFCURVE",
"683 226 CURVE SMOOTH",
"580 508 LINE",
"822 605 OFFCURVE",
"975 758 OFFCURVE",
"975 917 CURVE SMOOTH",
"975 1014 OFFCURVE",
"917 1067 OFFCURVE",
"817 1067 CURVE SMOOTH",
"706 1067 OFFCURVE",
"588 1001 OFFCURVE",
"494 869 CURVE",
"484 873 LINE",
"754 1622 LINE",
"340 1622 LINE",
"346 1578 LINE",
"485 1552 LINE",
"-56 0 LINE",
"186 0 LINE",
"337 438 LINE",
"349 441 LINE",
"453 159 LINE SMOOTH {name = hr01;}",
"496 43 OFFCURVE",
"577 -21 OFFCURVE",
"675 -21 CURVE SMOOTH"
);
},
{
closed = 1;
nodes = (
"404 638 OFFCURVE",
"483 769 OFFCURVE",
"560 859 CURVE SMOOTH",
"620 929 OFFCURVE",
"680 975 OFFCURVE",
"722 975 CURVE SMOOTH {name = hr02;}",
"754 975 OFFCURVE",
"772 950 OFFCURVE",
"772 900 CURVE SMOOTH",
"772 747 OFFCURVE",
"606 563 OFFCURVE",
"362 511 CURVE"
);
}
);
width = 1027;
}
);
leftKerningGroup = h;
leftMetricsKey = h;
rightKerningGroup = k;
unicode = 006B;
},
{
glyphname = kgreenlandic;
layers = (
{
layerId = master01;
paths = (
{
closed = 1;
nodes = (
"691 -21 OFFCURVE",
"784 47 OFFCURVE",
"826 136 CURVE",
"793 159 LINE",
"753 97 OFFCURVE",
"715 66 OFFCURVE",
"680 66 CURVE SMOOTH",
"645 66 OFFCURVE",
"623 105 OFFCURVE",
"577 219 CURVE SMOOTH",
"464 503 LINE",
"702 580 OFFCURVE",
"901 770 OFFCURVE",
"901 920 CURVE SMOOTH",
"901 1016 OFFCURVE",
"847 1069 OFFCURVE",
"745 1069 CURVE SMOOTH",
"641 1069 OFFCURVE",
"529 1008 OFFCURVE",
"461 914 CURVE",
"454 914 LINE",
"505 1049 LINE",
"187 1049 LINE",
"191 1019 LINE",
"315 995 LINE",
"-33 0 LINE",
"134 0 LINE",
"291 465 LINE",
"304 465 LINE",
"420 177 LINE SMOOTH {name = hr01;}",
"475 41 OFFCURVE",
"530 -21 OFFCURVE",
"611 -21 CURVE SMOOTH"
);
},
{
closed = 1;
nodes = (
"376 706 OFFCURVE",
"435 812 OFFCURVE",
"517 896 CURVE SMOOTH",
"572 952 OFFCURVE",
"622 982 OFFCURVE",
"671 982 CURVE SMOOTH",
"713 982 OFFCURVE",
"735 956 OFFCURVE",
"735 903 CURVE SMOOTH",
"735 727 OFFCURVE",
"541 547 OFFCURVE",
"319 531 CURVE"
);
}
);
width = 913;
},
{
layerId = "D3934E74-9B53-4E98-B19F-CD3DFEE08352";
paths = (
{
closed = 1;
nodes = (
"803 -21 OFFCURVE",
"887 41 OFFCURVE",
"965 170 CURVE",
"921 204 LINE",
"874 129 OFFCURVE",
"834 91 OFFCURVE",
"805 91 CURVE SMOOTH {name = hr01;}",
"776 91 OFFCURVE",
"756 114 OFFCURVE",
"716 226 CURVE SMOOTH",
"613 508 LINE",
"855 605 OFFCURVE",
"1008 758 OFFCURVE",
"1008 917 CURVE SMOOTH",
"1008 1014 OFFCURVE",
"950 1067 OFFCURVE",
"850 1067 CURVE SMOOTH",
"739 1067 OFFCURVE",
"621 1001 OFFCURVE",
"528 869 CURVE",
"517 873 LINE",
"587 1049 LINE",
"173 1049 LINE",
"179 1004 LINE",
"318 979 LINE",
"-24 0 LINE",
"219 0 LINE",
"370 438 LINE",
"382 441 LINE",
"486 159 LINE SMOOTH {name = hr01;}",
"528 43 OFFCURVE",
"611 -21 OFFCURVE",
"707 -21 CURVE SMOOTH"
);
},
{
closed = 1;
nodes = (
"437 638 OFFCURVE",
"516 769 OFFCURVE",
"593 859 CURVE SMOOTH",
"653 929 OFFCURVE",
"713 975 OFFCURVE",
"754 975 CURVE SMOOTH {name = hr02;}",
"787 975 OFFCURVE",
"805 950 OFFCURVE",
"805 900 CURVE SMOOTH",
"805 747 OFFCURVE",
"639 563 OFFCURVE",
"395 511 CURVE"
);
}
);
width = 1060;
}
);
rightKerningGroup = k;
rightMetricsKey = k;
unicode = 0138;
},
{
glyphname = l;
layers = (
{
anchors = (
{
name = bottom;
position = "{76, 0}";
},
{
name = top;
position = "{770, 1260}";
},
{
name = topcap;
position = "{633, 1696}";
}
);
background = {
paths = (
{
closed = 1;
nodes = (
"223 -21 OFFCURVE",
"372 75 OFFCURVE",
"495 231 CURVE",
"455 256 LINE",
"326 128 OFFCURVE",
"284 97 OFFCURVE",
"248 97 CURVE SMOOTH",
"223 97 OFFCURVE",
"208 113 OFFCURVE",
"208 135 CURVE SMOOTH",
"208 143 OFFCURVE",
"210 151 OFFCURVE",
"214 161 CURVE SMOOTH",
"497 841 LINE SMOOTH",
"517 888 OFFCURVE",
"529 935 OFFCURVE",
"529 972 CURVE SMOOTH",
"529 1034 OFFCURVE",
"474 1069 OFFCURVE",
"401 1069 CURVE SMOOTH",
"295 1069 OFFCURVE",
"167 1002 OFFCURVE",
"77 892 CURVE",
"122 857 LINE",
"182 933 OFFCURVE",
"250 980 OFFCURVE",
"297 980 CURVE SMOOTH",
"314 980 OFFCURVE",
"322 974 OFFCURVE",
"322 962 CURVE SMOOTH",
"322 953 OFFCURVE",
"319 942 OFFCURVE",
"312 925 CURVE SMOOTH",
"25 219 LINE SMOOTH",
"5 168 OFFCURVE",
"-5 124 OFFCURVE",
"-5 91 CURVE SMOOTH",
"-5 16 OFFCURVE",
"47 -21 OFFCURVE",
"124 -21 CURVE SMOOTH"
);
},
{
closed = 1;
nodes = (
"611 1297 OFFCURVE",
"685 1365 OFFCURVE",
"685 1435 CURVE SMOOTH",
"685 1497 OFFCURVE",
"625 1544 OFFCURVE",
"557 1544 CURVE SMOOTH {name = hr00;}",
"482 1544 OFFCURVE",
"413 1482 OFFCURVE",
"413 1409 CURVE SMOOTH",
"413 1341 OFFCURVE",
"461 1297 OFFCURVE",
"537 1297 CURVE SMOOTH"
);
}
);
};
layerId = master01;
paths = (
{
closed = 1;
nodes = (
"181 -21 OFFCURVE",
"307 70 OFFCURVE",
"419 231 CURVE",
"382 256 LINE",
"275 120 OFFCURVE",
"234 97 OFFCURVE",
"207 97 CURVE SMOOTH",
"191 97 OFFCURVE",
"172 112 OFFCURVE",
"172 132 CURVE SMOOTH",
"172 177 OFFCURVE",
"202 256 OFFCURVE",
"327 603 CURVE SMOOTH",
"695 1622 LINE",
"365 1622 LINE {name = hr00;}",
"369 1594 LINE",
"496 1569 LINE",
"268 922 LINE SMOOTH",
"36 261 OFFCURVE",
"6 174 OFFCURVE",
"6 104 CURVE SMOOTH",
"6 28 OFFCURVE",
"38 -21 OFFCURVE",
"91 -21 CURVE SMOOTH"
);
}
);
width = 541;
},
{
anchors = (
{
name = bottom;
position = "{108, 0}";
},
{
name = top;
position = "{772, 1260}";
},
{
name = topcap;
position = "{630, 1696}";
}
);
background = {
paths = (
{
closed = 1;
nodes = (
"316 -21 OFFCURVE",
"444 60 OFFCURVE",
"599 240 CURVE",
"544 273 LINE",
"412 137 OFFCURVE",
"354 91 OFFCURVE",
"311 91 CURVE SMOOTH",
"292 91 OFFCURVE",
"282 100 OFFCURVE",
"282 116 CURVE SMOOTH",
"282 122 OFFCURVE",
"283 129 OFFCURVE",
"290 146 CURVE SMOOTH",
"549 782 LINE SMOOTH",
"571 836 OFFCURVE",
"586 895 OFFCURVE",
"586 930 CURVE SMOOTH",
"586 1017 OFFCURVE",
"518 1069 OFFCURVE",
"401 1069 CURVE SMOOTH",
"272 1069 OFFCURVE",
"153 1006 OFFCURVE",
"44 886 CURVE",
"97 844 LINE",
"158 917 OFFCURVE",
"234 968 OFFCURVE",
"280 968 CURVE SMOOTH",
"296 968 OFFCURVE",
"304 962 OFFCURVE",
"304 948 CURVE SMOOTH",
"304 940 OFFCURVE",
"302 929 OFFCURVE",
"295 911 CURVE SMOOTH",
"32 266 LINE SMOOTH",
"10 212 OFFCURVE",
"-5 153 OFFCURVE",
"-5 117 CURVE SMOOTH",
"-5 32 OFFCURVE",
"61 -21 OFFCURVE",
"173 -21 CURVE SMOOTH"
);
}
);
};
layerId = "D3934E74-9B53-4E98-B19F-CD3DFEE08352";
paths = (
{
closed = 1;
nodes = (
"255 -21 OFFCURVE",
"375 61 OFFCURVE",
"504 240 CURVE",
"458 273 LINE",
"353 145 OFFCURVE",
"295 91 OFFCURVE",
"260 91 CURVE SMOOTH {name = hr01;}",
"245 91 OFFCURVE",
"240 98 OFFCURVE",
"240 117 CURVE SMOOTH",
"240 145 OFFCURVE",
"286 281 OFFCURVE",
"407 616 CURVE SMOOTH",
"770 1622 LINE",
"340 1622 LINE",
"346 1578 LINE",
"485 1552 LINE",
"223 804 LINE SMOOTH",
"34 257 OFFCURVE",
"2 158 OFFCURVE",
"2 92 CURVE SMOOTH",
"2 20 OFFCURVE",
"43 -21 OFFCURVE",
"128 -21 CURVE SMOOTH"
);
}
);
width = 585;
}
);
leftKerningGroup = h;
rightKerningGroup = u;
unicode = 006C;
},
{
glyphname = lslash;
layers = (
{
components = (
{
name = l;
transform = "{1, 0, 0, 1, 71, 0}";
}
);
layerId = master01;
paths = (
{
closed = 1;
nodes = (
"685 912 LINE",
"689 1010 LINE",
"31 638 LINE",
"31 542 LINE"
);
}
);
width = 601;
},
{
background = {
paths = (
{
closed = 1;
nodes = (
"914 912 LINE",
"918 1010 LINE",
"135 638 LINE",
"135 542 LINE"
);
}
);
};
components = (
{
name = l;
transform = "{1, 0, 0, 1, 121, 0}";
}
);
layerId = "D3934E74-9B53-4E98-B19F-CD3DFEE08352";
paths = (
{
closed = 1;
nodes = (
"845 896 LINE",
"848 1040 LINE",
"36 654 LINE",
"36 512 LINE"
);
}
);
width = 802;
}
);
leftKerningGroup = h;
rightKerningGroup = u;
unicode = 0142;
},
{
glyphname = m;
layers = (
{
layerId = master01;
paths = (
{
closed = 1;
nodes = (
"1125 -21 OFFCURVE",
"1242 73 OFFCURVE",
"1354 245 CURVE",
"1320 275 LINE",
"1240 167 OFFCURVE",
"1166 97 OFFCURVE",
"1129 97 CURVE SMOOTH",
"1093 97 OFFCURVE",
"1094 126 OFFCURVE",
"1137 240 CURVE SMOOTH {name = hr01;}",
"1316 713 LINE SMOOTH",
"1345 786 OFFCURVE",
"1356 837 OFFCURVE",
"1356 892 CURVE SMOOTH",
"1356 1005 OFFCURVE",
"1306 1067 OFFCURVE",
"1212 1067 CURVE SMOOTH",
"1092 1067 OFFCURVE",
"984 970 OFFCURVE",
"864 752 CURVE",
"858 755 LINE",
"888 815 OFFCURVE",
"901 871 OFFCURVE",
"901 922 CURVE SMOOTH",
"901 1018 OFFCURVE",
"854 1067 OFFCURVE",
"766 1067 CURVE SMOOTH",
"646 1067 OFFCURVE",
"544 976 OFFCURVE",
"414 752 CURVE",
"405 755 LINE",
"459 869 OFFCURVE",
"480 937 OFFCURVE",
"480 989 CURVE SMOOTH",
"480 1044 OFFCURVE",
"454 1069 OFFCURVE",
"401 1069 CURVE SMOOTH",
"294 1069 OFFCURVE",
"171 982 OFFCURVE",
"86 843 CURVE {name = hr04;}",
"120 812 LINE",
"181 911 OFFCURVE",
"254 980 OFFCURVE",
"294 980 CURVE SMOOTH",
"325 980 OFFCURVE",
"327 948 OFFCURVE",
"300 883 CURVE SMOOTH",
"-19 0 LINE",
"142 0 LINE",
"293 383 LINE SMOOTH",
"434 743 OFFCURVE",
"608 1000 OFFCURVE",
"716 1000 CURVE SMOOTH",
"749 1000 OFFCURVE",
"770 976 OFFCURVE",
"770 940 CURVE SMOOTH",
"770 917 OFFCURVE",
"761 881 OFFCURVE",
"748 845 CURVE SMOOTH",
"422 0 LINE",
"601 0 LINE",
"754 409 LINE SMOOTH",
"877 737 OFFCURVE",
"1059 1000 OFFCURVE",
"1163 1000 CURVE SMOOTH {name = hr02;}",
"1218 1000 OFFCURVE",
"1227 941 OFFCURVE",
"1189 845 CURVE SMOOTH",
"982 312 LINE SMOOTH",
"941 208 OFFCURVE",
"923 135 OFFCURVE",
"923 83 CURVE SMOOTH",
"923 16 OFFCURVE",
"958 -21 OFFCURVE",
"1021 -21 CURVE SMOOTH"
);
}
);
width = 1446;
},
{
background = {
paths = (
{
closed = 0;
nodes = (
"485 412 LINE SMOOTH",
"585 638 OFFCURVE",
"867 976 OFFCURVE",
"951 976 CURVE SMOOTH {name = hr02;}",
"988 976 OFFCURVE",
"995 932 OFFCURVE",
"956 854 CURVE SMOOTH",
"700 350 LINE SMOOTH",
"652 254 OFFCURVE",
"629 176 OFFCURVE",
"629 114 CURVE SMOOTH",
"629 22 OFFCURVE",
"681 -21 OFFCURVE",
"792 -21 CURVE SMOOTH",
"941 -21 OFFCURVE",
"1069 58 OFFCURVE",
"1236 251 CURVE",
"1180 284 LINE",
"1045 144 OFFCURVE",
"978 91 OFFCURVE",
"937 91 CURVE SMOOTH {name = hr01;}",
"905 91 OFFCURVE",
"905 123 OFFCURVE",
"936 184 CURVE SMOOTH",
"1205 712 LINE SMOOTH",
"1231 763 OFFCURVE",
"1245 820 OFFCURVE",
"1245 876 CURVE SMOOTH",
"1245 1000 OFFCURVE",
"1176 1067 OFFCURVE",
"1048 1067 CURVE SMOOTH",
"899 1067 OFFCURVE",
"772 970 OFFCURVE",
"599 720 CURVE"
);
}
);
};
layerId = "D3934E74-9B53-4E98-B19F-CD3DFEE08352";
paths = (
{
closed = 1;
nodes = (
"1290 -21 OFFCURVE",
"1398 58 OFFCURVE",
"1538 251 CURVE",
"1492 284 LINE",
"1378 144 OFFCURVE",
"1321 91 OFFCURVE",
"1288 91 CURVE SMOOTH {name = hr01;}",
"1261 91 OFFCURVE",
"1261 123 OFFCURVE",
"1287 184 CURVE SMOOTH",
"1507 712 LINE SMOOTH",
"1530 763 OFFCURVE",
"1541 820 OFFCURVE",
"1541 876 CURVE SMOOTH",
"1541 1000 OFFCURVE",
"1483 1067 OFFCURVE",
"1380 1067 CURVE SMOOTH",
"1246 1067 OFFCURVE",
"1138 970 OFFCURVE",
"994 720 CURVE",
"983 723 LINE",
"1007 786 OFFCURVE",
"1019 844 OFFCURVE",
"1019 897 CURVE SMOOTH",
"1019 1004 OFFCURVE",
"972 1067 OFFCURVE",
"882 1067 CURVE SMOOTH",
"757 1067 OFFCURVE",
"648 970 OFFCURVE",
"503 720 CURVE",
"492 723 LINE",
"536 828 OFFCURVE",
"556 902 OFFCURVE",
"556 956 CURVE SMOOTH",
"556 1034 OFFCURVE",
"520 1069 OFFCURVE",
"436 1069 CURVE SMOOTH",
"311 1069 OFFCURVE",
"183 991 OFFCURVE",
"87 856 CURVE {name = hr03;}",
"131 813 LINE",
"181 888 OFFCURVE",
"276 968 OFFCURVE",
"314 968 CURVE SMOOTH",
"332 968 OFFCURVE",
"333 956 OFFCURVE",
"319 912 CURVE SMOOTH",
"7 0 LINE",
"249 0 LINE",
"407 412 LINE SMOOTH",
"493 638 OFFCURVE",
"728 976 OFFCURVE",
"808 976 CURVE SMOOTH {name = hr02;}",
"819 976 OFFCURVE",
"825 966 OFFCURVE",
"825 945 CURVE SMOOTH",
"825 921 OFFCURVE",
"817 894 OFFCURVE",
"803 854 CURVE SMOOTH",
"484 0 LINE",
"743 0 LINE",
"898 412 LINE SMOOTH",
"982 638 OFFCURVE",
"1219 976 OFFCURVE",
"1299 976 CURVE SMOOTH {name = hr02;}",
"1330 976 OFFCURVE",
"1335 933 OFFCURVE",
"1303 854 CURVE SMOOTH",
"1097 351 LINE SMOOTH",
"1058 254 OFFCURVE",
"1038 176 OFFCURVE",
"1038 114 CURVE SMOOTH",
"1038 22 OFFCURVE",
"1082 -21 OFFCURVE",
"1172 -21 CURVE SMOOTH"
);
}
);
width = 1624;
}
);
leftKerningGroup = i;
leftMetricsKey = n;
rightKerningGroup = i;
rightMetricsKey = n;
unicode = 006D;
},
{
glyphname = n;
layers = (
{
anchors = (
{
name = bottom;
position = "{291, 0}";
},
{
name = top;
position = "{770, 1289}";
}
);
background = {
paths = (
{
closed = 1;
nodes = (
"785 -21 OFFCURVE",
"1158 388 OFFCURVE",
"1158 744 CURVE SMOOTH",
"1158 944 OFFCURVE",
"1051 1069 OFFCURVE",
"864 1069 CURVE SMOOTH",
"535 1069 OFFCURVE",
"165 659 OFFCURVE",
"165 307 CURVE SMOOTH",
"165 105 OFFCURVE",
"269 -21 OFFCURVE",
"457 -21 CURVE SMOOTH {name = hr00;}"
);
},
{
closed = 1;
nodes = (
"371 50 OFFCURVE",
"345 99 OFFCURVE",
"345 193 CURVE SMOOTH",
"345 503 OFFCURVE",
"678 1000 OFFCURVE",
"887 1000 CURVE SMOOTH",
"955 1000 OFFCURVE",
"982 953 OFFCURVE",
"982 865 CURVE SMOOTH",
"982 572 OFFCURVE",
"632 50 OFFCURVE",
"434 50 CURVE SMOOTH"
);
}
);
};
layerId = master01;
paths = (
{
closed = 1;
nodes = (
"688 -21 OFFCURVE",
"801 70 OFFCURVE",
"919 245 CURVE",
"884 275 LINE",
"799 162 OFFCURVE",
"728 97 OFFCURVE",
"690 97 CURVE SMOOTH {name = hr01;}",
"676 97 OFFCURVE",
"669 105 OFFCURVE",
"669 124 CURVE SMOOTH",
"669 146 OFFCURVE",
"683 192 OFFCURVE",
"702 240 CURVE SMOOTH",
"898 713 LINE SMOOTH",
"926 780 OFFCURVE",
"938 837 OFFCURVE",
"938 895 CURVE SMOOTH",
"938 1008 OFFCURVE",
"888 1067 OFFCURVE",
"787 1067 CURVE SMOOTH",
"664 1067 OFFCURVE",
"556 976 OFFCURVE",
"414 752 CURVE",
"407 755 LINE",
"459 873 OFFCURVE",
"480 936 OFFCURVE",
"480 989 CURVE SMOOTH",
"480 1044 OFFCURVE",
"457 1069 OFFCURVE",
"401 1069 CURVE SMOOTH",
"294 1069 OFFCURVE",
"171 982 OFFCURVE",
"86 843 CURVE {name = hr03;}",
"120 812 LINE",
"187 912 OFFCURVE",
"257 980 OFFCURVE",
"295 980 CURVE SMOOTH",
"312 980 OFFCURVE",
"319 968 OFFCURVE",
"319 950 CURVE SMOOTH",
"319 937 OFFCURVE",
"312 917 OFFCURVE",
"300 883 CURVE SMOOTH",
"-19 0 LINE",
"142 0 LINE",
"297 383 LINE SMOOTH",
"440 738 OFFCURVE",
"627 1000 OFFCURVE",
"741 1000 CURVE SMOOTH {name = hr02;}",
"774 1000 OFFCURVE",
"794 978 OFFCURVE",
"794 940 CURVE SMOOTH",
"794 911 OFFCURVE",
"785 873 OFFCURVE",
"773 845 CURVE SMOOTH",
"547 312 LINE SMOOTH",
"508 221 OFFCURVE",
"486 140 OFFCURVE",
"486 85 CURVE SMOOTH",
"486 16 OFFCURVE",
"521 -21 OFFCURVE",
"585 -21 CURVE SMOOTH"
);
}
);
width = 1011;
},
{
anchors = (
{
name = bottom;
position = "{409, 0}";
},
{
name = top;
position = "{749, 1289}";
}
);
background = {
paths = (
{
closed = 1;
nodes = (
"920 -21 OFFCURVE",
"1048 58 OFFCURVE",
"1215 251 CURVE",
"1160 284 LINE",
"1024 144 OFFCURVE",
"957 91 OFFCURVE",
"917 91 CURVE SMOOTH {name = hr01;}",
"900 91 OFFCURVE",
"892 99 OFFCURVE",
"892 115 CURVE SMOOTH",
"892 130 OFFCURVE",
"900 154 OFFCURVE",
"915 184 CURVE SMOOTH",
"1178 712 LINE SMOOTH",
"1204 763 OFFCURVE",
"1218 820 OFFCURVE",
"1218 876 CURVE SMOOTH",
"1218 1000 OFFCURVE",
"1149 1067 OFFCURVE",
"1027 1067 CURVE SMOOTH",
"879 1067 OFFCURVE",
"751 970 OFFCURVE",
"577 720 CURVE",
"564 723 LINE",
"621 845 OFFCURVE",
"641 909 OFFCURVE",
"641 959 CURVE SMOOTH",
"641 1034 OFFCURVE",
"598 1069 OFFCURVE",
"499 1069 CURVE SMOOTH",
"349 1069 OFFCURVE",
"197 991 OFFCURVE",
"82 856 CURVE {name = hr03;}",
"135 813 LINE",
"195 888 OFFCURVE",
"307 968 OFFCURVE",
"354 968 CURVE SMOOTH",
"366 968 OFFCURVE",
"371 964 OFFCURVE",
"371 953 CURVE SMOOTH",
"371 945 OFFCURVE",
"367 934 OFFCURVE",
"359 912 CURVE SMOOTH",
"-13 0 LINE",
"276 0 LINE",
"464 412 LINE SMOOTH",
"567 638 OFFCURVE",
"846 976 OFFCURVE",
"930 976 CURVE SMOOTH {name = hr02;}",
"950 976 OFFCURVE",
"962 963 OFFCURVE",
"962 940 CURVE SMOOTH",
"962 919 OFFCURVE",
"953 892 OFFCURVE",
"935 854 CURVE SMOOTH",
"690 350 LINE SMOOTH",
"644 256 OFFCURVE",
"620 177 OFFCURVE",
"620 114 CURVE SMOOTH",
"620 22 OFFCURVE",
"671 -21 OFFCURVE",
"783 -21 CURVE SMOOTH"
);
}
);
};
layerId = "D3934E74-9B53-4E98-B19F-CD3DFEE08352";
paths = (
{
closed = 1;
nodes = (
"792 -21 OFFCURVE",
"890 58 OFFCURVE",
"1021 251 CURVE",
"974 284 LINE",
"869 144 OFFCURVE",
"823 91 OFFCURVE",
"790 91 CURVE SMOOTH {name = hr01;}",
"776 91 OFFCURVE",
"769 99 OFFCURVE",
"769 115 CURVE SMOOTH",
"769 130 OFFCURVE",
"776 154 OFFCURVE",
"788 184 CURVE SMOOTH",
"1009 712 LINE SMOOTH",
"1031 763 OFFCURVE",
"1042 820 OFFCURVE",
"1042 876 CURVE SMOOTH",
"1042 1000 OFFCURVE",
"984 1067 OFFCURVE",
"873 1067 CURVE SMOOTH",
"738 1067 OFFCURVE",
"631 970 OFFCURVE",
"485 720 CURVE",
"474 723 LINE",
"522 845 OFFCURVE",
"538 909 OFFCURVE",
"538 959 CURVE SMOOTH",
"538 1034 OFFCURVE",
"502 1069 OFFCURVE",
"422 1069 CURVE SMOOTH",
"289 1069 OFFCURVE",
"168 973 OFFCURVE",
"78 833 CURVE {name = hr03;}",
"123 790 LINE",
"164 865 OFFCURVE",
"268 968 OFFCURVE",
"299 968 CURVE SMOOTH",
"307 968 OFFCURVE",
"312 964 OFFCURVE",
"312 953 CURVE SMOOTH",
"312 945 OFFCURVE",
"308 934 OFFCURVE",
"302 912 CURVE SMOOTH",
"-11 0 LINE",
"232 0 LINE",
"390 412 LINE SMOOTH",
"476 638 OFFCURVE",
"711 976 OFFCURVE",
"801 976 CURVE SMOOTH {name = hr02;}",
"817 976 OFFCURVE",
"827 963 OFFCURVE",
"827 940 CURVE SMOOTH",
"827 919 OFFCURVE",
"820 892 OFFCURVE",
"805 854 CURVE SMOOTH",
"599 350 LINE SMOOTH",
"560 256 OFFCURVE",
"540 177 OFFCURVE",
"540 114 CURVE SMOOTH",
"540 22 OFFCURVE",
"583 -21 OFFCURVE",
"677 -21 CURVE SMOOTH"
);
}
);
width = 1106;
}
);
leftKerningGroup = i;
rightKerningGroup = i;
unicode = 006E;
},
{
glyphname = eng;
layers = (
{
background = {
paths = (
{
closed = 1;
nodes = (
"408 -507 OFFCURVE",
"563 -383 OFFCURVE",
"663 -161 CURVE SMOOTH",
"915 402 LINE SMOOTH",
"1055 714 OFFCURVE",
"1118 903 OFFCURVE",
"1118 974 CURVE SMOOTH",
"1118 1033 OFFCURVE",
"1077 1069 OFFCURVE",
"994 1069 CURVE SMOOTH",
"887 1069 OFFCURVE",
"768 1005 OFFCURVE",
"674 892 CURVE {name = hr02;}",
"715 857 LINE",
"774 933 OFFCURVE",
"831 974 OFFCURVE",
"879 974 CURVE SMOOTH",
"898 974 OFFCURVE",
"907 968 OFFCURVE",
"907 948 CURVE SMOOTH",
"907 906 OFFCURVE",
"881 828 OFFCURVE",
"751 500 CURVE SMOOTH {name = hr01;}",
"531 -55 LINE SMOOTH",
"415 -349 OFFCURVE",
"348 -438 OFFCURVE",
"269 -438 CURVE SMOOTH",
"143 -438 OFFCURVE",
"210 -261 OFFCURVE",
"71 -261 CURVE SMOOTH",
"9 -261 OFFCURVE",
"-20 -295 OFFCURVE",
"-20 -355 CURVE SMOOTH",
"-20 -448 OFFCURVE",
"77 -507 OFFCURVE",
"212 -507 CURVE SMOOTH"
);
}
);
};
layerId = master01;
paths = (
{
closed = 1;
nodes = (
"344 -507 OFFCURVE",
"472 -383 OFFCURVE",
"558 -161 CURVE SMOOTH",
"898 713 LINE SMOOTH",
"925 782 OFFCURVE",
"938 837 OFFCURVE",
"938 896 CURVE SMOOTH",
"938 1008 OFFCURVE",
"888 1067 OFFCURVE",
"787 1067 CURVE SMOOTH",
"664 1067 OFFCURVE",
"556 976 OFFCURVE",
"414 752 CURVE",
"407 755 LINE",
"459 873 OFFCURVE",
"480 936 OFFCURVE",
"480 989 CURVE SMOOTH",
"480 1044 OFFCURVE",
"457 1069 OFFCURVE",
"401 1069 CURVE SMOOTH {name = hr02;}",
"294 1069 OFFCURVE",
"171 982 OFFCURVE",
"86 843 CURVE",
"120 812 LINE",
"187 912 OFFCURVE",
"257 980 OFFCURVE",
"295 980 CURVE SMOOTH",
"312 980 OFFCURVE",
"319 966 OFFCURVE",
"319 952 CURVE SMOOTH",
"319 936 OFFCURVE",
"312 917 OFFCURVE",
"300 883 CURVE SMOOTH",
"-19 0 LINE",
"142 0 LINE",
"297 383 LINE SMOOTH",
"440 738 OFFCURVE",
"627 1000 OFFCURVE",
"741 1000 CURVE SMOOTH {name = hr03;}",
"774 1000 OFFCURVE",
"794 978 OFFCURVE",
"794 940 CURVE SMOOTH",
"794 911 OFFCURVE",
"783 873 OFFCURVE",
"773 845 CURVE SMOOTH",
"447 -55 LINE SMOOTH",
"343 -344 OFFCURVE",
"295 -438 OFFCURVE",
"223 -438 CURVE SMOOTH",
"125 -438 OFFCURVE",
"175 -261 OFFCURVE",
"61 -261 CURVE SMOOTH {name = hr01;}",
"10 -261 OFFCURVE",
"-15 -297 OFFCURVE",
"-15 -351 CURVE SMOOTH",
"-15 -450 OFFCURVE",
"66 -507 OFFCURVE",
"179 -507 CURVE SMOOTH"
);
}
);
width = 973;
},
{
layerId = "D3934E74-9B53-4E98-B19F-CD3DFEE08352";
paths = (
{
closed = 1;
nodes = (
"458 -507 OFFCURVE",
"630 -333 OFFCURVE",
"804 146 CURVE SMOOTH",
"1009 712 LINE SMOOTH",
"1028 763 OFFCURVE",
"1042 820 OFFCURVE",
"1042 880 CURVE SMOOTH",
"1042 1000 OFFCURVE",
"984 1067 OFFCURVE",
"873 1067 CURVE SMOOTH",
"738 1067 OFFCURVE",
"631 970 OFFCURVE",
"485 720 CURVE",
"474 723 LINE",
"522 845 OFFCURVE",
"538 909 OFFCURVE",
"538 959 CURVE SMOOTH",
"538 1034 OFFCURVE",
"502 1069 OFFCURVE",
"422 1069 CURVE SMOOTH",
"289 1069 OFFCURVE",
"168 973 OFFCURVE",
"78 833 CURVE {name = hr03;}",
"123 790 LINE",
"164 865 OFFCURVE",
"268 968 OFFCURVE",
"299 968 CURVE SMOOTH",
"307 968 OFFCURVE",
"312 964 OFFCURVE",
"312 953 CURVE SMOOTH",
"312 945 OFFCURVE",
"309 934 OFFCURVE",
"302 912 CURVE SMOOTH",
"-11 0 LINE",
"232 0 LINE",
"390 412 LINE SMOOTH",
"476 638 OFFCURVE",
"711 976 OFFCURVE",
"800 976 CURVE SMOOTH {name = hr02;}",
"817 976 OFFCURVE",
"827 963 OFFCURVE",
"827 941 CURVE SMOOTH",
"827 919 OFFCURVE",
"817 892 OFFCURVE",
"805 854 CURVE SMOOTH",
"592 215 LINE SMOOTH",
"423 -289 OFFCURVE",
"340 -412 OFFCURVE",
"250 -415 CURVE SMOOTH",
"134 -418 OFFCURVE",
"199 -207 OFFCURVE",
"66 -207 CURVE SMOOTH",
"2 -207 OFFCURVE",
"-34 -256 OFFCURVE",
"-34 -316 CURVE SMOOTH",
"-34 -432 OFFCURVE",
"96 -507 OFFCURVE",
"228 -507 CURVE SMOOTH"
);
}
);
width = 1074;
}
);
leftKerningGroup = i;
leftMetricsKey = n;
unicode = 014B;
},
{
glyphname = o;
layers = (
{
anchors = (
{
name = bottom;
position = "{297, 0}";
},
{
name = top;
position = "{753, 1289}";
}
);
background = {
paths = (
{
closed = 1;
nodes = (
"780 -21 OFFCURVE",
"914 70 OFFCURVE",
"1055 245 CURVE",
"1013 275 LINE",
"912 162 OFFCURVE",
"828 97 OFFCURVE",
"782 97 CURVE SMOOTH {name = hr01;}",
"766 97 OFFCURVE",
"758 105 OFFCURVE",
"758 124 CURVE SMOOTH",
"758 146 OFFCURVE",
"774 192 OFFCURVE",
"797 240 CURVE SMOOTH",
"1029 713 LINE SMOOTH",
"1063 780 OFFCURVE",
"1078 837 OFFCURVE",
"1078 895 CURVE SMOOTH",
"1078 1008 OFFCURVE",
"1018 1067 OFFCURVE",
"898 1067 CURVE SMOOTH",
"752 1067 OFFCURVE",
"623 976 OFFCURVE",
"454 752 CURVE",
"446 755 LINE",
"508 873 OFFCURVE",
"532 936 OFFCURVE",
"532 989 CURVE SMOOTH",
"532 1044 OFFCURVE",
"504 1069 OFFCURVE",
"438 1069 CURVE SMOOTH",
"311 1069 OFFCURVE",
"165 982 OFFCURVE",
"63 843 CURVE {name = hr03;}",
"104 812 LINE",
"184 912 OFFCURVE",
"267 980 OFFCURVE",
"312 980 CURVE SMOOTH",
"333 980 OFFCURVE",
"341 968 OFFCURVE",
"341 950 CURVE SMOOTH",
"341 937 OFFCURVE",
"333 917 OFFCURVE",
"318 883 CURVE SMOOTH",
"-62 0 LINE",
"130 0 LINE",
"314 383 LINE SMOOTH",
"485 738 OFFCURVE",
"708 1000 OFFCURVE",
"843 1000 CURVE SMOOTH {name = hr02;}",
"883 1000 OFFCURVE",
"906 978 OFFCURVE",
"906 940 CURVE SMOOTH",
"906 911 OFFCURVE",
"895 873 OFFCURVE",
"881 845 CURVE SMOOTH",
"611 312 LINE SMOOTH",
"565 221 OFFCURVE",
"540 140 OFFCURVE",
"540 85 CURVE SMOOTH",
"540 16 OFFCURVE",
"580 -21 OFFCURVE",
"656 -21 CURVE SMOOTH"
);
}
);
};
layerId = master01;
paths = (
{
closed = 1;
nodes = (
"569 -21 OFFCURVE",
"882 388 OFFCURVE",
"882 744 CURVE SMOOTH",
"882 944 OFFCURVE",
"792 1069 OFFCURVE",
"634 1069 CURVE SMOOTH",
"359 1069 OFFCURVE",
"47 659 OFFCURVE",
"47 307 CURVE SMOOTH",
"47 105 OFFCURVE",
"135 -21 OFFCURVE",
"293 -21 CURVE SMOOTH {name = hr00;}"
);
},
{
closed = 1;
nodes = (
"221 50 OFFCURVE",
"199 99 OFFCURVE",
"199 193 CURVE SMOOTH",
"199 503 OFFCURVE",
"479 1000 OFFCURVE",
"654 1000 CURVE SMOOTH",
"711 1000 OFFCURVE",
"734 953 OFFCURVE",
"734 865 CURVE SMOOTH",
"734 572 OFFCURVE",
"440 50 OFFCURVE",
"274 50 CURVE SMOOTH"
);
}
);
width = 928;
},
{
anchors = (
{
name = bottom;
position = "{344, 0}";
},
{
name = top;
position = "{752, 1289}";
}
);
background = {
paths = (
{
closed = 1;
nodes = (
"408 1069 OFFCURVE",
"60 707 OFFCURVE",
"60 332 CURVE SMOOTH",
"60 107 OFFCURVE",
"195 -21 OFFCURVE",
"419 -21 CURVE SMOOTH",
"795 -21 OFFCURVE",
"1142 339 OFFCURVE",
"1142 717 CURVE SMOOTH",
"1142 942 OFFCURVE",
"1008 1069 OFFCURVE",
"782 1069 CURVE SMOOTH {name = hr00;}"
);
},
{
closed = 1;
nodes = (
"842 975 OFFCURVE",
"868 924 OFFCURVE",
"868 841 CURVE SMOOTH",
"868 553 OFFCURVE",
"569 71 OFFCURVE",
"416 71 CURVE SMOOTH",
"359 71 OFFCURVE",
"335 121 OFFCURVE",
"335 213 CURVE SMOOTH",
"335 497 OFFCURVE",
"629 975 OFFCURVE",
"790 975 CURVE SMOOTH"
);
}
);
};
layerId = "D3934E74-9B53-4E98-B19F-CD3DFEE08352";
paths = (
{
closed = 1;
nodes = (
"668 -21 OFFCURVE",
"959 341 OFFCURVE",
"959 716 CURVE SMOOTH",
"959 941 OFFCURVE",
"847 1069 OFFCURVE",
"658 1069 CURVE SMOOTH",
"343 1069 OFFCURVE",
"50 709 OFFCURVE",
"50 330 CURVE SMOOTH",
"50 106 OFFCURVE",
"164 -21 OFFCURVE",
"353 -21 CURVE SMOOTH {name = hr00;}"
);
},
{
closed = 1;
nodes = (
"302 73 OFFCURVE",
"281 124 OFFCURVE",
"281 207 CURVE SMOOTH",
"281 495 OFFCURVE",
"528 975 OFFCURVE",
"664 975 CURVE SMOOTH",
"708 975 OFFCURVE",
"729 924 OFFCURVE",
"729 841 CURVE SMOOTH",
"729 552 OFFCURVE",
"481 73 OFFCURVE",
"346 73 CURVE SMOOTH"
);
}
);
width = 1010;
}
);
leftKerningGroup = o;
rightKerningGroup = o;
unicode = 006F;
},
